SplineFontDB: 3.0
FontName: TlwgMono
FullName: Tlwg Mono
FamilyName: TlwgMono
Weight: Medium
Copyright: TlwgMono, Free Thai monospace outline font.\n\nCopyright (C) 2003 Poonlap Veerathanabutr <poonlap@linux.thai.net>
Version: 001.019: 2012-02-20
ItalicAngle: 0
UnderlinePosition: -150
UnderlineWidth: 50
Ascent: 800
Descent: 200
InvalidEm: 0
sfntRevision: 0x000104dd
LayerCount: 2
Layer: 0 1 "Back" 1
Layer: 1 1 "Fore" 0
XUID: [1021 542 582384140 2805915]
StyleMap: 0x0040
FSType: 0
OS2Version: 1
OS2_WeightWidthSlopeOnly: 0
OS2_UseTypoMetrics: 0
CreationTime: 1153666223
ModificationTime: 1465817327
PfmFamily: 17
TTFWeight: 500
TTFWidth: 5
LineGap: 90
VLineGap: 0
Panose: 2 0 6 3 0 0 0 0 0 0
OS2TypoAscent: 800
OS2TypoAOffset: 0
OS2TypoDescent: -200
OS2TypoDOffset: 0
OS2TypoLinegap: 0
OS2WinAscent: 861
OS2WinAOffset: 0
OS2WinDescent: 371
OS2WinDOffset: 0
HheadAscent: 861
HheadAOffset: 0
HheadDescent: -371
HheadDOffset: 0
OS2SubXSize: 650
OS2SubYSize: 699
OS2SubXOff: 0
OS2SubYOff: 140
OS2SupXSize: 650
OS2SupYSize: 699
OS2SupXOff: 0
OS2SupYOff: 479
OS2StrikeYSize: 49
OS2StrikeYPos: 258
OS2Vendor: 'PfEd'
OS2CodePages: 00010001.00000000
OS2UnicodeRanges: 8100000f.10002008.00000000.00000000
Lookup: 1 0 0 "'ccmp' Glyph Composition/Decomposition in Thai lookup 0" { "'ccmp' Glyph Composition/Decomposition in Thai lookup 0 subtable"  } ['ccmp' ('thai' <'PAL ' 'SAN ' > ) ]
MarkAttachClasses: 1
DEI: 91125
TtTable: prep
PUSHW_1
 511
SCANCTRL
PUSHB_1
 1
SCANTYPE
SVTCA[y-axis]
MPPEM
PUSHB_1
 8
LT
IF
PUSHB_2
 1
 1
INSTCTRL
EIF
PUSHB_2
 70
 6
CALL
IF
POP
PUSHB_1
 16
EIF
MPPEM
PUSHB_1
 20
GT
IF
POP
PUSHB_1
 128
EIF
SCVTCI
PUSHB_1
 6
CALL
NOT
IF
SVTCA[y-axis]
PUSHB_1
 7
DUP
RCVT
PUSHB_1
 3
CALL
WCVTP
SVTCA[x-axis]
PUSHB_1
 8
DUP
RCVT
PUSHB_1
 3
CALL
WCVTP
PUSHB_1
 9
DUP
RCVT
PUSHB_3
 8
 34
 2
CALL
PUSHB_2
 3
 70
SROUND
CALL
WCVTP
EIF
PUSHB_1
 20
CALL
EndTTInstrs
TtTable: fpgm
PUSHB_1
 0
FDEF
PUSHB_1
 0
SZP0
MPPEM
PUSHB_1
 42
LT
IF
PUSHB_1
 74
SROUND
EIF
PUSHB_1
 0
SWAP
MIAP[rnd]
RTG

StartChar: exclam
Encoding: 33 33 4
Width: 600
GlyphClass: 2
Flags: W
LayerCount: 2
Fore
SplineSet
338 563 m 1,0,-1
 338 237 l 2,1,2
 338 224 338 224 325 216.5 c 128,-1,3
 312 209 312 209 299 209 c 0,4,5
 287 209 287 209 274 216.5 c 128,-1,6
 261 224 261 224 261 237 c 2,7,-1
 261 563 l 1,8,-1
 261 579 l 2,9,10
 261 596 261 596 272 607 c 128,-1,11
 283 618 283 618 300 618 c 0,12,13
 316 618 316 618 327 607 c 128,-1,14
 338 596 338 596 338 579 c 2,15,-1
 338 563 l 1,0,-1
293 85 m 2,16,-1
 306 85 l 2,17,18
 329 85 329 85 344.5 70.5 c 128,-1,19
 360 56 360 56 360 35 c 128,-1,20
 360 14 360 14 344.5 -0.5 c 128,-1,21
 329 -15 329 -15 306 -15 c 2,22,-1
 293 -15 l 2,23,24
 271 -15 271 -15 255.5 -0.5 c 128,-1,25
 240 14 240 14 240 35 c 128,-1,26
 240 56 240 56 255.5 70.5 c 128,-1,27
 271 85 271 85 293 85 c 2,16,-1
EndSplineSet
EndChar

StartChar: quotedbl
Encoding: 34 34 5
Width: 600
GlyphClass: 2
Flags: W
LayerCount: 2
Fore
SplineSet
146 604 m 1,0,-1
 274 604 l 1,1,-1
 240 351 l 2,2,3
 236 315 236 315 210 315 c 128,-1,4
 184 315 184 315 180 351 c 2,5,-1
 146 604 l 1,0,-1
326 604 m 1,6,-1
 454 604 l 1,7,-1
 420 351 l 2,8,9
 416 315 416 315 390 315 c 128,-1,10
 364 315 364 315 360 351 c 2,11,-1
 326 604 l 1,6,-1
EndSplineSet
EndChar

StartChar: numbersign
Encoding: 35 35 6
Width: 600
GlyphClass: 2
Flags: W
LayerCount: 2
Fore
SplineSet
390 356 m 1,0,-1
 381 230 l 1,1,-1
 461 230 l 2,2,3
 488 230 488 230 488 210 c 0,4,5
 488 189 488 189 461 189 c 2,6,-1
 378 189 l 1,7,-1
 362 -36 l 2,8,9
 361 -62 361 -62 341 -62 c 0,10,11
 333 -62 333 -62 326.5 -55.5 c 128,-1,12
 320 -49 320 -49 321 -41 c 2,13,-1
 337 189 l 1,14,-1
 246 189 l 1,15,-1
 231 -36 l 2,16,17
 228 -62 228 -62 210 -62 c 0,18,19
 202 -62 202 -62 196 -56 c 128,-1,20
 190 -50 190 -50 190 -41 c 2,21,-1
 190 -33 l 1,22,-1
 206 189 l 1,23,-1
 119 189 l 2,24,25
 92 189 92 189 92 210 c 0,26,27
 92 230 92 230 119 230 c 2,28,-1
 208 230 l 1,29,-1
 217 356 l 1,30,-1
 139 356 l 2,31,32
 112 356 112 356 112 377 c 0,33,34
 112 397 112 397 139 397 c 2,35,-1
 220 397 l 1,36,-1
 236 622 l 2,37,38
 237 647 237 647 257 647 c 0,39,40
 267 647 267 647 272.5 639 c 128,-1,41
 278 631 278 631 276 619 c 2,42,-1
 261 397 l 1,43,-1
 352 397 l 1,44,-1
 368 622 l 2,45,46
 369 647 369 647 388 647 c 0,47,48
 410 647 410 647 408 619 c 2,49,-1
 392 397 l 1,50,-1
 481 397 l 2,51,52
 508 397 508 397 508 377 c 0,53,54
 508 356 508 356 481 356 c 2,55,-1
 390 356 l 1,0,-1
349 356 m 1,56,-1
 258 356 l 1,57,-1
 249 230 l 1,58,-1
 340 230 l 1,59,-1
 349 356 l 1,56,-1
EndSplineSet
EndChar

StartChar: dollar
Encoding: 36 36 7
Width: 600
GlyphClass: 2
Flags: W
LayerCount: 2
Fore
SplineSet
280 576 m 1,0,-1
 280 628 l 2,1,2
 280 655 280 655 301 655 c 0,3,4
 321 655 321 655 321 628 c 2,5,-1
 321 576 l 1,6,7
 354 573 354 573 376 564 c 128,-1,8
 398 555 398 555 425 534 c 1,9,10
 427 563 427 563 446 563 c 0,11,12
 466 563 466 563 466 536 c 2,13,-1
 466 476 l 2,14,15
 466 449 466 449 446 449 c 0,16,17
 428 449 428 449 425 471 c 0,18,19
 421 498 421 498 384.5 518 c 128,-1,20
 348 538 348 538 302 538 c 0,21,22
 250 538 250 538 213.5 507.5 c 128,-1,23
 177 477 177 477 177 434 c 128,-1,24
 177 391 177 391 210 373 c 128,-1,25
 243 355 243 355 312 342 c 0,26,27
 404 324 404 324 438 301 c 0,28,29
 487 268 487 268 487 201 c 0,30,31
 487 142 487 142 442 102 c 128,-1,32
 397 62 397 62 321 54 c 1,33,-1
 321 -65 l 2,34,35
 321 -92 321 -92 301 -92 c 0,36,37
 280 -92 280 -92 280 -65 c 2,38,-1
 280 54 l 1,39,40
 245 56 245 56 209 71 c 128,-1,41
 173 86 173 86 154 108 c 1,42,-1
 154 92 l 2,43,44
 154 65 154 65 134 65 c 0,45,46
 113 65 113 65 113 92 c 2,47,-1
 113 171 l 2,48,49
 113 198 113 198 134 198 c 0,50,51
 151 198 151 198 154 173 c 0,52,53
 157 141 157 141 200.5 117 c 128,-1,54
 244 93 244 93 299 93 c 0,55,56
 363 93 363 93 404.5 123.5 c 128,-1,57
 446 154 446 154 446 201 c 0,58,59
 446 249 446 249 412 269 c 128,-1,60
 378 289 378 289 302 303 c 0,61,62
 220 318 220 318 183 341 c 0,63,64
 136 373 136 373 136 435 c 0,65,66
 136 489 136 489 176.5 529 c 128,-1,67
 217 569 217 569 280 576 c 1,0,-1
EndSplineSet
EndChar

StartChar: percent
Encoding: 37 37 8
Width: 600
GlyphClass: 2
Flags: W
LayerCount: 2
Fore
SplineSet
361 236 m 0,0,1
 413 236 413 236 448.5 199.5 c 128,-1,2
 484 163 484 163 484 110 c 0,3,4
 484 60 484 60 448 24 c 128,-1,5
 412 -12 412 -12 362 -12 c 0,6,7
 311 -12 311 -12 275 24.5 c 128,-1,8
 239 61 239 61 239 112 c 128,-1,9
 239 163 239 163 275 199.5 c 128,-1,10
 311 236 311 236 361 236 c 0,0,1
361 198 m 0,11,12
 326 198 326 198 301.5 173 c 128,-1,13
 277 148 277 148 277 112 c 0,14,15
 277 77 277 77 302 51.5 c 128,-1,16
 327 26 327 26 362 26 c 0,17,18
 396 26 396 26 421 51 c 128,-1,19
 446 76 446 76 446 111 c 0,20,21
 446 148 446 148 421.5 173 c 128,-1,22
 397 198 397 198 361 198 c 0,11,12
237 611 m 0,23,24
 289 611 289 611 324.5 575 c 128,-1,25
 360 539 360 539 360 486 c 0,26,27
 360 436 360 436 324 399.5 c 128,-1,28
 288 363 288 363 238 363 c 0,29,30
 187 363 187 363 151 399.5 c 128,-1,31
 115 436 115 436 115 487 c 128,-1,32
 115 538 115 538 151 574.5 c 128,-1,33
 187 611 187 611 237 611 c 0,23,24
237 573 m 0,34,35
 203 573 203 573 178 547.5 c 128,-1,36
 153 522 153 522 153 487 c 128,-1,37
 153 452 153 452 178 426.5 c 128,-1,38
 203 401 203 401 238 401 c 0,39,40
 272 401 272 401 297 426.5 c 128,-1,41
 322 452 322 452 322 486 c 0,42,43
 322 523 322 523 297.5 548 c 128,-1,44
 273 573 273 573 237 573 c 0,34,35
495 344 m 2,45,-1
 116 222 l 2,46,47
 108 219 108 219 104 219 c 0,48,49
 98 219 98 219 92.5 225 c 128,-1,50
 87 231 87 231 87 238 c 0,51,52
 87 252 87 252 105 258 c 2,53,-1
 484 380 l 2,54,55
 492 382 492 382 496 382 c 0,56,57
 503 382 503 382 508 376.5 c 128,-1,58
 513 371 513 371 513 363 c 0,59,60
 513 350 513 350 495 344 c 2,45,-1
EndSplineSet
EndChar

StartChar: ampersand
Encoding: 38 38 9
Width: 600
GlyphClass: 2
Flags: W
LayerCount: 2
Fore
SplineSet
393 0 m 1,0,-1
 362 48 l 1,1,2
 317 -16 317 -16 250 -16 c 0,3,4
 191 -16 191 -16 148 31 c 128,-1,5
 105 78 105 78 105 142 c 0,6,7
 105 194 105 194 134.5 232.5 c 128,-1,8
 164 271 164 271 216 287 c 1,9,10
 182 342 182 342 174 360 c 128,-1,11
 166 378 166 378 166 400 c 0,12,13
 166 449 166 449 202.5 484 c 128,-1,14
 239 519 239 519 289 519 c 0,15,16
 322 519 322 519 355 499 c 1,17,18
 374 510 374 510 381 510 c 128,-1,19
 388 510 388 510 394 503.5 c 128,-1,20
 400 497 400 497 400 489 c 0,21,22
 400 477 400 477 384 468 c 2,23,-1
 352 452 l 1,24,25
 322 478 322 478 289 478 c 0,26,27
 257 478 257 478 232 453.5 c 128,-1,28
 207 429 207 429 207 398 c 128,-1,29
 207 367 207 367 251 298 c 2,30,-1
 362 121 l 1,31,32
 393 179 393 179 408 249 c 1,33,-1
 451 249 l 2,34,35
 478 249 478 249 478 229 c 0,36,37
 478 208 478 208 451 208 c 2,38,-1
 439 208 l 1,39,40
 417 125 417 125 386 82 c 1,41,-1
 413 41 l 1,42,-1
 451 41 l 2,43,44
 478 41 478 41 478 21 c 0,45,46
 478 0 478 0 451 0 c 2,47,-1
 393 0 l 1,0,-1
338 86 m 1,48,-1
 233 251 l 1,49,50
 193 242 193 242 169.5 212.5 c 128,-1,51
 146 183 146 183 146 142 c 0,52,53
 146 95 146 95 177 60 c 128,-1,54
 208 25 208 25 249 25 c 0,55,56
 304 25 304 25 338 86 c 1,48,-1
EndSplineSet
EndChar

StartChar: quotesingle
Encoding: 39 39 10
Width: 600
GlyphClass: 2
Flags: W
LayerCount: 2
Fore
SplineSet
236 604 m 1,0,-1
 364 604 l 1,1,-1
 330 351 l 2,2,3
 326 315 326 315 300 315 c 128,-1,4
 274 315 274 315 270 351 c 2,5,-1
 236 604 l 1,0,-1
EndSplineSet
EndChar

StartChar: parenleft
Encoding: 40 40 11
Width: 600
GlyphClass: 2
Flags: W
LayerCount: 2
Fore
SplineSet
438 604 m 0,0,1
 446 604 446 604 452 598 c 128,-1,2
 458 592 458 592 458 584 c 0,3,4
 458 580 458 580 455 573 c 0,5,6
 355 396 355 396 355 240 c 0,7,8
 355 87 355 87 455 -93 c 0,9,10
 458 -100 458 -100 458 -104 c 0,11,12
 458 -112 458 -112 451.5 -118 c 128,-1,13
 445 -124 445 -124 437 -124 c 0,14,15
 424 -124 424 -124 395 -77 c 0,16,17
 294 91 294 91 294 243 c 0,18,19
 294 400 294 400 404 570 c 0,20,21
 425 604 425 604 438 604 c 0,0,1
EndSplineSet
EndChar

StartChar: parenright
Encoding: 41 41 12
Width: 600
GlyphClass: 2
Flags: W
LayerCount: 2
Fore
SplineSet
168 604 m 0,0,1
 182 604 182 604 210 557 c 0,2,3
 311 391 311 391 311 237 c 0,4,5
 311 80 311 80 201 -90 c 0,6,7
 180 -124 180 -124 167 -124 c 0,8,9
 159 -124 159 -124 153 -118 c 128,-1,10
 147 -112 147 -112 147 -104 c 0,11,12
 147 -100 147 -100 150 -93 c 0,13,14
 250 84 250 84 250 240 c 0,15,16
 250 394 250 394 150 573 c 0,17,18
 147 580 147 580 147 584 c 0,19,20
 147 592 147 592 153.5 598 c 128,-1,21
 160 604 160 604 168 604 c 0,0,1
EndSplineSet
EndChar

StartChar: asterisk
Encoding: 42 42 13
Width: 600
GlyphClass: 2
Flags: W
LayerCount: 2
Fore
SplineSet
279 438 m 1,0,-1
 279 577 l 2,1,2
 279 604 279 604 300 604 c 0,3,4
 320 604 320 604 320 577 c 2,5,-1
 320 438 l 1,6,-1
 453 481 l 2,7,8
 460 484 460 484 468 484 c 0,9,10
 475 484 475 484 481 478 c 128,-1,11
 487 472 487 472 487 464 c 0,12,13
 487 449 487 449 466 442 c 2,14,-1
 333 400 l 1,15,-1
 414 288 l 2,16,17
 421 276 421 276 421 270 c 0,18,19
 421 262 421 262 415 256 c 128,-1,20
 409 250 409 250 401 250 c 0,21,22
 391 250 391 250 381 264 c 2,23,-1
 299 376 l 1,24,-1
 218 264 l 2,25,26
 207 250 207 250 197 250 c 0,27,28
 189 250 189 250 183 256 c 128,-1,29
 177 262 177 262 177 271 c 0,30,31
 177 277 177 277 185 288 c 2,32,-1
 266 400 l 1,33,-1
 133 442 l 2,34,35
 113 447 113 447 113 463 c 0,36,37
 113 471 113 471 119 477 c 128,-1,38
 125 483 125 483 133 483 c 0,39,40
 136 483 136 483 146 480 c 2,41,-1
 279 438 l 1,0,-1
EndSplineSet
EndChar

StartChar: plus
Encoding: 43 43 14
Width: 600
GlyphClass: 2
Flags: W
LayerCount: 2
Fore
SplineSet
320 261 m 1,0,-1
 320 59 l 2,1,2
 320 32 320 32 300 32 c 0,3,4
 279 32 279 32 279 59 c 2,5,-1
 279 261 l 1,6,-1
 99 261 l 2,7,8
 72 261 72 261 72 282 c 0,9,10
 72 302 72 302 99 302 c 2,11,-1
 279 302 l 1,12,-1
 279 503 l 2,13,14
 279 530 279 530 300 530 c 0,15,16
 320 530 320 530 320 503 c 2,17,-1
 320 302 l 1,18,-1
 500 302 l 2,19,20
 528 302 528 302 528 282 c 0,21,22
 528 261 528 261 500 261 c 2,23,-1
 320 261 l 1,0,-1
EndSplineSet
EndChar

StartChar: comma
Encoding: 44 44 15
Width: 600
GlyphClass: 2
Flags: W
LayerCount: 2
Fore
SplineSet
207 145 m 1,0,-1
 340 145 l 1,1,-1
 195 -120 l 2,2,3
 182 -145 182 -145 164 -145 c 0,4,5
 152 -145 152 -145 143.5 -136.5 c 128,-1,6
 135 -128 135 -128 135 -116 c 0,7,8
 135 -113 135 -113 137 -105 c 2,9,-1
 207 145 l 1,0,-1
EndSplineSet
EndChar

StartChar: hyphen
Encoding: 45 45 16
Width: 600
GlyphClass: 2
Flags: W
LayerCount: 2
Fore
SplineSet
501 258 m 2,0,-1
 99 258 l 2,1,2
 72 258 72 258 72 279 c 0,3,4
 72 299 72 299 99 299 c 2,5,-1
 501 299 l 2,6,7
 528 299 528 299 528 279 c 0,8,9
 528 258 528 258 501 258 c 2,0,-1
EndSplineSet
EndChar

StartChar: period
Encoding: 46 46 17
Width: 600
GlyphClass: 2
Flags: W
LayerCount: 2
Fore
SplineSet
295 116 m 2,0,-1
 305 116 l 2,1,2
 334 116 334 116 354 97.5 c 128,-1,3
 374 79 374 79 374 51 c 128,-1,4
 374 23 374 23 354 4 c 128,-1,5
 334 -15 334 -15 305 -15 c 2,6,-1
 295 -15 l 2,7,8
 266 -15 266 -15 246 4 c 128,-1,9
 226 23 226 23 226 51 c 128,-1,10
 226 79 226 79 246 97.5 c 128,-1,11
 266 116 266 116 295 116 c 2,0,-1
EndSplineSet
EndChar

StartChar: slash
Encoding: 47 47 18
Width: 600
GlyphClass: 2
Flags: W
LayerCount: 2
Fore
SplineSet
482 633 m 2,0,-1
 155 -63 l 2,1,2
 146 -81 146 -81 133 -81 c 0,3,4
 125 -81 125 -81 119 -75 c 128,-1,5
 113 -69 113 -69 113 -62 c 128,-1,6
 113 -55 113 -55 118 -46 c 2,7,-1
 445 650 l 2,8,9
 454 668 454 668 467 668 c 0,10,11
 475 668 475 668 481 662 c 128,-1,12
 487 656 487 656 487 649 c 0,13,14
 487 643 487 643 482 633 c 2,0,-1
EndSplineSet
EndChar

StartChar: zero
Encoding: 48 48 19
Width: 600
GlyphClass: 2
Flags: W
LayerCount: 2
Fore
SplineSet
487 351 m 2,0,-1
 487 251 l 2,1,2
 487 133 487 133 435 59 c 128,-1,3
 383 -15 383 -15 300 -15 c 128,-1,4
 217 -15 217 -15 165 59 c 128,-1,5
 113 133 113 133 113 251 c 2,6,-1
 113 351 l 2,7,8
 113 470 113 470 165 544 c 128,-1,9
 217 618 217 618 300 618 c 128,-1,10
 383 618 383 618 435 544 c 128,-1,11
 487 470 487 470 487 351 c 2,0,-1
154 346 m 2,12,-1
 154 257 l 2,13,14
 154 153 154 153 202 79 c 0,15,16
 236 26 236 26 300 26 c 128,-1,17
 364 26 364 26 398 79 c 0,18,19
 446 153 446 153 446 257 c 2,20,-1
 446 346 l 2,21,22
 446 450 446 450 398 524 c 0,23,24
 364 577 364 577 300 577 c 128,-1,25
 236 577 236 577 202 524 c 0,26,27
 154 450 154 450 154 346 c 2,12,-1
EndSplineSet
EndChar

StartChar: one
Encoding: 49 49 20
Width: 600
GlyphClass: 2
Flags: W
LayerCount: 2
Fore
SplineSet
321 612 m 1,0,-1
 321 41 l 1,1,-1
 460 41 l 2,2,3
 487 41 487 41 487 21 c 0,4,5
 487 0 487 0 460 0 c 2,6,-1
 141 0 l 2,7,8
 113 0 113 0 113 21 c 0,9,10
 113 41 113 41 141 41 c 2,11,-1
 280 41 l 1,12,-1
 280 557 l 1,13,-1
 148 515 l 2,14,15
 136 512 136 512 134 512 c 0,16,17
 127 512 127 512 121 518.5 c 128,-1,18
 115 525 115 525 115 532 c 0,19,20
 115 547 115 547 136 554 c 2,21,-1
 321 612 l 1,0,-1
EndSplineSet
EndChar

StartChar: two
Encoding: 50 50 21
Width: 600
GlyphClass: 2
Flags: W
LayerCount: 2
Fore
SplineSet
123 41 m 1,0,-1
 437 41 l 1,1,-1
 437 77 l 2,2,3
 437 104 437 104 458 104 c 0,4,5
 478 104 478 104 478 77 c 2,6,-1
 478 0 l 1,7,-1
 84 0 l 1,8,-1
 84 60 l 1,9,-1
 320 282 l 2,10,11
 390 351 390 351 411.5 382 c 128,-1,12
 433 413 433 413 433 447 c 0,13,14
 433 499 433 499 390 538 c 128,-1,15
 347 577 347 577 290 577 c 0,16,17
 239 577 239 577 197.5 547 c 128,-1,18
 156 517 156 517 144 472 c 0,19,20
 138 452 138 452 123 452 c 0,21,22
 116 452 116 452 110 457.5 c 128,-1,23
 104 463 104 463 104 470 c 0,24,25
 104 502 104 502 136 542 c 0,26,27
 195 618 195 618 290 618 c 0,28,29
 363 618 363 618 418.5 566 c 128,-1,30
 474 514 474 514 474 446 c 0,31,32
 474 402 474 402 448.5 365 c 128,-1,33
 423 328 423 328 330 237 c 0,34,35
 202 111 202 111 123 44 c 1,36,-1
 123 41 l 1,0,-1
EndSplineSet
EndChar

StartChar: three
Encoding: 51 51 22
Width: 600
GlyphClass: 2
Flags: W
LayerCount: 2
Fore
SplineSet
374 328 m 1,0,1
 433 304 433 304 466 261.5 c 128,-1,2
 499 219 499 219 499 168 c 0,3,4
 499 92 499 92 437.5 38.5 c 128,-1,5
 376 -15 376 -15 290 -15 c 0,6,7
 218 -15 218 -15 142 26 c 0,8,9
 96 50 96 50 96 69 c 0,10,11
 96 76 96 76 102 82 c 128,-1,12
 108 88 108 88 115 88 c 128,-1,13
 122 88 122 88 132 81 c 0,14,15
 204 26 204 26 291 26 c 0,16,17
 359 26 359 26 408.5 68 c 128,-1,18
 458 110 458 110 458 168 c 0,19,20
 458 227 458 227 405 269.5 c 128,-1,21
 352 312 352 312 279 312 c 0,22,23
 252 312 252 312 252 333 c 0,24,25
 252 353 252 353 279 353 c 0,26,27
 343 353 343 353 366 364 c 0,28,29
 398 378 398 378 417 405 c 128,-1,30
 436 432 436 432 436 463 c 0,31,32
 436 512 436 512 397 544.5 c 128,-1,33
 358 577 358 577 300 577 c 0,34,35
 212 577 212 577 166 523 c 0,36,37
 154 509 154 509 145 509 c 0,38,39
 137 509 137 509 131 514.5 c 128,-1,40
 125 520 125 520 125 528 c 0,41,42
 125 545 125 545 160 572 c 0,43,44
 220 618 220 618 301 618 c 0,45,46
 376 618 376 618 426.5 573.5 c 128,-1,47
 477 529 477 529 477 464 c 0,48,49
 477 421 477 421 450.5 385 c 128,-1,50
 424 349 424 349 379 330 c 0,51,52
 378 330 378 330 374 328 c 1,0,1
EndSplineSet
EndChar

StartChar: four
Encoding: 52 52 23
Width: 600
GlyphClass: 2
Flags: W
LayerCount: 2
Fore
SplineSet
376 169 m 1,0,-1
 105 169 l 1,1,-1
 105 216 l 1,2,-1
 333 604 l 1,3,-1
 417 604 l 1,4,-1
 417 210 l 1,5,-1
 451 210 l 2,6,7
 478 210 478 210 478 189 c 0,8,9
 478 169 478 169 451 169 c 2,10,-1
 417 169 l 1,11,-1
 417 41 l 1,12,-1
 451 41 l 2,13,14
 478 41 478 41 478 21 c 0,15,16
 478 0 478 0 451 0 c 2,17,-1
 300 0 l 2,18,19
 273 0 273 0 273 21 c 0,20,21
 273 41 273 41 300 41 c 2,22,-1
 376 41 l 1,23,-1
 376 169 l 1,0,-1
376 210 m 1,24,-1
 376 563 l 1,25,-1
 352 563 l 1,26,-1
 144 210 l 1,27,-1
 376 210 l 1,24,-1
EndSplineSet
EndChar

StartChar: five
Encoding: 53 53 24
Width: 600
GlyphClass: 2
Flags: W
LayerCount: 2
Fore
SplineSet
190 563 m 1,0,-1
 190 365 l 1,1,2
 263 395 263 395 322 395 c 0,3,4
 399 395 399 395 449 340 c 128,-1,5
 499 285 499 285 499 201 c 0,6,7
 499 106 499 106 441.5 45.5 c 128,-1,8
 384 -15 384 -15 295 -15 c 0,9,10
 216 -15 216 -15 142 34 c 0,11,12
 96 64 96 64 96 82 c 0,13,14
 96 90 96 90 102 96 c 128,-1,15
 108 102 108 102 116 102 c 128,-1,16
 124 102 124 102 133 93 c 0,17,18
 206 26 206 26 293 26 c 0,19,20
 366 26 366 26 412 75 c 128,-1,21
 458 124 458 124 458 203 c 0,22,23
 458 270 458 270 418.5 312 c 128,-1,24
 379 354 379 354 316 354 c 128,-1,25
 253 354 253 354 190 321 c 0,26,27
 174 313 174 313 168 313 c 0,28,29
 149 313 149 313 149 335 c 2,30,-1
 149 604 l 1,31,-1
 431 604 l 2,32,33
 459 604 459 604 459 584 c 0,34,35
 459 563 459 563 431 563 c 2,36,-1
 190 563 l 1,0,-1
EndSplineSet
EndChar

StartChar: six
Encoding: 54 54 25
Width: 600
GlyphClass: 2
Flags: W
LayerCount: 2
Fore
SplineSet
177 242 m 1,0,1
 238 364 238 364 343 364 c 0,2,3
 411 364 411 364 460.5 309 c 128,-1,4
 510 254 510 254 510 178 c 0,5,6
 510 97 510 97 460 41 c 128,-1,7
 410 -15 410 -15 337 -15 c 0,8,9
 248 -15 248 -15 192 68 c 128,-1,10
 136 151 136 151 136 282 c 0,11,12
 136 454 136 454 245 547 c 0,13,14
 327 618 327 618 428 618 c 0,15,16
 460 618 460 618 483.5 607.5 c 128,-1,17
 507 597 507 597 507 583 c 0,18,19
 507 575 507 575 501.5 569 c 128,-1,20
 496 563 496 563 488 563 c 0,21,22
 481 563 481 563 471 569 c 0,23,24
 455 577 455 577 424 577 c 0,25,26
 367 577 367 577 312 544 c 128,-1,27
 257 511 257 511 220 455 c 0,28,29
 175 384 175 384 175 285 c 0,30,31
 175 280 175 280 177 242 c 1,0,1
183 188 m 1,32,33
 204 107 204 107 241 66.5 c 128,-1,34
 278 26 278 26 338 26 c 0,35,36
 394 26 394 26 431.5 70 c 128,-1,37
 469 114 469 114 469 178 c 0,38,39
 469 237 469 237 431.5 280 c 128,-1,40
 394 323 394 323 342 323 c 0,41,42
 284 323 284 323 233 266 c 0,43,44
 215 247 215 247 183 188 c 1,32,33
EndSplineSet
EndChar

StartChar: seven
Encoding: 55 55 26
Width: 600
GlyphClass: 2
Flags: W
LayerCount: 2
Fore
SplineSet
437 545 m 1,0,-1
 437 563 l 1,1,-1
 146 563 l 1,2,-1
 146 528 l 2,3,4
 146 500 146 500 126 500 c 0,5,6
 105 500 105 500 105 528 c 2,7,-1
 105 604 l 1,8,-1
 478 604 l 1,9,-1
 478 539 l 1,10,-1
 315 20 l 2,11,12
 308 -1 308 -1 295 -1 c 0,13,14
 287 -1 287 -1 281 5 c 128,-1,15
 275 11 275 11 275 19 c 0,16,17
 275 24 275 24 277 32 c 2,18,-1
 437 545 l 1,0,-1
EndSplineSet
EndChar

StartChar: eight
Encoding: 56 56 27
Width: 600
GlyphClass: 2
Flags: W
LayerCount: 2
Fore
SplineSet
375 313 m 1,0,1
 487 262 487 262 487 161 c 0,2,3
 487 88 487 88 432 36.5 c 128,-1,4
 377 -15 377 -15 300 -15 c 128,-1,5
 223 -15 223 -15 168 36.5 c 128,-1,6
 113 88 113 88 113 161 c 0,7,8
 113 261 113 261 225 313 c 1,9,10
 123 365 123 365 123 453 c 0,11,12
 123 520 123 520 175.5 569 c 128,-1,13
 228 618 228 618 300 618 c 128,-1,14
 372 618 372 618 424.5 569 c 128,-1,15
 477 520 477 520 477 453 c 0,16,17
 477 365 477 365 375 313 c 1,0,1
300 577 m 128,-1,19
 243 577 243 577 203.5 540.5 c 128,-1,20
 164 504 164 504 164 451 c 0,21,22
 164 402 164 402 203.5 367.5 c 128,-1,23
 243 333 243 333 300 333 c 0,24,25
 356 333 356 333 396 367 c 128,-1,26
 436 401 436 401 436 450 c 0,27,28
 436 503 436 503 396.5 540 c 128,-1,18
 357 577 357 577 300 577 c 128,-1,19
300 293 m 0,29,30
 239 293 239 293 196.5 255 c 128,-1,31
 154 217 154 217 154 161 c 128,-1,32
 154 105 154 105 196.5 65.5 c 128,-1,33
 239 26 239 26 300 26 c 0,34,35
 360 26 360 26 403 65.5 c 128,-1,36
 446 105 446 105 446 160 c 0,37,38
 446 217 446 217 404 255 c 128,-1,39
 362 293 362 293 300 293 c 0,29,30
EndSplineSet
EndChar

StartChar: nine
Encoding: 57 57 28
Width: 600
GlyphClass: 2
Flags: W
LayerCount: 2
Fore
SplineSet
469 361 m 1,0,1
 408 239 408 239 303 239 c 0,2,3
 235 239 235 239 185.5 294 c 128,-1,4
 136 349 136 349 136 425 c 0,5,6
 136 506 136 506 186 562 c 128,-1,7
 236 618 236 618 309 618 c 0,8,9
 398 618 398 618 454 535 c 128,-1,10
 510 452 510 452 510 321 c 0,11,12
 510 149 510 149 401 56 c 0,13,14
 319 -15 319 -15 218 -15 c 0,15,16
 186 -15 186 -15 162.5 -4.5 c 128,-1,17
 139 6 139 6 139 20 c 0,18,19
 139 28 139 28 144.5 34 c 128,-1,20
 150 40 150 40 158 40 c 0,21,22
 165 40 165 40 175 34 c 0,23,24
 191 26 191 26 222 26 c 0,25,26
 279 26 279 26 334 59 c 128,-1,27
 389 92 389 92 426 148 c 0,28,29
 471 219 471 219 471 318 c 0,30,31
 471 323 471 323 469 361 c 1,0,1
463 415 m 1,32,33
 442 496 442 496 405 536.5 c 128,-1,34
 368 577 368 577 308 577 c 0,35,36
 252 577 252 577 214.5 533 c 128,-1,37
 177 489 177 489 177 425 c 0,38,39
 177 366 177 366 214.5 323 c 128,-1,40
 252 280 252 280 304 280 c 0,41,42
 362 280 362 280 413 337 c 0,43,44
 431 356 431 356 463 415 c 1,32,33
EndSplineSet
EndChar

StartChar: colon
Encoding: 58 58 29
Width: 600
GlyphClass: 2
Flags: W
LayerCount: 2
Fore
SplineSet
295 116 m 2,0,-1
 305 116 l 2,1,2
 334 116 334 116 354 97.5 c 128,-1,3
 374 79 374 79 374 51 c 128,-1,4
 374 23 374 23 354 4 c 128,-1,5
 334 -15 334 -15 305 -15 c 2,6,-1
 295 -15 l 2,7,8
 266 -15 266 -15 246 4 c 128,-1,9
 226 23 226 23 226 51 c 128,-1,10
 226 79 226 79 246 97.5 c 128,-1,11
 266 116 266 116 295 116 c 2,0,-1
295 417 m 2,12,-1
 305 417 l 2,13,14
 334 417 334 417 354 398 c 128,-1,15
 374 379 374 379 374 351 c 128,-1,16
 374 323 374 323 354 304 c 128,-1,17
 334 285 334 285 305 285 c 2,18,-1
 295 285 l 2,19,20
 266 285 266 285 246 304 c 128,-1,21
 226 323 226 323 226 351 c 128,-1,22
 226 379 226 379 246 398 c 128,-1,23
 266 417 266 417 295 417 c 2,12,-1
EndSplineSet
EndChar

StartChar: semicolon
Encoding: 59 59 30
Width: 600
GlyphClass: 2
Flags: W
LayerCount: 2
Fore
SplineSet
211 145 m 1,0,-1
 344 145 l 1,1,-1
 199 -120 l 2,2,3
 186 -145 186 -145 168 -145 c 0,4,5
 156 -145 156 -145 147.5 -136.5 c 128,-1,6
 139 -128 139 -128 139 -116 c 0,7,8
 139 -113 139 -113 141 -105 c 2,9,-1
 211 145 l 1,0,-1
271 417 m 2,10,-1
 281 417 l 2,11,12
 310 417 310 417 330 398 c 128,-1,13
 350 379 350 379 350 351 c 128,-1,14
 350 323 350 323 330 304 c 128,-1,15
 310 285 310 285 281 285 c 2,16,-1
 271 285 l 2,17,18
 242 285 242 285 222 304 c 128,-1,19
 202 323 202 323 202 351 c 128,-1,20
 202 379 202 379 222 398 c 128,-1,21
 242 417 242 417 271 417 c 2,10,-1
EndSplineSet
EndChar

StartChar: less
Encoding: 60 60 31
Width: 600
GlyphClass: 2
Flags: W
LayerCount: 2
Fore
SplineSet
522 67 m 0,0,1
 522 59 522 59 515.5 51.5 c 128,-1,2
 509 44 509 44 502 44 c 0,3,4
 497 44 497 44 489 49 c 2,5,-1
 72 281 l 1,6,-1
 490 513 l 2,7,8
 498 518 498 518 502 518 c 0,9,10
 509 518 509 518 515.5 511 c 128,-1,11
 522 504 522 504 522 496 c 0,12,13
 522 485 522 485 509 478 c 2,14,-1
 154 281 l 1,15,-1
 509 84 l 2,16,17
 522 77 522 77 522 67 c 0,0,1
EndSplineSet
EndChar

StartChar: equal
Encoding: 61 61 32
Width: 600
GlyphClass: 2
Flags: W
LayerCount: 2
Fore
SplineSet
522 334 m 2,0,-1
 78 334 l 2,1,2
 51 334 51 334 51 355 c 0,3,4
 51 375 51 375 78 375 c 2,5,-1
 522 375 l 2,6,7
 549 375 549 375 549 355 c 0,8,9
 549 334 549 334 522 334 c 2,0,-1
522 190 m 2,10,-1
 78 190 l 2,11,12
 51 190 51 190 51 211 c 0,13,14
 51 231 51 231 78 231 c 2,15,-1
 522 231 l 2,16,17
 549 231 549 231 549 211 c 0,18,19
 549 190 549 190 522 190 c 2,10,-1
EndSplineSet
EndChar

StartChar: greater
Encoding: 62 62 33
Width: 600
GlyphClass: 2
Flags: W
LayerCount: 2
Fore
SplineSet
78 496 m 0,0,1
 78 503 78 503 84.5 510.5 c 128,-1,2
 91 518 91 518 98 518 c 0,3,4
 103 518 103 518 111 513 c 2,5,-1
 528 281 l 1,6,-1
 110 49 l 2,7,8
 102 44 102 44 98 44 c 0,9,10
 90 44 90 44 84 51 c 128,-1,11
 78 58 78 58 78 67 c 0,12,13
 78 77 78 77 91 84 c 2,14,-1
 446 281 l 1,15,-1
 91 478 l 2,16,17
 78 485 78 485 78 496 c 0,0,1
EndSplineSet
EndChar

StartChar: question
Encoding: 63 63 34
Width: 600
GlyphClass: 2
Flags: W
LayerCount: 2
Fore
SplineSet
322 247 m 1,0,-1
 322 206 l 2,1,2
 322 179 322 179 302 179 c 0,3,4
 281 179 281 179 281 206 c 2,5,-1
 281 274 l 1,6,7
 369 311 369 311 407.5 345.5 c 128,-1,8
 446 380 446 380 446 423 c 0,9,10
 446 473 446 473 406 504.5 c 128,-1,11
 366 536 366 536 304 536 c 0,12,13
 243 536 243 536 175 502 c 1,14,-1
 175 461 l 2,15,16
 175 434 175 434 155 434 c 0,17,18
 134 434 134 434 134 461 c 2,19,-1
 134 529 l 1,20,21
 139 531 139 531 149.5 535.5 c 128,-1,22
 160 540 160 540 163 541 c 0,23,24
 244 577 244 577 309 577 c 0,25,26
 389 577 389 577 438 534.5 c 128,-1,27
 487 492 487 492 487 423 c 0,28,29
 487 367 487 367 451.5 329 c 128,-1,30
 416 291 416 291 322 247 c 1,0,-1
287 85 m 2,31,-1
 314 85 l 2,32,33
 340 85 340 85 355.5 71 c 128,-1,34
 371 57 371 57 371 35 c 128,-1,35
 371 13 371 13 355 -1 c 128,-1,36
 339 -15 339 -15 314 -15 c 2,37,-1
 287 -15 l 2,38,39
 261 -15 261 -15 245.5 -1 c 128,-1,40
 230 13 230 13 230 35 c 128,-1,41
 230 57 230 57 245.5 71 c 128,-1,42
 261 85 261 85 287 85 c 2,31,-1
EndSplineSet
EndChar

StartChar: at
Encoding: 64 64 35
Width: 600
GlyphClass: 2
Flags: W
LayerCount: 2
Fore
SplineSet
418 145 m 1,0,-1
 418 150 l 1,1,2
 388 147 388 147 378 147 c 0,3,4
 320 147 320 147 281 183 c 128,-1,5
 242 219 242 219 242 272 c 0,6,7
 242 335 242 335 292 376 c 128,-1,8
 342 417 342 417 418 416 c 1,9,-1
 418 463 l 2,10,11
 418 515 418 515 385 549 c 128,-1,12
 352 583 352 583 301 583 c 0,13,14
 233 583 233 583 189.5 520 c 128,-1,15
 146 457 146 457 146 358 c 2,16,-1
 146 198 l 2,17,18
 146 106 146 106 193 36 c 0,19,20
 232 -21 232 -21 305 -21 c 0,21,22
 375 -21 375 -21 410 9 c 0,23,24
 422 20 422 20 429 20 c 0,25,26
 437 20 437 20 443 14.5 c 128,-1,27
 449 9 449 9 449 1 c 0,28,29
 449 -22 449 -22 401.5 -42 c 128,-1,30
 354 -62 354 -62 299 -62 c 0,31,32
 212 -62 212 -62 159 13 c 0,33,34
 105 91 105 91 105 198 c 2,35,-1
 105 361 l 2,36,37
 105 475 105 475 160 549.5 c 128,-1,38
 215 624 215 624 300 624 c 0,39,40
 368 624 368 624 413.5 578 c 128,-1,41
 459 532 459 532 459 463 c 2,42,-1
 459 186 l 1,43,44
 478 183 478 183 478 166 c 0,45,46
 478 145 478 145 451 145 c 2,47,-1
 418 145 l 1,0,-1
418 192 m 1,48,-1
 418 376 l 1,49,50
 359 376 359 376 321 347 c 128,-1,51
 283 318 283 318 283 273 c 0,52,53
 283 235 283 235 310.5 211.5 c 128,-1,54
 338 188 338 188 381 188 c 0,55,56
 402 188 402 188 418 192 c 1,48,-1
EndSplineSet
EndChar

StartChar: A
Encoding: 65 65 36
Width: 600
GlyphClass: 2
Flags: W
LayerCount: 2
Fore
SplineSet
428 188 m 1,0,-1
 162 188 l 1,1,-1
 108 41 l 1,2,-1
 187 41 l 2,3,4
 214 41 214 41 214 21 c 0,5,6
 214 0 214 0 187 0 c 2,7,-1
 36 0 l 2,8,9
 9 0 9 0 9 21 c 0,10,11
 9 41 9 41 36 41 c 2,12,-1
 67 41 l 1,13,-1
 246 522 l 1,14,-1
 126 522 l 2,15,16
 99 522 99 522 99 543 c 0,17,18
 99 563 99 563 126 563 c 2,19,-1
 330 563 l 1,20,-1
 527 41 l 1,21,-1
 564 41 l 2,22,23
 591 41 591 41 591 21 c 0,24,25
 591 0 591 0 564 0 c 2,26,-1
 408 0 l 2,27,28
 381 0 381 0 381 21 c 0,29,30
 381 41 381 41 408 41 c 2,31,-1
 484 41 l 1,32,-1
 428 188 l 1,0,-1
413 229 m 1,33,-1
 301 522 l 1,34,-1
 286 522 l 1,35,-1
 178 229 l 1,36,-1
 413 229 l 1,33,-1
EndSplineSet
EndChar

StartChar: B
Encoding: 66 66 37
Width: 600
GlyphClass: 2
Flags: W
LayerCount: 2
Fore
SplineSet
144 604 m 1,0,-1
 144 328 l 1,1,2
 217 431 217 431 324 431 c 0,3,4
 415 431 415 431 478 367 c 128,-1,5
 541 303 541 303 541 210 c 0,6,7
 541 116 541 116 477.5 50 c 128,-1,8
 414 -16 414 -16 324 -16 c 0,9,10
 214 -16 214 -16 144 88 c 1,11,-1
 144 0 l 1,12,-1
 49 0 l 2,13,14
 22 0 22 0 22 21 c 0,15,16
 22 41 22 41 49 41 c 2,17,-1
 103 41 l 1,18,-1
 103 563 l 1,19,-1
 49 563 l 2,20,21
 22 563 22 563 22 584 c 0,22,23
 22 604 22 604 49 604 c 2,24,-1
 144 604 l 1,0,-1
322 390 m 0,25,26
 248 390 248 390 196 337 c 128,-1,27
 144 284 144 284 144 208 c 128,-1,28
 144 132 144 132 196 78.5 c 128,-1,29
 248 25 248 25 322 25 c 0,30,31
 395 25 395 25 447.5 78 c 128,-1,32
 500 131 500 131 500 205 c 0,33,34
 500 283 500 283 448.5 336.5 c 128,-1,35
 397 390 397 390 322 390 c 0,25,26
EndSplineSet
EndChar

StartChar: C
Encoding: 67 67 38
Width: 600
GlyphClass: 2
Flags: W
LayerCount: 2
Fore
SplineSet
470 376 m 1,0,-1
 470 389 l 2,1,2
 470 417 470 417 491 417 c 0,3,4
 511 417 511 417 511 389 c 2,5,-1
 511 298 l 2,6,7
 511 271 511 271 491 271 c 0,8,9
 473 271 473 271 470 295 c 0,10,11
 467 335 467 335 420.5 362.5 c 128,-1,12
 374 390 374 390 311 390 c 0,13,14
 228 390 228 390 176.5 338.5 c 128,-1,15
 125 287 125 287 125 205 c 0,16,17
 125 126 125 126 177 75.5 c 128,-1,18
 229 25 229 25 311 25 c 0,19,20
 420 25 420 25 498 97 c 0,21,22
 508 107 508 107 516 107 c 128,-1,23
 524 107 524 107 529.5 101.5 c 128,-1,24
 535 96 535 96 535 88 c 0,25,26
 535 68 535 68 492 39 c 0,27,28
 412 -16 412 -16 309 -16 c 0,29,30
 211 -16 211 -16 147.5 46 c 128,-1,31
 84 108 84 108 84 204 c 0,32,33
 84 303 84 303 149 367 c 128,-1,34
 214 431 214 431 314 431 c 0,35,36
 407 431 407 431 470 376 c 1,0,-1
EndSplineSet
EndChar

StartChar: D
Encoding: 68 68 39
Width: 600
GlyphClass: 2
Flags: W
LayerCount: 2
Fore
SplineSet
502 604 m 1,0,-1
 502 41 l 1,1,-1
 556 41 l 2,2,3
 583 41 583 41 583 21 c 0,4,5
 583 0 583 0 556 0 c 2,6,-1
 461 0 l 1,7,-1
 461 89 l 1,8,9
 390 -16 390 -16 279 -16 c 0,10,11
 190 -16 190 -16 126.5 50 c 128,-1,12
 63 116 63 116 63 208 c 128,-1,13
 63 300 63 300 126.5 365.5 c 128,-1,14
 190 431 190 431 279 431 c 0,15,16
 389 431 389 431 461 327 c 1,17,-1
 461 563 l 1,18,-1
 407 563 l 2,19,20
 380 563 380 563 380 584 c 0,21,22
 380 604 380 604 407 604 c 2,23,-1
 502 604 l 1,0,-1
282 390 m 0,24,25
 208 390 208 390 156 337 c 128,-1,26
 104 284 104 284 104 208 c 0,27,28
 104 131 104 131 156 78 c 128,-1,29
 208 25 208 25 283 25 c 0,30,31
 357 25 357 25 409 78 c 128,-1,32
 461 131 461 131 461 206 c 0,33,34
 461 284 461 284 409.5 337 c 128,-1,35
 358 390 358 390 282 390 c 0,24,25
EndSplineSet
EndChar

StartChar: E
Encoding: 69 69 40
Width: 600
GlyphClass: 2
Flags: W
LayerCount: 2
Fore
SplineSet
165 272 m 1,0,-1
 165 41 l 1,1,-1
 479 41 l 1,2,-1
 479 160 l 2,3,4
 479 187 479 187 500 187 c 0,5,6
 520 187 520 187 520 160 c 2,7,-1
 520 0 l 1,8,-1
 70 0 l 2,9,10
 43 0 43 0 43 21 c 0,11,12
 43 41 43 41 70 41 c 2,13,-1
 124 41 l 1,14,-1
 124 522 l 1,15,-1
 70 522 l 2,16,17
 43 522 43 522 43 543 c 0,18,19
 43 563 43 563 70 563 c 2,20,-1
 499 563 l 1,21,-1
 499 424 l 2,22,23
 499 397 499 397 478 397 c 0,24,25
 458 397 458 397 458 424 c 2,26,-1
 458 522 l 1,27,-1
 165 522 l 1,28,-1
 165 313 l 1,29,-1
 310 313 l 1,30,-1
 310 358 l 2,31,32
 310 385 310 385 331 385 c 0,33,34
 351 385 351 385 351 358 c 2,35,-1
 351 227 l 2,36,37
 351 200 351 200 331 200 c 0,38,39
 310 200 310 200 310 227 c 2,40,-1
 310 272 l 1,41,-1
 165 272 l 1,0,-1
EndSplineSet
EndChar

StartChar: F
Encoding: 70 70 41
Width: 600
GlyphClass: 2
Flags: W
LayerCount: 2
Fore
SplineSet
165 272 m 1,0,-1
 165 41 l 1,1,-1
 303 41 l 2,2,3
 331 41 331 41 331 21 c 0,4,5
 331 0 331 0 303 0 c 2,6,-1
 70 0 l 2,7,8
 43 0 43 0 43 21 c 0,9,10
 43 41 43 41 70 41 c 2,11,-1
 124 41 l 1,12,-1
 124 522 l 1,13,-1
 70 522 l 2,14,15
 43 522 43 522 43 543 c 0,16,17
 43 563 43 563 70 563 c 2,18,-1
 520 563 l 1,19,-1
 520 424 l 2,20,21
 520 397 520 397 499 397 c 0,22,23
 479 397 479 397 479 424 c 2,24,-1
 479 522 l 1,25,-1
 165 522 l 1,26,-1
 165 313 l 1,27,-1
 310 313 l 1,28,-1
 310 358 l 2,29,30
 310 385 310 385 330 385 c 0,31,32
 351 385 351 385 351 358 c 2,33,-1
 351 227 l 2,34,35
 351 200 351 200 330 200 c 0,36,37
 310 200 310 200 310 227 c 2,38,-1
 310 272 l 1,39,-1
 165 272 l 1,0,-1
EndSplineSet
EndChar

StartChar: G
Encoding: 71 71 42
Width: 600
GlyphClass: 2
Flags: W
LayerCount: 2
Fore
SplineSet
520 209 m 1,0,-1
 520 36 l 1,1,2
 430 -16 430 -16 333 -16 c 0,3,4
 210 -16 210 -16 136.5 55 c 128,-1,5
 63 126 63 126 63 244 c 2,6,-1
 63 318 l 2,7,8
 63 371 63 371 85 423 c 128,-1,9
 107 475 107 475 144 511 c 0,10,11
 214 576 214 576 313 576 c 128,-1,12
 412 576 412 576 479 522 c 1,13,-1
 479 536 l 2,14,15
 479 563 479 563 500 563 c 0,16,17
 520 563 520 563 520 536 c 2,18,-1
 520 445 l 2,19,20
 520 418 520 418 500 418 c 0,21,22
 481 418 481 418 480 443 c 0,23,24
 477 481 477 481 429 508 c 128,-1,25
 381 535 381 535 315 535 c 0,26,27
 231 535 231 535 176 481 c 0,28,29
 143 450 143 450 123.5 405.5 c 128,-1,30
 104 361 104 361 104 317 c 2,31,-1
 104 244 l 2,32,33
 104 142 104 142 166 83.5 c 128,-1,34
 228 25 228 25 336 25 c 0,35,36
 406 25 406 25 479 59 c 1,37,-1
 479 209 l 1,38,-1
 340 209 l 2,39,40
 313 209 313 209 313 230 c 0,41,42
 313 250 313 250 340 250 c 2,43,-1
 534 250 l 2,44,45
 562 250 562 250 562 230 c 0,46,47
 562 209 562 209 534 209 c 2,48,-1
 520 209 l 1,0,-1
EndSplineSet
EndChar

StartChar: H
Encoding: 72 72 43
Width: 600
GlyphClass: 2
Flags: W
LayerCount: 2
Fore
SplineSet
501 262 m 2,0,-1
 99 262 l 2,1,2
 72 262 72 262 72 282 c 128,-1,3
 72 302 72 302 99 302 c 2,4,-1
 501 302 l 2,5,6
 528 302 528 302 528 282 c 128,-1,7
 528 262 528 262 501 262 c 2,0,-1
300 124 m 0,8,9
 321 124 321 124 335.5 109.5 c 128,-1,10
 350 95 350 95 350 74 c 0,11,12
 350 54 350 54 335 39.5 c 128,-1,13
 320 25 320 25 300 25 c 128,-1,14
 280 25 280 25 265.5 39.5 c 128,-1,15
 251 54 251 54 251 75 c 0,16,17
 251 95 251 95 265.5 109.5 c 128,-1,18
 280 124 280 124 300 124 c 0,8,9
300 540 m 0,19,20
 321 540 321 540 335.5 525.5 c 128,-1,21
 350 511 350 511 350 490 c 0,22,23
 350 470 350 470 335 455.5 c 128,-1,24
 320 441 320 441 300 441 c 128,-1,25
 280 441 280 441 265.5 455.5 c 128,-1,26
 251 470 251 470 251 491 c 0,27,28
 251 511 251 511 265.5 525.5 c 128,-1,29
 280 540 280 540 300 540 c 0,19,20
EndSplineSet
EndChar

StartChar: I
Encoding: 73 73 44
Width: 600
GlyphClass: 2
Flags: W
LayerCount: 2
Fore
SplineSet
320 522 m 1,0,-1
 320 41 l 1,1,-1
 459 41 l 2,2,3
 487 41 487 41 487 21 c 0,4,5
 487 0 487 0 459 0 c 2,6,-1
 140 0 l 2,7,8
 113 0 113 0 113 21 c 0,9,10
 113 41 113 41 140 41 c 2,11,-1
 279 41 l 1,12,-1
 279 522 l 1,13,-1
 140 522 l 2,14,15
 113 522 113 522 113 543 c 0,16,17
 113 563 113 563 140 563 c 2,18,-1
 459 563 l 2,19,20
 487 563 487 563 487 543 c 0,21,22
 487 522 487 522 459 522 c 2,23,-1
 320 522 l 1,0,-1
EndSplineSet
EndChar

StartChar: J
Encoding: 74 74 45
Width: 600
GlyphClass: 2
Flags: W
LayerCount: 2
Fore
SplineSet
460 522 m 1,0,-1
 460 165 l 2,1,2
 460 91 460 91 404.5 37.5 c 128,-1,3
 349 -16 349 -16 272 -16 c 0,4,5
 224 -16 224 -16 181 4.5 c 128,-1,6
 138 25 138 25 84 74 c 1,7,-1
 84 223 l 2,8,9
 84 250 84 250 105 250 c 0,10,11
 125 250 125 250 125 223 c 2,12,-1
 125 93 l 1,13,14
 200 25 200 25 273 25 c 0,15,16
 334 25 334 25 376.5 66 c 128,-1,17
 419 107 419 107 419 165 c 2,18,-1
 419 522 l 1,19,-1
 260 522 l 2,20,21
 233 522 233 522 233 543 c 0,22,23
 233 563 233 563 260 563 c 2,24,-1
 556 563 l 2,25,26
 583 563 583 563 583 543 c 0,27,28
 583 522 583 522 556 522 c 2,29,-1
 460 522 l 1,0,-1
EndSplineSet
EndChar

StartChar: K
Encoding: 75 75 46
Width: 600
GlyphClass: 2
Flags: W
LayerCount: 2
Fore
SplineSet
282 390 m 0,0,1
 208 390 208 390 156 337 c 128,-1,2
 104 284 104 284 104 208 c 0,3,4
 104 131 104 131 156 78 c 128,-1,5
 208 25 208 25 283 25 c 0,6,7
 357 25 357 25 409 78 c 128,-1,8
 461 131 461 131 461 206 c 0,9,10
 461 284 461 284 409.5 337 c 128,-1,11
 358 390 358 390 282 390 c 0,0,1
461 89 m 1,12,13
 389 -16 389 -16 279 -16 c 0,14,15
 190 -16 190 -16 126.5 50 c 128,-1,16
 63 116 63 116 63 208 c 128,-1,17
 63 300 63 300 126.5 365.5 c 128,-1,18
 190 431 190 431 279 431 c 0,19,20
 390 431 390 431 461 327 c 1,21,-1
 461 417 l 1,22,-1
 556 417 l 2,23,24
 583 417 583 417 583 397 c 0,25,26
 583 376 583 376 556 376 c 2,27,-1
 502 376 l 1,28,-1
 502 -145 l 1,29,-1
 556 -145 l 2,30,31
 583 -145 583 -145 583 -165 c 0,32,33
 583 -186 583 -186 556 -186 c 2,34,-1
 363 -186 l 2,35,36
 336 -186 336 -186 336 -165 c 0,37,38
 336 -145 336 -145 363 -145 c 2,39,-1
 461 -145 l 1,40,-1
 461 89 l 1,12,13
EndSplineSet
EndChar

StartChar: L
Encoding: 76 76 47
Width: 600
GlyphClass: 2
Flags: W
LayerCount: 2
Fore
SplineSet
227 522 m 1,0,-1
 227 41 l 1,1,-1
 500 41 l 1,2,-1
 500 201 l 2,3,4
 500 228 500 228 521 228 c 0,5,6
 541 228 541 228 541 201 c 2,7,-1
 541 0 l 1,8,-1
 90 0 l 2,9,10
 63 0 63 0 63 21 c 0,11,12
 63 41 63 41 90 41 c 2,13,-1
 186 41 l 1,14,-1
 186 522 l 1,15,-1
 90 522 l 2,16,17
 63 522 63 522 63 543 c 0,18,19
 63 563 63 563 90 563 c 2,20,-1
 323 563 l 2,21,22
 350 563 350 563 350 543 c 0,23,24
 350 522 350 522 323 522 c 2,25,-1
 227 522 l 1,0,-1
EndSplineSet
EndChar

StartChar: M
Encoding: 77 77 48
Width: 600
GlyphClass: 2
Flags: W
LayerCount: 2
Fore
SplineSet
326 169 m 1,0,-1
 280 169 l 1,1,-1
 121 522 l 1,2,-1
 113 522 l 1,3,-1
 113 41 l 1,4,-1
 187 41 l 2,5,6
 215 41 215 41 215 21 c 0,7,8
 215 0 215 0 187 0 c 2,9,-1
 38 0 l 2,10,11
 11 0 11 0 11 21 c 0,12,13
 11 41 11 41 38 41 c 2,14,-1
 72 41 l 1,15,-1
 72 522 l 1,16,-1
 47 522 l 2,17,18
 20 522 20 522 20 543 c 0,19,20
 20 563 20 563 47 563 c 2,21,-1
 146 563 l 1,22,-1
 303 215 l 1,23,-1
 457 563 l 1,24,-1
 557 563 l 2,25,26
 584 563 584 563 584 543 c 0,27,28
 584 522 584 522 557 522 c 2,29,-1
 532 522 l 1,30,-1
 532 41 l 1,31,-1
 566 41 l 2,32,33
 593 41 593 41 593 21 c 0,34,35
 593 0 593 0 566 0 c 2,36,-1
 417 0 l 2,37,38
 390 0 390 0 390 21 c 0,39,40
 390 41 390 41 417 41 c 2,41,-1
 491 41 l 1,42,-1
 491 522 l 1,43,-1
 483 522 l 1,44,-1
 326 169 l 1,0,-1
EndSplineSet
EndChar

StartChar: N
Encoding: 78 78 49
Width: 600
GlyphClass: 2
Flags: W
LayerCount: 2
Fore
SplineSet
501 0 m 1,0,-1
 449 0 l 1,1,-1
 144 504 l 1,2,-1
 144 41 l 1,3,-1
 219 41 l 2,4,5
 246 41 246 41 246 21 c 0,6,7
 246 0 246 0 219 0 c 2,8,-1
 69 0 l 2,9,10
 42 0 42 0 42 21 c 0,11,12
 42 41 42 41 69 41 c 2,13,-1
 103 41 l 1,14,-1
 103 522 l 1,15,-1
 49 522 l 2,16,17
 22 522 22 522 22 543 c 0,18,19
 22 563 22 563 49 563 c 2,20,-1
 155 563 l 1,21,-1
 460 59 l 1,22,-1
 460 522 l 1,23,-1
 386 522 l 2,24,25
 358 522 358 522 358 543 c 0,26,27
 358 563 358 563 386 563 c 2,28,-1
 535 563 l 2,29,30
 562 563 562 563 562 543 c 0,31,32
 562 522 562 522 535 522 c 2,33,-1
 501 522 l 1,34,-1
 501 0 l 1,0,-1
EndSplineSet
EndChar

StartChar: O
Encoding: 79 79 50
Width: 600
GlyphClass: 2
Flags: W
LayerCount: 2
Fore
SplineSet
300 576 m 0,0,1
 406 576 406 576 477.5 489.5 c 128,-1,2
 549 403 549 403 549 276 c 0,3,4
 549 155 549 155 476 69.5 c 128,-1,5
 403 -16 403 -16 300 -16 c 0,6,7
 196 -16 196 -16 123.5 70 c 128,-1,8
 51 156 51 156 51 280 c 128,-1,9
 51 404 51 404 123.5 490 c 128,-1,10
 196 576 196 576 300 576 c 0,0,1
300 535 m 0,11,12
 214 535 214 535 153 460 c 128,-1,13
 92 385 92 385 92 280 c 128,-1,14
 92 175 92 175 153 100 c 128,-1,15
 214 25 214 25 300 25 c 0,16,17
 385 25 385 25 446.5 99.5 c 128,-1,18
 508 174 508 174 508 277 c 0,19,20
 508 385 508 385 447.5 460 c 128,-1,21
 387 535 387 535 300 535 c 0,11,12
EndSplineSet
EndChar

StartChar: P
Encoding: 80 80 51
Width: 600
GlyphClass: 2
Flags: W
LayerCount: 2
Fore
SplineSet
165 231 m 1,0,-1
 165 41 l 1,1,-1
 303 41 l 2,2,3
 331 41 331 41 331 21 c 0,4,5
 331 0 331 0 303 0 c 2,6,-1
 70 0 l 2,7,8
 43 0 43 0 43 21 c 0,9,10
 43 41 43 41 70 41 c 2,11,-1
 124 41 l 1,12,-1
 124 522 l 1,13,-1
 70 522 l 2,14,15
 43 522 43 522 43 543 c 0,16,17
 43 563 43 563 70 563 c 2,18,-1
 310 563 l 2,19,20
 390 563 390 563 444.5 515.5 c 128,-1,21
 499 468 499 468 499 398 c 128,-1,22
 499 328 499 328 440 279.5 c 128,-1,23
 381 231 381 231 296 231 c 2,24,-1
 165 231 l 1,0,-1
165 272 m 1,25,-1
 299 272 l 2,26,27
 364 272 364 272 411 309 c 128,-1,28
 458 346 458 346 458 398 c 0,29,30
 458 449 458 449 415.5 485.5 c 128,-1,31
 373 522 373 522 314 522 c 2,32,-1
 165 522 l 1,33,-1
 165 272 l 1,25,-1
EndSplineSet
EndChar

StartChar: Q
Encoding: 81 81 52
Width: 600
GlyphClass: 2
Flags: W
LayerCount: 2
Fore
SplineSet
282 390 m 0,0,1
 208 390 208 390 156 337 c 128,-1,2
 104 284 104 284 104 208 c 0,3,4
 104 131 104 131 156 78 c 128,-1,5
 208 25 208 25 283 25 c 0,6,7
 357 25 357 25 409 78 c 128,-1,8
 461 131 461 131 461 206 c 0,9,10
 461 284 461 284 409.5 337 c 128,-1,11
 358 390 358 390 282 390 c 0,0,1
461 89 m 1,12,13
 389 -16 389 -16 279 -16 c 0,14,15
 190 -16 190 -16 126.5 50 c 128,-1,16
 63 116 63 116 63 208 c 128,-1,17
 63 300 63 300 126.5 365.5 c 128,-1,18
 190 431 190 431 279 431 c 0,19,20
 390 431 390 431 461 327 c 1,21,-1
 461 417 l 1,22,-1
 556 417 l 2,23,24
 583 417 583 417 583 397 c 0,25,26
 583 376 583 376 556 376 c 2,27,-1
 502 376 l 1,28,-1
 502 -145 l 1,29,-1
 556 -145 l 2,30,31
 583 -145 583 -145 583 -165 c 0,32,33
 583 -186 583 -186 556 -186 c 2,34,-1
 363 -186 l 2,35,36
 336 -186 336 -186 336 -165 c 0,37,38
 336 -145 336 -145 363 -145 c 2,39,-1
 461 -145 l 1,40,-1
 461 89 l 1,12,13
EndSplineSet
EndChar

StartChar: R
Encoding: 82 82 53
Width: 600
GlyphClass: 2
Flags: W
LayerCount: 2
Fore
SplineSet
248 417 m 1,0,-1
 248 315 l 1,1,2
 317 378 317 378 360 402.5 c 128,-1,3
 403 427 403 427 441 427 c 0,4,5
 481 427 481 427 518 396 c 0,6,7
 541 377 541 377 541 365 c 0,8,9
 541 356 541 356 535 350 c 128,-1,10
 529 344 529 344 520 344 c 0,11,12
 512 344 512 344 504 352 c 0,13,14
 469 386 469 386 438 386 c 0,15,16
 404 386 404 386 367.5 362 c 128,-1,17
 331 338 331 338 248 262 c 1,18,-1
 248 41 l 1,19,-1
 427 41 l 2,20,21
 454 41 454 41 454 20 c 0,22,23
 454 0 454 0 427 0 c 2,24,-1
 111 0 l 2,25,26
 84 0 84 0 84 21 c 0,27,28
 84 41 84 41 111 41 c 2,29,-1
 207 41 l 1,30,-1
 207 376 l 1,31,-1
 132 376 l 2,32,33
 105 376 105 376 105 397 c 0,34,35
 105 417 105 417 132 417 c 2,36,-1
 248 417 l 1,0,-1
EndSplineSet
EndChar

StartChar: S
Encoding: 83 83 54
Width: 600
GlyphClass: 2
Flags: W
LayerCount: 2
Fore
SplineSet
432 385 m 1,0,-1
 432 389 l 2,1,2
 432 417 432 417 453 417 c 0,3,4
 473 417 473 417 473 389 c 2,5,-1
 473 320 l 2,6,7
 473 293 473 293 453 293 c 0,8,9
 435 293 435 293 432 316 c 0,10,11
 428 350 428 350 392 370 c 128,-1,12
 356 390 356 390 299 390 c 0,13,14
 243 390 243 390 206 368.5 c 128,-1,15
 169 347 169 347 169 315 c 0,16,17
 169 288 169 288 201 270 c 0,18,19
 218 259 218 259 235 255.5 c 128,-1,20
 252 252 252 252 317 245 c 0,21,22
 403 235 403 235 447 206 c 0,23,24
 497 172 497 172 497 116 c 0,25,26
 497 59 497 59 441.5 21.5 c 128,-1,27
 386 -16 386 -16 301 -16 c 0,28,29
 205 -16 205 -16 144 38 c 1,30,-1
 144 27 l 2,31,32
 144 0 144 0 124 0 c 0,33,34
 103 0 103 0 103 27 c 2,35,-1
 103 110 l 2,36,37
 103 137 103 137 124 137 c 0,38,39
 144 137 144 137 144 115 c 2,40,-1
 144 108 l 2,41,42
 144 74 144 74 189 49.5 c 128,-1,43
 234 25 234 25 298 25 c 0,44,45
 364 25 364 25 408 51 c 128,-1,46
 452 77 452 77 452 117 c 0,47,48
 452 156 452 156 408 180 c 0,49,50
 373 199 373 199 300 207 c 0,51,52
 206 217 206 217 170 239 c 0,53,54
 124 269 124 269 124 318 c 128,-1,55
 124 367 124 367 172.5 399 c 128,-1,56
 221 431 221 431 295 431 c 0,57,58
 380 431 380 431 432 385 c 1,0,-1
EndSplineSet
EndChar

StartChar: T
Encoding: 84 84 55
Width: 600
GlyphClass: 2
Flags: W
LayerCount: 2
Fore
SplineSet
186 417 m 1,0,-1
 406 417 l 2,1,2
 433 417 433 417 433 397 c 0,3,4
 433 376 433 376 406 376 c 2,5,-1
 186 376 l 1,6,-1
 186 109 l 2,7,8
 186 71 186 71 216 48 c 128,-1,9
 246 25 246 25 298 25 c 0,10,11
 340 25 340 25 387.5 36.5 c 128,-1,12
 435 48 435 48 464 65 c 0,13,14
 474 71 474 71 480 71 c 0,15,16
 487 71 487 71 493 65 c 128,-1,17
 499 59 499 59 499 51 c 0,18,19
 499 29 499 29 431.5 6.5 c 128,-1,20
 364 -16 364 -16 300 -16 c 0,21,22
 229 -16 229 -16 187 17.5 c 128,-1,23
 145 51 145 51 145 107 c 2,24,-1
 145 376 l 1,25,-1
 71 376 l 2,26,27
 43 376 43 376 43 397 c 0,28,29
 43 417 43 417 71 417 c 2,30,-1
 145 417 l 1,31,-1
 145 536 l 2,32,33
 145 563 145 563 166 563 c 0,34,35
 186 563 186 563 186 536 c 2,36,-1
 186 417 l 1,0,-1
EndSplineSet
EndChar

StartChar: U
Encoding: 85 85 56
Width: 600
GlyphClass: 2
Flags: W
LayerCount: 2
Fore
SplineSet
499 522 m 1,0,-1
 499 185 l 2,1,2
 499 100 499 100 441.5 42 c 128,-1,3
 384 -16 384 -16 300 -16 c 0,4,5
 215 -16 215 -16 158 41.5 c 128,-1,6
 101 99 101 99 101 185 c 2,7,-1
 101 522 l 1,8,-1
 67 522 l 2,9,10
 40 522 40 522 40 543 c 0,11,12
 40 563 40 563 67 563 c 2,13,-1
 216 563 l 2,14,15
 243 563 243 563 243 543 c 0,16,17
 243 522 243 522 216 522 c 2,18,-1
 142 522 l 1,19,-1
 142 185 l 2,20,21
 142 117 142 117 187.5 71 c 128,-1,22
 233 25 233 25 300 25 c 0,23,24
 366 25 366 25 412 71.5 c 128,-1,25
 458 118 458 118 458 185 c 2,26,-1
 458 522 l 1,27,-1
 384 522 l 2,28,29
 357 522 357 522 357 543 c 0,30,31
 357 563 357 563 384 563 c 2,32,-1
 533 563 l 2,33,34
 560 563 560 563 560 543 c 0,35,36
 560 522 560 522 533 522 c 2,37,-1
 499 522 l 1,0,-1
EndSplineSet
EndChar

StartChar: V
Encoding: 86 86 57
Width: 600
GlyphClass: 2
Flags: W
LayerCount: 2
Fore
SplineSet
267 0 m 1,0,-1
 67 522 l 1,1,-1
 36 522 l 2,2,3
 9 522 9 522 9 543 c 0,4,5
 9 563 9 563 36 563 c 2,6,-1
 187 563 l 2,7,8
 214 563 214 563 214 543 c 0,9,10
 214 522 214 522 187 522 c 2,11,-1
 110 522 l 1,12,-1
 296 41 l 1,13,-1
 299 41 l 1,14,-1
 492 522 l 1,15,-1
 414 522 l 2,16,17
 387 522 387 522 387 543 c 0,18,19
 387 563 387 563 414 563 c 2,20,-1
 564 563 l 2,21,22
 591 563 591 563 591 543 c 0,23,24
 591 522 591 522 564 522 c 2,25,-1
 533 522 l 1,26,-1
 324 0 l 1,27,-1
 267 0 l 1,0,-1
EndSplineSet
EndChar

StartChar: W
Encoding: 87 87 58
Width: 600
GlyphClass: 2
Flags: W
LayerCount: 2
Fore
SplineSet
104 41 m 1,0,-1
 104 522 l 1,1,-1
 70 522 l 2,2,3
 43 522 43 522 43 543 c 0,4,5
 43 563 43 563 70 563 c 2,6,-1
 290 563 l 2,7,8
 387 563 387 563 453.5 489.5 c 128,-1,9
 520 416 520 416 520 310 c 2,10,-1
 520 254 l 2,11,12
 520 147 520 147 453.5 73.5 c 128,-1,13
 387 0 387 0 290 0 c 2,14,-1
 70 0 l 2,15,16
 43 0 43 0 43 21 c 0,17,18
 43 41 43 41 70 41 c 2,19,-1
 104 41 l 1,0,-1
145 41 m 1,20,-1
 295 41 l 2,21,22
 367 41 367 41 423 103 c 128,-1,23
 479 165 479 165 479 245 c 2,24,-1
 479 318 l 2,25,26
 479 405 479 405 414 472 c 0,27,28
 364 522 364 522 288 522 c 2,29,-1
 145 522 l 1,30,-1
 145 41 l 1,20,-1
EndSplineSet
EndChar

StartChar: X
Encoding: 88 88 59
Width: 600
GlyphClass: 2
Flags: W
LayerCount: 2
Fore
SplineSet
321 41 m 1,0,-1
 426 41 l 2,1,2
 453 41 453 41 453 21 c 0,3,4
 453 0 453 0 426 0 c 2,5,-1
 175 0 l 2,6,7
 148 0 148 0 148 21 c 0,8,9
 148 41 148 41 175 41 c 2,10,-1
 280 41 l 1,11,-1
 280 522 l 1,12,-1
 113 522 l 1,13,-1
 113 449 l 2,14,15
 113 422 113 422 92 422 c 0,16,17
 72 422 72 422 72 449 c 2,18,-1
 72 563 l 1,19,-1
 528 563 l 1,20,-1
 528 449 l 2,21,22
 528 422 528 422 508 422 c 0,23,24
 499 422 499 422 493 429.5 c 128,-1,25
 487 437 487 437 487 449 c 2,26,-1
 487 522 l 1,27,-1
 321 522 l 1,28,-1
 321 41 l 1,0,-1
EndSplineSet
EndChar

StartChar: Y
Encoding: 89 89 60
Width: 600
GlyphClass: 2
Flags: W
LayerCount: 2
Fore
SplineSet
282 0 m 1,0,-1
 94 376 l 1,1,-1
 78 376 l 2,2,3
 51 376 51 376 51 397 c 0,4,5
 51 417 51 417 78 417 c 2,6,-1
 193 417 l 2,7,8
 220 417 220 417 220 397 c 0,9,10
 220 376 220 376 193 376 c 2,11,-1
 141 376 l 1,12,-1
 305 45 l 1,13,-1
 466 376 l 1,14,-1
 412 376 l 2,15,16
 385 376 385 376 385 397 c 0,17,18
 385 417 385 417 412 417 c 2,19,-1
 522 417 l 2,20,21
 549 417 549 417 549 397 c 0,22,23
 549 376 549 376 522 376 c 2,24,-1
 508 376 l 1,25,-1
 252 -145 l 1,26,-1
 317 -145 l 2,27,28
 344 -145 344 -145 344 -165 c 0,29,30
 344 -186 344 -186 317 -186 c 2,31,-1
 84 -186 l 2,32,33
 57 -186 57 -186 57 -165 c 0,34,35
 57 -145 57 -145 84 -145 c 2,36,-1
 211 -145 l 1,37,-1
 282 0 l 1,0,-1
EndSplineSet
EndChar

StartChar: Z
Encoding: 90 90 61
Width: 600
GlyphClass: 2
Flags: W
LayerCount: 2
Fore
SplineSet
417 376 m 1,0,-1
 176 376 l 2,1,2
 149 376 149 376 149 397 c 0,3,4
 149 417 149 417 176 417 c 2,5,-1
 458 417 l 1,6,-1
 458 -28 l 2,7,8
 458 -98 458 -98 414.5 -142 c 128,-1,9
 371 -186 371 -186 303 -186 c 2,10,-1
 174 -186 l 2,11,12
 147 -186 147 -186 147 -165 c 0,13,14
 147 -145 147 -145 174 -145 c 2,15,-1
 302 -145 l 2,16,17
 352 -145 352 -145 384.5 -112 c 128,-1,18
 417 -79 417 -79 417 -28 c 2,19,-1
 417 376 l 1,0,-1
414 624 m 1,20,-1
 414 520 l 1,21,-1
 355 520 l 1,22,-1
 355 624 l 1,23,-1
 414 624 l 1,20,-1
EndSplineSet
EndChar

StartChar: bracketleft
Encoding: 91 91 62
Width: 600
GlyphClass: 2
Flags: W
LayerCount: 2
Fore
SplineSet
321 563 m 1,0,-1
 321 -83 l 1,1,-1
 418 -83 l 2,2,3
 445 -83 445 -83 445 -103 c 0,4,5
 445 -124 445 -124 418 -124 c 2,6,-1
 280 -124 l 1,7,-1
 280 604 l 1,8,-1
 418 604 l 2,9,10
 445 604 445 604 445 584 c 0,11,12
 445 563 445 563 418 563 c 2,13,-1
 321 563 l 1,0,-1
EndSplineSet
EndChar

StartChar: backslash
Encoding: 92 92 63
Width: 600
GlyphClass: 2
Flags: W
LayerCount: 2
Fore
SplineSet
155 650 m 2,0,-1
 482 -46 l 2,1,2
 487 -55 487 -55 487 -62 c 128,-1,3
 487 -69 487 -69 481 -75 c 128,-1,4
 475 -81 475 -81 467 -81 c 0,5,6
 454 -81 454 -81 445 -63 c 2,7,-1
 118 633 l 2,8,9
 113 643 113 643 113 649 c 0,10,11
 113 656 113 656 119.5 662 c 128,-1,12
 126 668 126 668 134 668 c 0,13,14
 146 668 146 668 155 650 c 2,0,-1
EndSplineSet
EndChar

StartChar: bracketright
Encoding: 93 93 64
Width: 600
GlyphClass: 2
Flags: W
LayerCount: 2
Fore
SplineSet
279 -83 m 1,0,-1
 279 563 l 1,1,-1
 182 563 l 2,2,3
 155 563 155 563 155 583 c 0,4,5
 155 604 155 604 182 604 c 2,6,-1
 320 604 l 1,7,-1
 320 -124 l 1,8,-1
 182 -124 l 2,9,10
 155 -124 155 -124 155 -104 c 0,11,12
 155 -83 155 -83 182 -83 c 2,13,-1
 279 -83 l 1,0,-1
EndSplineSet
EndChar

StartChar: asciicircum
Encoding: 94 94 65
Width: 600
GlyphClass: 2
Flags: W
LayerCount: 2
Fore
SplineSet
300 615 m 1,0,-1
 478 392 l 2,1,2
 487 382 487 382 487 374 c 256,3,4
 487 366 487 366 481 360 c 128,-1,5
 475 354 475 354 467 354 c 0,6,7
 456 354 456 354 447 367 c 2,8,-1
 300 552 l 1,9,-1
 153 367 l 2,10,11
 144 354 144 354 133 354 c 0,12,13
 125 354 125 354 119 360 c 128,-1,14
 113 366 113 366 113 374 c 128,-1,15
 113 382 113 382 122 392 c 2,16,-1
 300 615 l 1,0,-1
EndSplineSet
EndChar

StartChar: underscore
Encoding: 95 95 66
Width: 600
GlyphClass: 2
Flags: W
LayerCount: 2
Fore
SplineSet
612 -75 m 1,0,-1
 612 -125 l 1,1,-1
 -12 -125 l 1,2,-1
 -12 -75 l 1,3,-1
 612 -75 l 1,0,-1
EndSplineSet
EndChar

StartChar: grave
Encoding: 96 96 67
Width: 600
GlyphClass: 2
Flags: W
LayerCount: 2
Fore
SplineSet
194 630 m 2,0,-1
 308 530 l 1,1,-1
 315 522 l 2,2,3
 320 517 320 517 320 511 c 0,4,5
 320 502 320 502 314 496 c 128,-1,6
 308 490 308 490 299 490 c 0,7,8
 292 490 292 490 281 499 c 2,9,-1
 167 599 l 2,10,11
 155 610 155 610 155 619 c 0,12,13
 155 627 155 627 161 633 c 128,-1,14
 167 639 167 639 175 639 c 0,15,16
 182 639 182 639 194 630 c 2,0,-1
EndSplineSet
EndChar

StartChar: a
Encoding: 97 97 68
Width: 600
GlyphClass: 2
Flags: W
LayerCount: 2
Fore
SplineSet
419 0 m 1,0,-1
 419 67 l 1,1,2
 330 -16 330 -16 228 -16 c 0,3,4
 158 -16 158 -16 115 19.5 c 128,-1,5
 72 55 72 55 72 112 c 0,6,7
 72 177 72 177 130.5 217.5 c 128,-1,8
 189 258 189 258 283 258 c 0,9,10
 342 258 342 258 419 237 c 1,11,-1
 419 308 l 2,12,13
 419 345 419 345 385 367.5 c 128,-1,14
 351 390 351 390 296 390 c 0,15,16
 252 390 252 390 154 360 c 0,17,18
 146 358 146 358 144 358 c 0,19,20
 136 358 136 358 130.5 364 c 128,-1,21
 125 370 125 370 125 378 c 0,22,23
 125 393 125 393 142 399 c 0,24,25
 235 431 235 431 299 431 c 0,26,27
 369 431 369 431 414.5 396 c 128,-1,28
 460 361 460 361 460 308 c 2,29,-1
 460 41 l 1,30,-1
 514 41 l 2,31,32
 541 41 541 41 541 21 c 0,33,34
 541 0 541 0 514 0 c 2,35,-1
 419 0 l 1,0,-1
419 112 m 1,36,-1
 419 202 l 1,37,38
 359 217 359 217 291 217 c 0,39,40
 212 217 212 217 162.5 187.5 c 128,-1,41
 113 158 113 158 113 111 c 0,42,43
 113 72 113 72 144 48.5 c 128,-1,44
 175 25 175 25 227 25 c 0,45,46
 280 25 280 25 324.5 45 c 128,-1,47
 369 65 369 65 419 112 c 1,36,-1
EndSplineSet
EndChar

StartChar: b
Encoding: 98 98 69
Width: 600
GlyphClass: 2
Flags: W
LayerCount: 2
Fore
SplineSet
144 604 m 1,0,-1
 144 328 l 1,1,2
 217 431 217 431 324 431 c 0,3,4
 415 431 415 431 478 367 c 128,-1,5
 541 303 541 303 541 210 c 0,6,7
 541 116 541 116 477.5 50 c 128,-1,8
 414 -16 414 -16 324 -16 c 0,9,10
 214 -16 214 -16 144 88 c 1,11,-1
 144 0 l 1,12,-1
 49 0 l 2,13,14
 22 0 22 0 22 21 c 0,15,16
 22 41 22 41 49 41 c 2,17,-1
 103 41 l 1,18,-1
 103 563 l 1,19,-1
 49 563 l 2,20,21
 22 563 22 563 22 584 c 0,22,23
 22 604 22 604 49 604 c 2,24,-1
 144 604 l 1,0,-1
322 390 m 0,25,26
 248 390 248 390 196 337 c 128,-1,27
 144 284 144 284 144 208 c 128,-1,28
 144 132 144 132 196 78.5 c 128,-1,29
 248 25 248 25 322 25 c 0,30,31
 395 25 395 25 447.5 78 c 128,-1,32
 500 131 500 131 500 205 c 0,33,34
 500 283 500 283 448.5 336.5 c 128,-1,35
 397 390 397 390 322 390 c 0,25,26
EndSplineSet
EndChar

StartChar: c
Encoding: 99 99 70
Width: 600
GlyphClass: 2
Flags: W
LayerCount: 2
Fore
SplineSet
470 376 m 1,0,-1
 470 389 l 2,1,2
 470 417 470 417 491 417 c 0,3,4
 511 417 511 417 511 389 c 2,5,-1
 511 298 l 2,6,7
 511 271 511 271 491 271 c 0,8,9
 473 271 473 271 470 295 c 0,10,11
 467 335 467 335 420.5 362.5 c 128,-1,12
 374 390 374 390 311 390 c 0,13,14
 228 390 228 390 176.5 338.5 c 128,-1,15
 125 287 125 287 125 205 c 0,16,17
 125 126 125 126 177 75.5 c 128,-1,18
 229 25 229 25 311 25 c 0,19,20
 420 25 420 25 498 97 c 0,21,22
 508 107 508 107 516 107 c 128,-1,23
 524 107 524 107 529.5 101.5 c 128,-1,24
 535 96 535 96 535 88 c 0,25,26
 535 68 535 68 492 39 c 0,27,28
 412 -16 412 -16 309 -16 c 0,29,30
 211 -16 211 -16 147.5 46 c 128,-1,31
 84 108 84 108 84 204 c 0,32,33
 84 303 84 303 149 367 c 128,-1,34
 214 431 214 431 314 431 c 0,35,36
 407 431 407 431 470 376 c 1,0,-1
EndSplineSet
EndChar

StartChar: d
Encoding: 100 100 71
Width: 600
GlyphClass: 2
Flags: W
LayerCount: 2
Fore
SplineSet
502 604 m 1,0,-1
 502 41 l 1,1,-1
 556 41 l 2,2,3
 583 41 583 41 583 21 c 0,4,5
 583 0 583 0 556 0 c 2,6,-1
 461 0 l 1,7,-1
 461 89 l 1,8,9
 390 -16 390 -16 279 -16 c 0,10,11
 190 -16 190 -16 126.5 50 c 128,-1,12
 63 116 63 116 63 208 c 128,-1,13
 63 300 63 300 126.5 365.5 c 128,-1,14
 190 431 190 431 279 431 c 0,15,16
 389 431 389 431 461 327 c 1,17,-1
 461 563 l 1,18,-1
 407 563 l 2,19,20
 380 563 380 563 380 584 c 0,21,22
 380 604 380 604 407 604 c 2,23,-1
 502 604 l 1,0,-1
282 390 m 0,24,25
 208 390 208 390 156 337 c 128,-1,26
 104 284 104 284 104 208 c 0,27,28
 104 131 104 131 156 78 c 128,-1,29
 208 25 208 25 283 25 c 0,30,31
 357 25 357 25 409 78 c 128,-1,32
 461 131 461 131 461 206 c 0,33,34
 461 284 461 284 409.5 337 c 128,-1,35
 358 390 358 390 282 390 c 0,24,25
EndSplineSet
EndChar

StartChar: e
Encoding: 101 101 72
Width: 600
GlyphClass: 2
Flags: W
LayerCount: 2
Fore
SplineSet
520 199 m 1,0,-1
 104 199 l 1,1,2
 115 120 115 120 170 72.5 c 128,-1,3
 225 25 225 25 306 25 c 0,4,5
 353 25 353 25 402 40 c 128,-1,6
 451 55 451 55 481 79 c 0,7,8
 491 86 491 86 497 86 c 0,9,10
 505 86 505 86 510.5 80 c 128,-1,11
 516 74 516 74 516 66 c 0,12,13
 516 40 516 40 444.5 12 c 128,-1,14
 373 -16 373 -16 305 -16 c 0,15,16
 204 -16 204 -16 133.5 52 c 128,-1,17
 63 120 63 120 63 217 c 0,18,19
 63 308 63 308 129 369.5 c 128,-1,20
 195 431 195 431 291 431 c 0,21,22
 363 431 363 431 419.5 395 c 128,-1,23
 476 359 476 359 503 297 c 0,24,25
 520 257 520 257 520 199 c 1,0,-1
104 240 m 1,26,-1
 478 240 l 1,27,28
 466 308 466 308 415 349 c 128,-1,29
 364 390 364 390 291 390 c 128,-1,30
 218 390 218 390 168 349.5 c 128,-1,31
 118 309 118 309 104 240 c 1,26,-1
EndSplineSet
EndChar

StartChar: f
Encoding: 102 102 73
Width: 600
GlyphClass: 2
Flags: W
LayerCount: 2
Fore
SplineSet
271 376 m 1,0,-1
 271 41 l 1,1,-1
 449 41 l 2,2,3
 476 41 476 41 476 21 c 0,4,5
 476 0 476 0 449 0 c 2,6,-1
 132 0 l 2,7,8
 105 0 105 0 105 21 c 0,9,10
 105 41 105 41 132 41 c 2,11,-1
 230 41 l 1,12,-1
 230 376 l 1,13,-1
 142 376 l 2,14,15
 115 376 115 376 115 397 c 0,16,17
 115 417 115 417 142 417 c 2,18,-1
 230 417 l 1,19,-1
 230 478 l 2,20,21
 230 533 230 533 273.5 568.5 c 128,-1,22
 317 604 317 604 384 604 c 0,23,24
 454 604 454 604 523 591 c 0,25,26
 541 586 541 586 541 571 c 0,27,28
 541 551 541 551 520 551 c 0,29,30
 518 551 518 551 470 557 c 0,31,32
 416 563 416 563 382 563 c 0,33,34
 333 563 333 563 302 539.5 c 128,-1,35
 271 516 271 516 271 478 c 2,36,-1
 271 417 l 1,37,-1
 460 417 l 2,38,39
 487 417 487 417 487 397 c 0,40,41
 487 376 487 376 460 376 c 2,42,-1
 271 376 l 1,0,-1
EndSplineSet
EndChar

StartChar: g
Encoding: 103 103 74
Width: 600
GlyphClass: 2
Flags: W
LayerCount: 2
Fore
SplineSet
440 328 m 1,0,-1
 440 417 l 1,1,-1
 535 417 l 2,2,3
 562 417 562 417 562 397 c 0,4,5
 562 376 562 376 535 376 c 2,6,-1
 481 376 l 1,7,-1
 481 -28 l 2,8,9
 481 -92 481 -92 433 -139 c 128,-1,10
 385 -186 385 -186 316 -186 c 2,11,-1
 202 -186 l 2,12,13
 175 -186 175 -186 175 -165 c 0,14,15
 175 -145 175 -145 202 -145 c 2,16,-1
 318 -145 l 2,17,18
 369 -145 369 -145 404.5 -109 c 128,-1,19
 440 -73 440 -73 440 -22 c 2,20,-1
 440 87 l 1,21,22
 374 -16 374 -16 269 -16 c 0,23,24
 184 -16 184 -16 123.5 50 c 128,-1,25
 63 116 63 116 63 208 c 128,-1,26
 63 300 63 300 123.5 365.5 c 128,-1,27
 184 431 184 431 269 431 c 0,28,29
 375 431 375 431 440 328 c 1,0,-1
272 390 m 0,30,31
 202 390 202 390 153 336.5 c 128,-1,32
 104 283 104 283 104 208 c 0,33,34
 104 132 104 132 153 78.5 c 128,-1,35
 202 25 202 25 272 25 c 128,-1,36
 342 25 342 25 391 78.5 c 128,-1,37
 440 132 440 132 440 206 c 0,38,39
 440 283 440 283 391.5 336.5 c 128,-1,40
 343 390 343 390 272 390 c 0,30,31
EndSplineSet
EndChar

StartChar: h
Encoding: 104 104 75
Width: 600
GlyphClass: 2
Flags: W
LayerCount: 2
Fore
SplineSet
437 272 m 1,0,-1
 167 272 l 1,1,-1
 167 41 l 1,2,-1
 221 41 l 2,3,4
 248 41 248 41 248 21 c 0,5,6
 248 0 248 0 221 0 c 2,7,-1
 81 0 l 2,8,9
 53 0 53 0 53 21 c 0,10,11
 53 41 53 41 81 41 c 2,12,-1
 126 41 l 1,13,-1
 126 522 l 1,14,-1
 101 522 l 2,15,16
 74 522 74 522 74 543 c 0,17,18
 74 563 74 563 101 563 c 2,19,-1
 221 563 l 2,20,21
 248 563 248 563 248 543 c 0,22,23
 248 522 248 522 221 522 c 2,24,-1
 167 522 l 1,25,-1
 167 313 l 1,26,-1
 437 313 l 1,27,-1
 437 522 l 1,28,-1
 383 522 l 2,29,30
 356 522 356 522 356 543 c 0,31,32
 356 563 356 563 383 563 c 2,33,-1
 503 563 l 2,34,35
 530 563 530 563 530 543 c 0,36,37
 530 522 530 522 503 522 c 2,38,-1
 478 522 l 1,39,-1
 478 41 l 1,40,-1
 524 41 l 2,41,42
 551 41 551 41 551 21 c 0,43,44
 551 0 551 0 524 0 c 2,45,-1
 383 0 l 2,46,47
 356 0 356 0 356 21 c 0,48,49
 356 41 356 41 383 41 c 2,50,-1
 437 41 l 1,51,-1
 437 272 l 1,0,-1
EndSplineSet
EndChar

StartChar: i
Encoding: 105 105 76
Width: 600
GlyphClass: 2
Flags: W
LayerCount: 2
Fore
SplineSet
320 417 m 1,0,-1
 320 41 l 1,1,-1
 480 41 l 2,2,3
 508 41 508 41 508 21 c 0,4,5
 508 0 508 0 480 0 c 2,6,-1
 119 0 l 2,7,8
 92 0 92 0 92 21 c 0,9,10
 92 41 92 41 119 41 c 2,11,-1
 279 41 l 1,12,-1
 279 376 l 1,13,-1
 161 376 l 2,14,15
 134 376 134 376 134 397 c 0,16,17
 134 417 134 417 161 417 c 2,18,-1
 320 417 l 1,0,-1
318 624 m 1,19,-1
 318 520 l 1,20,-1
 259 520 l 1,21,-1
 259 624 l 1,22,-1
 318 624 l 1,19,-1
EndSplineSet
EndChar

StartChar: j
Encoding: 106 106 77
Width: 600
GlyphClass: 2
Flags: W
LayerCount: 2
Fore
SplineSet
417 376 m 1,0,-1
 176 376 l 2,1,2
 149 376 149 376 149 397 c 0,3,4
 149 417 149 417 176 417 c 2,5,-1
 458 417 l 1,6,-1
 458 -28 l 2,7,8
 458 -98 458 -98 414.5 -142 c 128,-1,9
 371 -186 371 -186 303 -186 c 2,10,-1
 174 -186 l 2,11,12
 147 -186 147 -186 147 -165 c 0,13,14
 147 -145 147 -145 174 -145 c 2,15,-1
 302 -145 l 2,16,17
 352 -145 352 -145 384.5 -112 c 128,-1,18
 417 -79 417 -79 417 -28 c 2,19,-1
 417 376 l 1,0,-1
414 624 m 1,20,-1
 414 520 l 1,21,-1
 355 520 l 1,22,-1
 355 624 l 1,23,-1
 414 624 l 1,20,-1
EndSplineSet
EndChar

StartChar: k
Encoding: 107 107 78
Width: 600
GlyphClass: 2
Flags: W
LayerCount: 2
Fore
SplineSet
282 390 m 0,0,1
 208 390 208 390 156 337 c 128,-1,2
 104 284 104 284 104 208 c 0,3,4
 104 131 104 131 156 78 c 128,-1,5
 208 25 208 25 283 25 c 0,6,7
 357 25 357 25 409 78 c 128,-1,8
 461 131 461 131 461 206 c 0,9,10
 461 284 461 284 409.5 337 c 128,-1,11
 358 390 358 390 282 390 c 0,0,1
461 89 m 1,12,13
 389 -16 389 -16 279 -16 c 0,14,15
 190 -16 190 -16 126.5 50 c 128,-1,16
 63 116 63 116 63 208 c 128,-1,17
 63 300 63 300 126.5 365.5 c 128,-1,18
 190 431 190 431 279 431 c 0,19,20
 390 431 390 431 461 327 c 1,21,-1
 461 417 l 1,22,-1
 556 417 l 2,23,24
 583 417 583 417 583 397 c 0,25,26
 583 376 583 376 556 376 c 2,27,-1
 502 376 l 1,28,-1
 502 -145 l 1,29,-1
 556 -145 l 2,30,31
 583 -145 583 -145 583 -165 c 0,32,33
 583 -186 583 -186 556 -186 c 2,34,-1
 363 -186 l 2,35,36
 336 -186 336 -186 336 -165 c 0,37,38
 336 -145 336 -145 363 -145 c 2,39,-1
 461 -145 l 1,40,-1
 461 89 l 1,12,13
EndSplineSet
EndChar

StartChar: l
Encoding: 108 108 79
Width: 600
GlyphClass: 2
Flags: W
LayerCount: 2
Fore
SplineSet
320 604 m 1,0,-1
 320 41 l 1,1,-1
 480 41 l 2,2,3
 508 41 508 41 508 21 c 0,4,5
 508 0 508 0 480 0 c 2,6,-1
 119 0 l 2,7,8
 92 0 92 0 92 21 c 0,9,10
 92 41 92 41 119 41 c 2,11,-1
 279 41 l 1,12,-1
 279 563 l 1,13,-1
 162 563 l 2,14,15
 135 563 135 563 135 584 c 0,16,17
 135 604 135 604 162 604 c 2,18,-1
 320 604 l 1,0,-1
EndSplineSet
EndChar

StartChar: m
Encoding: 109 109 80
Width: 600
GlyphClass: 2
Flags: W
LayerCount: 2
Fore
SplineSet
112 417 m 1,0,-1
 112 365 l 1,1,2
 137 401 137 401 161 416 c 128,-1,3
 185 431 185 431 217 431 c 0,4,5
 281 431 281 431 314 360 c 1,6,7
 369 431 369 431 427 431 c 0,8,9
 470 431 470 431 501 399 c 128,-1,10
 532 367 532 367 532 323 c 2,11,-1
 532 41 l 1,12,-1
 566 41 l 2,13,14
 593 41 593 41 593 21 c 0,15,16
 593 0 593 0 566 0 c 2,17,-1
 492 0 l 1,18,-1
 492 319 l 2,19,20
 492 347 492 347 472 368.5 c 128,-1,21
 452 390 452 390 426 390 c 0,22,23
 376 390 376 390 322 308 c 1,24,-1
 322 41 l 1,25,-1
 356 41 l 2,26,27
 383 41 383 41 383 21 c 0,28,29
 383 0 383 0 356 0 c 2,30,-1
 282 0 l 1,31,-1
 282 316 l 2,32,33
 282 345 282 345 262.5 367.5 c 128,-1,34
 243 390 243 390 217 390 c 0,35,36
 167 390 167 390 112 308 c 1,37,-1
 112 41 l 1,38,-1
 146 41 l 2,39,40
 173 41 173 41 173 21 c 0,41,42
 173 0 173 0 146 0 c 2,43,-1
 37 0 l 2,44,45
 11 0 11 0 11 21 c 0,46,47
 11 41 11 41 38 41 c 2,48,-1
 72 41 l 1,49,-1
 72 376 l 1,50,-1
 38 376 l 2,51,52
 11 376 11 376 11 397 c 0,53,54
 11 417 11 417 38 417 c 2,55,-1
 112 417 l 1,0,-1
EndSplineSet
EndChar

StartChar: n
Encoding: 110 110 81
Width: 600
GlyphClass: 2
Flags: W
LayerCount: 2
Fore
SplineSet
167 417 m 1,0,-1
 167 348 l 1,1,2
 210 396 210 396 243 413.5 c 128,-1,3
 276 431 276 431 323 431 c 0,4,5
 390 431 390 431 435 392 c 128,-1,6
 480 353 480 353 480 295 c 2,7,-1
 480 41 l 1,8,-1
 514 41 l 2,9,10
 541 41 541 41 541 21 c 0,11,12
 541 0 541 0 514 0 c 2,13,-1
 405 0 l 2,14,15
 378 0 378 0 378 21 c 0,16,17
 378 41 378 41 405 41 c 2,18,-1
 439 41 l 1,19,-1
 439 288 l 2,20,21
 439 332 439 332 401 364 c 0,22,23
 370 390 370 390 319 390 c 0,24,25
 264 390 264 390 224 357 c 0,26,27
 206 344 206 344 167 294 c 1,28,-1
 167 41 l 1,29,-1
 212 41 l 2,30,31
 239 41 239 41 239 21 c 0,32,33
 239 0 239 0 212 0 c 2,34,-1
 81 0 l 2,35,36
 53 0 53 0 53 21 c 0,37,38
 53 41 53 41 81 41 c 2,39,-1
 126 41 l 1,40,-1
 126 376 l 1,41,-1
 92 376 l 2,42,43
 65 376 65 376 65 397 c 0,44,45
 65 417 65 417 92 417 c 2,46,-1
 167 417 l 1,0,-1
EndSplineSet
EndChar

StartChar: o
Encoding: 111 111 82
Width: 600
GlyphClass: 2
Flags: W
LayerCount: 2
Fore
SplineSet
300 431 m 0,0,1
 396 431 396 431 462 365.5 c 128,-1,2
 528 300 528 300 528 205 c 0,3,4
 528 113 528 113 461 48.5 c 128,-1,5
 394 -16 394 -16 300 -16 c 0,6,7
 205 -16 205 -16 138.5 49 c 128,-1,8
 72 114 72 114 72 208 c 0,9,10
 72 300 72 300 138.5 365.5 c 128,-1,11
 205 431 205 431 300 431 c 0,0,1
300 390 m 0,12,13
 222 390 222 390 167.5 337 c 128,-1,14
 113 284 113 284 113 208 c 128,-1,15
 113 132 113 132 167.5 78.5 c 128,-1,16
 222 25 222 25 300 25 c 0,17,18
 377 25 377 25 432 78 c 128,-1,19
 487 131 487 131 487 205 c 0,20,21
 487 284 487 284 433 337 c 128,-1,22
 379 390 379 390 300 390 c 0,12,13
EndSplineSet
EndChar

StartChar: p
Encoding: 112 112 83
Width: 600
GlyphClass: 2
Flags: W
LayerCount: 2
Fore
SplineSet
322 390 m 0,0,1
 248 390 248 390 196 337 c 128,-1,2
 144 284 144 284 144 208 c 128,-1,3
 144 132 144 132 196 78.5 c 128,-1,4
 248 25 248 25 322 25 c 0,5,6
 395 25 395 25 447.5 78 c 128,-1,7
 500 131 500 131 500 205 c 0,8,9
 500 283 500 283 448.5 336.5 c 128,-1,10
 397 390 397 390 322 390 c 0,0,1
144 88 m 1,11,-1
 144 -145 l 1,12,-1
 242 -145 l 2,13,14
 269 -145 269 -145 269 -165 c 0,15,16
 269 -186 269 -186 242 -186 c 2,17,-1
 49 -186 l 2,18,19
 22 -186 22 -186 22 -165 c 0,20,21
 22 -145 22 -145 49 -145 c 2,22,-1
 103 -145 l 1,23,-1
 103 376 l 1,24,-1
 49 376 l 2,25,26
 22 376 22 376 22 397 c 0,27,28
 22 417 22 417 49 417 c 2,29,-1
 144 417 l 1,30,-1
 144 328 l 1,31,32
 216 431 216 431 324 431 c 0,33,34
 415 431 415 431 478 367 c 128,-1,35
 541 303 541 303 541 210 c 0,36,37
 541 116 541 116 477.5 50 c 128,-1,38
 414 -16 414 -16 324 -16 c 0,39,40
 215 -16 215 -16 144 88 c 1,11,-1
EndSplineSet
EndChar

StartChar: q
Encoding: 113 113 84
Width: 600
GlyphClass: 2
Flags: W
LayerCount: 2
Fore
SplineSet
282 390 m 0,0,1
 208 390 208 390 156 337 c 128,-1,2
 104 284 104 284 104 208 c 0,3,4
 104 131 104 131 156 78 c 128,-1,5
 208 25 208 25 283 25 c 0,6,7
 357 25 357 25 409 78 c 128,-1,8
 461 131 461 131 461 206 c 0,9,10
 461 284 461 284 409.5 337 c 128,-1,11
 358 390 358 390 282 390 c 0,0,1
461 89 m 1,12,13
 389 -16 389 -16 279 -16 c 0,14,15
 190 -16 190 -16 126.5 50 c 128,-1,16
 63 116 63 116 63 208 c 128,-1,17
 63 300 63 300 126.5 365.5 c 128,-1,18
 190 431 190 431 279 431 c 0,19,20
 390 431 390 431 461 327 c 1,21,-1
 461 417 l 1,22,-1
 556 417 l 2,23,24
 583 417 583 417 583 397 c 0,25,26
 583 376 583 376 556 376 c 2,27,-1
 502 376 l 1,28,-1
 502 -145 l 1,29,-1
 556 -145 l 2,30,31
 583 -145 583 -145 583 -165 c 0,32,33
 583 -186 583 -186 556 -186 c 2,34,-1
 363 -186 l 2,35,36
 336 -186 336 -186 336 -165 c 0,37,38
 336 -145 336 -145 363 -145 c 2,39,-1
 461 -145 l 1,40,-1
 461 89 l 1,12,13
EndSplineSet
EndChar

StartChar: r
Encoding: 114 114 85
Width: 600
GlyphClass: 2
Flags: W
LayerCount: 2
Fore
SplineSet
248 417 m 1,0,-1
 248 315 l 1,1,2
 317 378 317 378 360 402.5 c 128,-1,3
 403 427 403 427 441 427 c 0,4,5
 481 427 481 427 518 396 c 0,6,7
 541 377 541 377 541 365 c 0,8,9
 541 356 541 356 535 350 c 128,-1,10
 529 344 529 344 520 344 c 0,11,12
 512 344 512 344 504 352 c 0,13,14
 469 386 469 386 438 386 c 0,15,16
 404 386 404 386 367.5 362 c 128,-1,17
 331 338 331 338 248 262 c 1,18,-1
 248 41 l 1,19,-1
 427 41 l 2,20,21
 454 41 454 41 454 20 c 0,22,23
 454 0 454 0 427 0 c 2,24,-1
 111 0 l 2,25,26
 84 0 84 0 84 21 c 0,27,28
 84 41 84 41 111 41 c 2,29,-1
 207 41 l 1,30,-1
 207 376 l 1,31,-1
 132 376 l 2,32,33
 105 376 105 376 105 397 c 0,34,35
 105 417 105 417 132 417 c 2,36,-1
 248 417 l 1,0,-1
EndSplineSet
EndChar

StartChar: s
Encoding: 115 115 86
Width: 600
GlyphClass: 2
Flags: W
LayerCount: 2
Fore
SplineSet
432 385 m 1,0,-1
 432 389 l 2,1,2
 432 417 432 417 453 417 c 0,3,4
 473 417 473 417 473 389 c 2,5,-1
 473 320 l 2,6,7
 473 293 473 293 453 293 c 0,8,9
 435 293 435 293 432 316 c 0,10,11
 428 350 428 350 392 370 c 128,-1,12
 356 390 356 390 299 390 c 0,13,14
 243 390 243 390 206 368.5 c 128,-1,15
 169 347 169 347 169 315 c 0,16,17
 169 288 169 288 201 270 c 0,18,19
 218 259 218 259 235 255.5 c 128,-1,20
 252 252 252 252 317 245 c 0,21,22
 403 235 403 235 447 206 c 0,23,24
 497 172 497 172 497 116 c 0,25,26
 497 59 497 59 441.5 21.5 c 128,-1,27
 386 -16 386 -16 301 -16 c 0,28,29
 205 -16 205 -16 144 38 c 1,30,-1
 144 27 l 2,31,32
 144 0 144 0 124 0 c 0,33,34
 103 0 103 0 103 27 c 2,35,-1
 103 110 l 2,36,37
 103 137 103 137 124 137 c 0,38,39
 144 137 144 137 144 115 c 2,40,-1
 144 108 l 2,41,42
 144 74 144 74 189 49.5 c 128,-1,43
 234 25 234 25 298 25 c 0,44,45
 364 25 364 25 408 51 c 128,-1,46
 452 77 452 77 452 117 c 0,47,48
 452 156 452 156 408 180 c 0,49,50
 373 199 373 199 300 207 c 0,51,52
 206 217 206 217 170 239 c 0,53,54
 124 269 124 269 124 318 c 128,-1,55
 124 367 124 367 172.5 399 c 128,-1,56
 221 431 221 431 295 431 c 0,57,58
 380 431 380 431 432 385 c 1,0,-1
EndSplineSet
EndChar

StartChar: t
Encoding: 116 116 87
Width: 600
GlyphClass: 2
Flags: W
LayerCount: 2
Fore
SplineSet
186 417 m 1,0,-1
 406 417 l 2,1,2
 433 417 433 417 433 397 c 0,3,4
 433 376 433 376 406 376 c 2,5,-1
 186 376 l 1,6,-1
 186 109 l 2,7,8
 186 71 186 71 216 48 c 128,-1,9
 246 25 246 25 298 25 c 0,10,11
 340 25 340 25 387.5 36.5 c 128,-1,12
 435 48 435 48 464 65 c 0,13,14
 474 71 474 71 480 71 c 0,15,16
 487 71 487 71 493 65 c 128,-1,17
 499 59 499 59 499 51 c 0,18,19
 499 29 499 29 431.5 6.5 c 128,-1,20
 364 -16 364 -16 300 -16 c 0,21,22
 229 -16 229 -16 187 17.5 c 128,-1,23
 145 51 145 51 145 107 c 2,24,-1
 145 376 l 1,25,-1
 71 376 l 2,26,27
 43 376 43 376 43 397 c 0,28,29
 43 417 43 417 71 417 c 2,30,-1
 145 417 l 1,31,-1
 145 536 l 2,32,33
 145 563 145 563 166 563 c 0,34,35
 186 563 186 563 186 536 c 2,36,-1
 186 417 l 1,0,-1
EndSplineSet
EndChar

StartChar: u
Encoding: 117 117 88
Width: 600
GlyphClass: 2
Flags: W
LayerCount: 2
Fore
SplineSet
439 0 m 1,0,-1
 439 66 l 1,1,2
 355 -16 355 -16 257 -16 c 0,3,4
 197 -16 197 -16 160.5 20 c 128,-1,5
 124 56 124 56 124 115 c 2,6,-1
 124 376 l 1,7,-1
 70 376 l 2,8,9
 43 376 43 376 43 397 c 0,10,11
 43 417 43 417 70 417 c 2,12,-1
 165 417 l 1,13,-1
 165 115 l 2,14,15
 165 77 165 77 191.5 51 c 128,-1,16
 218 25 218 25 256 25 c 0,17,18
 356 25 356 25 439 115 c 1,19,-1
 439 376 l 1,20,-1
 365 376 l 2,21,22
 337 376 337 376 337 397 c 0,23,24
 337 417 337 417 365 417 c 2,25,-1
 480 417 l 1,26,-1
 480 41 l 1,27,-1
 514 41 l 2,28,29
 541 41 541 41 541 21 c 0,30,31
 541 0 541 0 514 0 c 2,32,-1
 439 0 l 1,0,-1
EndSplineSet
EndChar

StartChar: v
Encoding: 118 118 89
Width: 600
GlyphClass: 2
Flags: W
LayerCount: 2
Fore
SplineSet
336 0 m 1,0,-1
 266 0 l 1,1,-1
 98 376 l 1,2,-1
 57 376 l 2,3,4
 30 376 30 376 30 397 c 0,5,6
 30 417 30 417 57 417 c 2,7,-1
 208 417 l 2,8,9
 236 417 236 417 236 397 c 0,10,11
 236 376 236 376 208 376 c 2,12,-1
 143 376 l 1,13,-1
 293 41 l 1,14,-1
 312 41 l 1,15,-1
 459 376 l 1,16,-1
 391 376 l 2,17,18
 364 376 364 376 364 397 c 0,19,20
 364 417 364 417 391 417 c 2,21,-1
 543 417 l 2,22,23
 570 417 570 417 570 397 c 0,24,25
 570 376 570 376 543 376 c 2,26,-1
 502 376 l 1,27,-1
 336 0 l 1,0,-1
EndSplineSet
EndChar

StartChar: w
Encoding: 119 119 90
Width: 600
GlyphClass: 2
Flags: W
LayerCount: 2
Fore
SplineSet
104 41 m 1,0,-1
 104 522 l 1,1,-1
 70 522 l 2,2,3
 43 522 43 522 43 543 c 0,4,5
 43 563 43 563 70 563 c 2,6,-1
 290 563 l 2,7,8
 387 563 387 563 453.5 489.5 c 128,-1,9
 520 416 520 416 520 310 c 2,10,-1
 520 254 l 2,11,12
 520 147 520 147 453.5 73.5 c 128,-1,13
 387 0 387 0 290 0 c 2,14,-1
 70 0 l 2,15,16
 43 0 43 0 43 21 c 0,17,18
 43 41 43 41 70 41 c 2,19,-1
 104 41 l 1,0,-1
145 41 m 1,20,-1
 295 41 l 2,21,22
 367 41 367 41 423 103 c 128,-1,23
 479 165 479 165 479 245 c 2,24,-1
 479 318 l 2,25,26
 479 405 479 405 414 472 c 0,27,28
 364 522 364 522 288 522 c 2,29,-1
 145 522 l 1,30,-1
 145 41 l 1,20,-1
EndSplineSet
EndChar

StartChar: x
Encoding: 120 120 91
Width: 600
GlyphClass: 2
Flags: W
LayerCount: 2
Fore
SplineSet
321 41 m 1,0,-1
 426 41 l 2,1,2
 453 41 453 41 453 21 c 0,3,4
 453 0 453 0 426 0 c 2,5,-1
 175 0 l 2,6,7
 148 0 148 0 148 21 c 0,8,9
 148 41 148 41 175 41 c 2,10,-1
 280 41 l 1,11,-1
 280 522 l 1,12,-1
 113 522 l 1,13,-1
 113 449 l 2,14,15
 113 422 113 422 92 422 c 0,16,17
 72 422 72 422 72 449 c 2,18,-1
 72 563 l 1,19,-1
 528 563 l 1,20,-1
 528 449 l 2,21,22
 528 422 528 422 508 422 c 0,23,24
 499 422 499 422 493 429.5 c 128,-1,25
 487 437 487 437 487 449 c 2,26,-1
 487 522 l 1,27,-1
 321 522 l 1,28,-1
 321 41 l 1,0,-1
EndSplineSet
EndChar

StartChar: y
Encoding: 121 121 92
Width: 600
GlyphClass: 2
Flags: W
LayerCount: 2
Fore
SplineSet
282 0 m 1,0,-1
 94 376 l 1,1,-1
 78 376 l 2,2,3
 51 376 51 376 51 397 c 0,4,5
 51 417 51 417 78 417 c 2,6,-1
 193 417 l 2,7,8
 220 417 220 417 220 397 c 0,9,10
 220 376 220 376 193 376 c 2,11,-1
 141 376 l 1,12,-1
 305 45 l 1,13,-1
 466 376 l 1,14,-1
 412 376 l 2,15,16
 385 376 385 376 385 397 c 0,17,18
 385 417 385 417 412 417 c 2,19,-1
 522 417 l 2,20,21
 549 417 549 417 549 397 c 0,22,23
 549 376 549 376 522 376 c 2,24,-1
 508 376 l 1,25,-1
 252 -145 l 1,26,-1
 317 -145 l 2,27,28
 344 -145 344 -145 344 -165 c 0,29,30
 344 -186 344 -186 317 -186 c 2,31,-1
 84 -186 l 2,32,33
 57 -186 57 -186 57 -165 c 0,34,35
 57 -145 57 -145 84 -145 c 2,36,-1
 211 -145 l 1,37,-1
 282 0 l 1,0,-1
EndSplineSet
EndChar

StartChar: z
Encoding: 122 122 93
Width: 600
GlyphClass: 2
Flags: W
LayerCount: 2
Fore
SplineSet
417 376 m 1,0,-1
 176 376 l 2,1,2
 149 376 149 376 149 397 c 0,3,4
 149 417 149 417 176 417 c 2,5,-1
 458 417 l 1,6,-1
 458 -28 l 2,7,8
 458 -98 458 -98 414.5 -142 c 128,-1,9
 371 -186 371 -186 303 -186 c 2,10,-1
 174 -186 l 2,11,12
 147 -186 147 -186 147 -165 c 0,13,14
 147 -145 147 -145 174 -145 c 2,15,-1
 302 -145 l 2,16,17
 352 -145 352 -145 384.5 -112 c 128,-1,18
 417 -79 417 -79 417 -28 c 2,19,-1
 417 376 l 1,0,-1
414 624 m 1,20,-1
 414 520 l 1,21,-1
 355 520 l 1,22,-1
 355 624 l 1,23,-1
 414 624 l 1,20,-1
EndSplineSet
EndChar

StartChar: braceleft
Encoding: 123 123 94
Width: 600
GlyphClass: 2
Flags: W
LayerCount: 2
Fore
SplineSet
322 499 m 2,0,-1
 322 326 l 2,1,2
 322 295 322 295 312.5 276.5 c 128,-1,3
 303 258 303 258 278 240 c 1,4,5
 303 222 303 222 312.5 203.5 c 128,-1,6
 322 185 322 185 322 154 c 2,7,-1
 322 -19 l 2,8,9
 322 -45 322 -45 337.5 -63 c 128,-1,10
 353 -81 353 -81 377 -83 c 0,11,12
 403 -86 403 -86 403 -104 c 0,13,14
 403 -124 403 -124 379 -124 c 0,15,16
 338 -124 338 -124 309.5 -93.5 c 128,-1,17
 281 -63 281 -63 281 -19 c 2,18,-1
 281 154 l 2,19,20
 281 181 281 181 264.5 199 c 128,-1,21
 248 217 248 217 221 219 c 0,22,23
 197 220 197 220 197 240 c 256,24,25
 197 260 197 260 221 261 c 0,26,27
 248 263 248 263 264.5 280.5 c 128,-1,28
 281 298 281 298 281 326 c 2,29,-1
 281 499 l 2,30,31
 281 543 281 543 309.5 573.5 c 128,-1,32
 338 604 338 604 379 604 c 0,33,34
 403 604 403 604 403 584 c 0,35,36
 403 566 403 566 377 563 c 0,37,38
 353 561 353 561 337.5 543 c 128,-1,39
 322 525 322 525 322 499 c 2,0,-1
EndSplineSet
EndChar

StartChar: bar
Encoding: 124 124 95
Width: 600
GlyphClass: 2
Flags: W
LayerCount: 2
Fore
SplineSet
320 577 m 2,0,-1
 320 -97 l 2,1,2
 320 -124 320 -124 300 -124 c 128,-1,3
 280 -124 280 -124 280 -97 c 2,4,-1
 280 577 l 2,5,6
 280 604 280 604 300 604 c 128,-1,7
 320 604 320 604 320 577 c 2,0,-1
EndSplineSet
EndChar

StartChar: braceright
Encoding: 125 125 96
Width: 600
GlyphClass: 2
Flags: W
LayerCount: 2
Fore
SplineSet
278 -19 m 2,0,-1
 278 154 l 2,1,2
 278 185 278 185 287.5 203.5 c 128,-1,3
 297 222 297 222 322 240 c 1,4,5
 297 258 297 258 287.5 276.5 c 128,-1,6
 278 295 278 295 278 326 c 2,7,-1
 278 499 l 2,8,9
 278 525 278 525 262.5 543 c 128,-1,10
 247 561 247 561 223 563 c 0,11,12
 197 566 197 566 197 584 c 0,13,14
 197 604 197 604 221 604 c 0,15,16
 262 604 262 604 290.5 573.5 c 128,-1,17
 319 543 319 543 319 499 c 2,18,-1
 319 326 l 2,19,20
 319 299 319 299 335.5 281 c 128,-1,21
 352 263 352 263 379 261 c 0,22,23
 403 260 403 260 403 240 c 256,24,25
 403 220 403 220 379 219 c 0,26,27
 352 217 352 217 335.5 199.5 c 128,-1,28
 319 182 319 182 319 154 c 2,29,-1
 319 -19 l 2,30,31
 319 -63 319 -63 290.5 -93.5 c 128,-1,32
 262 -124 262 -124 221 -124 c 0,33,34
 197 -124 197 -124 197 -104 c 0,35,36
 197 -86 197 -86 223 -83 c 0,37,38
 247 -81 247 -81 262.5 -63 c 128,-1,39
 278 -45 278 -45 278 -19 c 2,0,-1
EndSplineSet
EndChar

StartChar: asciitilde
Encoding: 126 126 97
Width: 600
GlyphClass: 2
Flags: W
LayerCount: 2
Fore
SplineSet
488 330 m 0,0,1
 496 330 496 330 502 324.5 c 128,-1,2
 508 319 508 319 508 311 c 0,3,4
 508 300 508 300 483 271 c 0,5,6
 434 212 434 212 389 212 c 0,7,8
 365 212 365 212 342.5 224.5 c 128,-1,9
 320 237 320 237 273 277 c 0,10,11
 236 307 236 307 212 307 c 0,12,13
 193 307 193 307 178.5 295.5 c 128,-1,14
 164 284 164 284 131 242 c 0,15,16
 122 230 122 230 111 230 c 0,17,18
 104 230 104 230 98 236 c 128,-1,19
 92 242 92 242 92 249 c 0,20,21
 92 262 92 262 120 294 c 0,22,23
 167 348 167 348 212 348 c 0,24,25
 236 348 236 348 254 339 c 128,-1,26
 272 330 272 330 313 297 c 0,27,28
 367 253 367 253 386 253 c 0,29,30
 422 253 422 253 459 305 c 0,31,32
 476 330 476 330 488 330 c 0,0,1
EndSplineSet
EndChar

StartChar: exclamdown
Encoding: 161 161 99
Width: 600
GlyphClass: 2
Flags: W
LayerCount: 2
Fore
SplineSet
262 -161 m 2,0,-1
 280 165 l 2,1,2
 281 193 281 193 301 193 c 0,3,4
 320 193 320 193 321 165 c 2,5,-1
 339 -161 l 2,6,7
 340 -168 340 -168 340 -177 c 0,8,9
 340 -194 340 -194 328.5 -205 c 128,-1,10
 317 -216 317 -216 300 -216 c 0,11,12
 284 -216 284 -216 272.5 -205 c 128,-1,13
 261 -194 261 -194 261 -177 c 0,14,15
 261 -169 261 -169 262 -161 c 2,0,-1
307 317 m 2,16,-1
 294 317 l 2,17,18
 271 317 271 317 255.5 331.5 c 128,-1,19
 240 346 240 346 240 367 c 128,-1,20
 240 388 240 388 255.5 402.5 c 128,-1,21
 271 417 271 417 294 417 c 2,22,-1
 307 417 l 2,23,24
 329 417 329 417 344.5 402.5 c 128,-1,25
 360 388 360 388 360 367 c 128,-1,26
 360 346 360 346 344.5 331.5 c 128,-1,27
 329 317 329 317 307 317 c 2,16,-1
EndSplineSet
EndChar

StartChar: cent
Encoding: 162 162 100
Width: 600
GlyphClass: 2
Flags: W
LayerCount: 2
Fore
SplineSet
280 496 m 1,0,-1
 280 603 l 2,1,2
 280 630 280 630 301 630 c 0,3,4
 321 630 321 630 321 603 c 2,5,-1
 321 497 l 1,6,7
 384 497 384 497 425 461 c 1,8,9
 430 478 430 478 445 478 c 0,10,11
 466 478 466 478 466 453 c 2,12,-1
 466 392 l 2,13,14
 466 364 466 364 446 364 c 0,15,16
 429 364 429 364 426 387 c 0,17,18
 421 419 421 419 390 438.5 c 128,-1,19
 359 458 359 458 311 458 c 0,20,21
 243 458 243 458 198.5 416.5 c 128,-1,22
 154 375 154 375 154 311 c 0,23,24
 154 248 154 248 197.5 206.5 c 128,-1,25
 241 165 241 165 307 165 c 0,26,27
 381 165 381 165 432 207 c 0,28,29
 442 215 442 215 450 215 c 0,30,31
 469 215 469 215 469 195 c 128,-1,32
 469 175 469 175 420 152 c 128,-1,33
 371 129 371 129 321 127 c 1,34,-1
 321 14 l 2,35,36
 321 -13 321 -13 301 -13 c 0,37,38
 280 -13 280 -13 280 14 c 2,39,-1
 280 127 l 1,40,41
 207 135 207 135 160 187.5 c 128,-1,42
 113 240 113 240 113 311 c 0,43,44
 113 409 113 409 194 463 c 0,45,46
 227 485 227 485 280 496 c 1,0,-1
EndSplineSet
EndChar

StartChar: sterling
Encoding: 163 163 101
Width: 600
GlyphClass: 2
Flags: W
LayerCount: 2
Fore
SplineSet
182 41 m 1,0,-1
 434 41 l 2,1,2
 453 41 453 41 465.5 54.5 c 128,-1,3
 478 68 478 68 479 92 c 0,4,5
 482 115 482 115 500 115 c 0,6,7
 520 115 520 115 520 93 c 0,8,9
 520 55 520 55 495.5 27.5 c 128,-1,10
 471 0 471 0 436 0 c 2,11,-1
 113 0 l 2,12,13
 86 0 86 0 86 21 c 0,14,15
 86 40 86 40 108 40 c 0,16,17
 143 42 143 42 170.5 96.5 c 128,-1,18
 198 151 198 151 198 220 c 0,19,20
 198 247 198 247 194 273 c 1,21,-1
 90 273 l 2,22,23
 63 273 63 273 63 294 c 0,24,25
 63 314 63 314 90 314 c 2,26,-1
 184 314 l 1,27,28
 157 399 157 399 157 435 c 0,29,30
 157 494 157 494 198.5 536 c 128,-1,31
 240 578 240 578 298 578 c 0,32,33
 352 578 352 578 396 539 c 0,34,35
 427 511 427 511 427 495 c 0,36,37
 427 488 427 488 420.5 482 c 128,-1,38
 414 476 414 476 407 476 c 0,39,40
 398 476 398 476 389 488 c 0,41,42
 349 537 349 537 299 537 c 0,43,44
 258 537 258 537 228 506.5 c 128,-1,45
 198 476 198 476 198 435 c 0,46,47
 198 407 198 407 221 328 c 1,48,-1
 222 326 l 2,49,50
 222 324 222 324 223 320.5 c 128,-1,51
 224 317 224 317 225 314 c 2,52,-1
 324 314 l 2,53,54
 351 314 351 314 351 293 c 0,55,56
 351 273 351 273 324 273 c 2,57,-1
 234 273 l 1,58,59
 239 238 239 238 239 216 c 0,60,61
 239 112 239 112 182 41 c 1,0,-1
EndSplineSet
EndChar

StartChar: currency
Encoding: 164 164 102
Width: 600
GlyphClass: 2
Flags: W
LayerCount: 2
Fore
SplineSet
199 162 m 1,0,-1
 142 106 l 2,1,2
 132 95 132 95 124 95 c 0,3,4
 115 95 115 95 109 101 c 128,-1,5
 103 107 103 107 103 115 c 0,6,7
 103 124 103 124 114 135 c 2,8,-1
 170 191 l 1,9,10
 135 238 135 238 135 292 c 0,11,12
 135 351 135 351 169 394 c 1,13,-1
 114 450 l 2,14,15
 103 460 103 460 103 469 c 0,16,17
 103 477 103 477 109 483 c 128,-1,18
 115 489 115 489 123 489 c 128,-1,19
 131 489 131 489 142 478 c 2,20,-1
 198 423 l 1,21,22
 242 458 242 458 300 458 c 0,23,24
 357 458 357 458 402 423 c 1,25,-1
 457 478 l 2,26,27
 468 489 468 489 477 489 c 0,28,29
 485 489 485 489 491 483 c 128,-1,30
 497 477 497 477 497 468 c 0,31,32
 497 460 497 460 487 450 c 2,33,-1
 432 394 l 1,34,35
 466 347 466 347 466 293 c 0,36,37
 466 235 466 235 431 191 c 1,38,-1
 486 135 l 2,39,40
 496 125 496 125 496 115 c 0,41,42
 496 107 496 107 490 101 c 128,-1,43
 484 95 484 95 476 95 c 0,44,45
 467 95 467 95 457 106 c 2,46,-1
 401 162 l 1,47,48
 354 127 354 127 300 127 c 0,49,50
 245 127 245 127 199 162 c 1,0,-1
300 417 m 0,51,52
 249 417 249 417 212.5 380.5 c 128,-1,53
 176 344 176 344 176 293 c 0,54,55
 176 241 176 241 212.5 204.5 c 128,-1,56
 249 168 249 168 300 168 c 0,57,58
 350 168 350 168 387 204.5 c 128,-1,59
 424 241 424 241 424 291 c 0,60,61
 424 344 424 344 388 380.5 c 128,-1,62
 352 417 352 417 300 417 c 0,51,52
EndSplineSet
EndChar

StartChar: yen
Encoding: 165 165 103
Width: 600
GlyphClass: 2
Flags: W
LayerCount: 2
Fore
SplineSet
321 238 m 1,0,-1
 321 178 l 1,1,-1
 452 178 l 2,2,3
 473 178 473 178 473 160 c 0,4,5
 473 141 473 141 452 141 c 2,6,-1
 321 141 l 1,7,-1
 321 41 l 1,8,-1
 407 41 l 2,9,10
 434 41 434 41 434 21 c 0,11,12
 434 0 434 0 407 0 c 2,13,-1
 194 0 l 2,14,15
 167 0 167 0 167 21 c 0,16,17
 167 41 167 41 194 41 c 2,18,-1
 280 41 l 1,19,-1
 280 141 l 1,20,-1
 150 141 l 2,21,22
 128 141 128 141 128 160 c 0,23,24
 128 178 128 178 150 178 c 2,25,-1
 280 178 l 1,26,-1
 280 238 l 1,27,-1
 150 238 l 2,28,29
 128 238 128 238 128 257 c 0,30,31
 128 275 128 275 150 275 c 2,32,-1
 266 275 l 1,33,-1
 102 522 l 1,34,-1
 78 522 l 2,35,36
 51 522 51 522 51 543 c 0,37,38
 51 563 51 563 78 563 c 2,39,-1
 188 563 l 2,40,41
 215 563 215 563 215 543 c 0,42,43
 215 522 215 522 188 522 c 2,44,-1
 149 522 l 1,45,-1
 300 295 l 1,46,-1
 451 522 l 1,47,-1
 412 522 l 2,48,49
 385 522 385 522 385 543 c 0,50,51
 385 563 385 563 412 563 c 2,52,-1
 522 563 l 2,53,54
 549 563 549 563 549 543 c 0,55,56
 549 522 549 522 522 522 c 2,57,-1
 498 522 l 1,58,-1
 334 275 l 1,59,-1
 452 275 l 2,60,61
 473 275 473 275 473 257 c 0,62,63
 473 238 473 238 452 238 c 2,64,-1
 321 238 l 1,0,-1
EndSplineSet
EndChar

StartChar: brokenbar
Encoding: 166 166 104
Width: 600
GlyphClass: 2
Flags: W
LayerCount: 2
Fore
SplineSet
320 577 m 2,0,-1
 320 310 l 2,1,2
 320 283 320 283 300 283 c 128,-1,3
 280 283 280 283 280 310 c 2,4,-1
 280 577 l 2,5,6
 280 604 280 604 300 604 c 128,-1,7
 320 604 320 604 320 577 c 2,0,-1
320 170 m 2,8,-1
 320 -97 l 2,9,10
 320 -124 320 -124 300 -124 c 128,-1,11
 280 -124 280 -124 280 -97 c 2,12,-1
 280 170 l 2,13,14
 280 197 280 197 300 197 c 128,-1,15
 320 197 320 197 320 170 c 2,8,-1
EndSplineSet
EndChar

StartChar: section
Encoding: 167 167 105
Width: 600
GlyphClass: 2
Flags: W
LayerCount: 2
Fore
SplineSet
534 185 m 0,0,1
 534 114 534 114 432 101 c 1,2,3
 445 79 445 79 445 52 c 0,4,5
 445 3 445 3 407 -29.5 c 128,-1,6
 369 -62 369 -62 312 -62 c 2,7,-1
 105 -62 l 1,8,-1
 105 49 l 2,9,10
 105 73 105 73 126 73 c 0,11,12
 146 73 146 73 146 49 c 2,13,-1
 146 -22 l 1,14,-1
 311 -22 l 2,15,16
 351 -22 351 -22 377.5 -0.5 c 128,-1,17
 404 21 404 21 404 53 c 0,18,19
 404 79 404 79 374.5 107 c 128,-1,20
 345 135 345 135 273 175 c 2,21,-1
 208 211 l 2,22,23
 66 291 66 291 66 358 c 0,24,25
 66 392 66 392 94 414.5 c 128,-1,26
 122 437 122 437 169 441 c 1,27,28
 156 463 156 463 156 487 c 0,29,30
 156 534 156 534 194 568.5 c 128,-1,31
 232 603 232 603 284 603 c 2,32,-1
 496 603 l 1,33,-1
 496 494 l 2,34,35
 496 470 496 470 476 470 c 0,36,37
 455 470 455 470 455 494 c 2,38,-1
 455 563 l 1,39,-1
 287 563 l 2,40,41
 250 563 250 563 223 540.5 c 128,-1,42
 196 518 196 518 196 487 c 0,43,44
 196 459 196 459 226 433 c 128,-1,45
 256 407 256 407 345 358 c 2,46,-1
 401 327 l 2,47,48
 471 289 471 289 502.5 255.5 c 128,-1,49
 534 222 534 222 534 185 c 0,0,1
384 290 m 2,50,-1
 320 326 l 2,51,52
 236 372 236 372 201 403 c 1,53,54
 195 402 195 402 183 402 c 0,55,56
 151 402 151 402 130 389 c 128,-1,57
 109 376 109 376 109 357 c 0,58,59
 109 314 109 314 234 243 c 2,60,-1
 296 208 l 2,61,62
 376 163 376 163 400 139 c 1,63,64
 404 141 404 141 418 142 c 0,65,66
 452 143 452 143 471.5 154 c 128,-1,67
 491 165 491 165 491 184 c 0,68,69
 491 206 491 206 462 235 c 128,-1,70
 433 264 433 264 384 290 c 2,50,-1
EndSplineSet
EndChar

StartChar: dieresis
Encoding: 168 168 106
Width: 600
GlyphClass: 2
Flags: W
LayerCount: 2
Fore
SplineSet
190 611 m 0,0,1
 211 611 211 611 225.5 596 c 128,-1,2
 240 581 240 581 240 560 c 0,3,4
 240 540 240 540 225 525.5 c 128,-1,5
 210 511 210 511 190 511 c 128,-1,6
 170 511 170 511 155 526 c 128,-1,7
 140 541 140 541 140 561 c 128,-1,8
 140 581 140 581 155 596 c 128,-1,9
 170 611 170 611 190 611 c 0,0,1
411 611 m 0,10,11
 432 611 432 611 446.5 596 c 128,-1,12
 461 581 461 581 461 560 c 0,13,14
 461 540 461 540 446 525.5 c 128,-1,15
 431 511 431 511 411 511 c 128,-1,16
 391 511 391 511 376 526 c 128,-1,17
 361 541 361 541 361 561 c 128,-1,18
 361 581 361 581 376 596 c 128,-1,19
 391 611 391 611 411 611 c 0,10,11
EndSplineSet
EndChar

StartChar: copyright
Encoding: 169 169 107
Width: 600
GlyphClass: 2
Flags: W
LayerCount: 2
Fore
SplineSet
153 260 m 2,0,-1
 153 305 l 2,1,2
 153 365 153 365 194 407.5 c 128,-1,3
 235 450 235 450 292 450 c 0,4,5
 335 450 335 450 381 421 c 1,6,7
 381 443 381 443 399 443 c 128,-1,8
 417 443 417 443 417 423 c 2,9,-1
 417 358 l 2,10,11
 417 338 417 338 399 338 c 0,12,13
 384 338 384 338 381 357 c 0,14,15
 379 380 379 380 353 397 c 128,-1,16
 327 414 327 414 293 414 c 0,17,18
 250 414 250 414 219.5 381.5 c 128,-1,19
 189 349 189 349 189 302 c 2,20,-1
 189 263 l 2,21,22
 189 216 189 216 222.5 181.5 c 128,-1,23
 256 147 256 147 302 147 c 0,24,25
 352 147 352 147 392 194 c 0,26,27
 399 202 399 202 408 202 c 0,28,29
 415 202 415 202 420 197 c 128,-1,30
 425 192 425 192 425 185 c 0,31,32
 425 172 425 172 402 152 c 0,33,34
 358 111 358 111 302 111 c 0,35,36
 243 111 243 111 198 156 c 128,-1,37
 153 201 153 201 153 260 c 2,0,-1
300 578 m 0,38,39
 422 578 422 578 509 491 c 128,-1,40
 596 404 596 404 596 282 c 0,41,42
 596 157 596 157 509 71 c 128,-1,43
 422 -15 422 -15 296 -15 c 0,44,45
 176 -15 176 -15 89.5 72.5 c 128,-1,46
 3 160 3 160 3 282 c 128,-1,47
 3 404 3 404 90 491 c 128,-1,48
 177 578 177 578 300 578 c 0,38,39
300 537 m 0,49,50
 194 537 194 537 119 462.5 c 128,-1,51
 44 388 44 388 44 282 c 0,52,53
 44 177 44 177 118.5 101.5 c 128,-1,54
 193 26 193 26 296 26 c 0,55,56
 405 26 405 26 480 100.5 c 128,-1,57
 555 175 555 175 555 282 c 0,58,59
 555 387 555 387 480 462 c 128,-1,60
 405 537 405 537 300 537 c 0,49,50
EndSplineSet
EndChar

StartChar: ordfeminine
Encoding: 170 170 108
Width: 600
GlyphClass: 2
Flags: W
LayerCount: 2
Fore
SplineSet
361 282 m 1,0,-1
 361 308 l 1,1,2
 307 279 307 279 254 279 c 0,3,4
 210 279 210 279 182.5 301 c 128,-1,5
 155 323 155 323 155 358 c 0,6,7
 155 401 155 401 192.5 428 c 128,-1,8
 230 455 230 455 288 455 c 0,9,10
 316 455 316 455 361 446 c 1,11,-1
 361 490 l 2,12,13
 361 511 361 511 343 524 c 128,-1,14
 325 537 325 537 296 537 c 0,15,16
 268 537 268 537 220 518 c 0,17,18
 212 514 212 514 206 514 c 0,19,20
 199 514 199 514 194 519.5 c 128,-1,21
 189 525 189 525 189 533 c 0,22,23
 189 545 189 545 203 552 c 0,24,25
 258 574 258 574 298 574 c 0,26,27
 342 574 342 574 370 550.5 c 128,-1,28
 398 527 398 527 398 490 c 2,29,-1
 398 319 l 1,30,-1
 424 319 l 2,31,32
 447 319 447 319 447 300 c 0,33,34
 447 282 447 282 424 282 c 2,35,-1
 361 282 l 1,0,-1
361 350 m 1,36,-1
 361 409 l 1,37,38
 332 420 332 420 290 420 c 0,39,40
 247 420 247 420 219.5 402 c 128,-1,41
 192 384 192 384 192 356 c 0,42,43
 192 338 192 338 209 327 c 128,-1,44
 226 316 226 316 254 316 c 0,45,46
 309 316 309 316 361 350 c 1,36,-1
EndSplineSet
EndChar

StartChar: guillemotleft
Encoding: 171 171 109
Width: 600
GlyphClass: 2
Flags: W
LayerCount: 2
Fore
SplineSet
63 209 m 1,0,-1
 271 406 l 2,1,2
 282 417 282 417 292 417 c 0,3,4
 300 417 300 417 306 411 c 128,-1,5
 312 405 312 405 312 397 c 128,-1,6
 312 389 312 389 301 377 c 2,7,-1
 158 209 l 1,8,-1
 301 40 l 2,9,10
 312 28 312 28 312 20 c 128,-1,11
 312 12 312 12 306 6 c 128,-1,12
 300 0 300 0 292 0 c 128,-1,13
 284 0 284 0 271 11 c 2,14,-1
 63 209 l 1,0,-1
292 209 m 1,15,-1
 500 406 l 2,16,17
 511 417 511 417 521 417 c 0,18,19
 529 417 529 417 535 411 c 128,-1,20
 541 405 541 405 541 397 c 128,-1,21
 541 389 541 389 530 377 c 2,22,-1
 387 209 l 1,23,-1
 530 40 l 2,24,25
 541 28 541 28 541 20 c 128,-1,26
 541 12 541 12 535 6 c 128,-1,27
 529 0 529 0 521 0 c 128,-1,28
 513 0 513 0 500 11 c 2,29,-1
 292 209 l 1,15,-1
EndSplineSet
EndChar

StartChar: logicalnot
Encoding: 172 172 110
Width: 600
GlyphClass: 2
Flags: W
LayerCount: 2
Fore
SplineSet
487 397 m 1,0,-1
 99 397 l 2,1,2
 72 397 72 397 72 418 c 0,3,4
 72 438 72 438 99 438 c 2,5,-1
 528 438 l 1,6,-1
 528 195 l 2,7,8
 528 168 528 168 507 168 c 0,9,10
 487 168 487 168 487 195 c 2,11,-1
 487 397 l 1,0,-1
EndSplineSet
EndChar

StartChar: registered
Encoding: 174 174 112
Width: 600
GlyphClass: 2
Flags: W
LayerCount: 2
Fore
SplineSet
233 258 m 1,0,-1
 233 156 l 1,1,-1
 269 156 l 2,2,3
 289 156 289 156 289 138 c 128,-1,4
 289 120 289 120 269 120 c 2,5,-1
 173 120 l 2,6,7
 152 120 152 120 152 138 c 128,-1,8
 152 156 152 156 173 156 c 2,9,-1
 197 156 l 1,10,-1
 197 407 l 1,11,-1
 173 407 l 2,12,13
 152 407 152 407 152 425 c 128,-1,14
 152 443 152 443 173 443 c 2,15,-1
 311 443 l 2,16,17
 357 443 357 443 386.5 417 c 128,-1,18
 416 391 416 391 416 350 c 0,19,20
 416 322 416 322 397 300 c 128,-1,21
 378 278 378 278 346 269 c 1,22,23
 371 250 371 250 385.5 230 c 128,-1,24
 400 210 400 210 431 156 c 1,25,-1
 446 156 l 2,26,27
 466 156 466 156 466 138 c 128,-1,28
 466 120 466 120 446 120 c 2,29,-1
 407 120 l 1,30,31
 350 239 350 239 296 258 c 1,32,-1
 233 258 l 1,0,-1
233 294 m 1,33,-1
 289 294 l 2,34,35
 331 294 331 294 355.5 309.5 c 128,-1,36
 380 325 380 325 380 352 c 0,37,38
 380 376 380 376 360.5 391.5 c 128,-1,39
 341 407 341 407 310 407 c 2,40,-1
 233 407 l 1,41,-1
 233 294 l 1,33,-1
300 578 m 0,42,43
 422 578 422 578 509 491 c 128,-1,44
 596 404 596 404 596 282 c 0,45,46
 596 157 596 157 509 71 c 128,-1,47
 422 -15 422 -15 296 -15 c 0,48,49
 176 -15 176 -15 89.5 72.5 c 128,-1,50
 3 160 3 160 3 282 c 128,-1,51
 3 404 3 404 90 491 c 128,-1,52
 177 578 177 578 300 578 c 0,42,43
300 537 m 0,53,54
 194 537 194 537 119 462.5 c 128,-1,55
 44 388 44 388 44 282 c 0,56,57
 44 177 44 177 118.5 101.5 c 128,-1,58
 193 26 193 26 296 26 c 0,59,60
 405 26 405 26 480 100.5 c 128,-1,61
 555 175 555 175 555 282 c 0,62,63
 555 387 555 387 480 462 c 128,-1,64
 405 537 405 537 300 537 c 0,53,54
EndSplineSet
EndChar

StartChar: macron
Encoding: 175 175 113
Width: 600
GlyphClass: 2
Flags: W
LayerCount: 2
Fore
SplineSet
418 536 m 2,0,-1
 182 536 l 2,1,2
 155 536 155 536 155 556 c 128,-1,3
 155 576 155 576 182 576 c 2,4,-1
 418 576 l 2,5,6
 445 576 445 576 445 556 c 128,-1,7
 445 536 445 536 418 536 c 2,0,-1
EndSplineSet
EndChar

StartChar: degree
Encoding: 176 176 114
Width: 600
GlyphClass: 2
Flags: W
LayerCount: 2
Fore
SplineSet
300 636 m 0,0,1
 360 636 360 636 402.5 593.5 c 128,-1,2
 445 551 445 551 445 491 c 128,-1,3
 445 431 445 431 402.5 388.5 c 128,-1,4
 360 346 360 346 300 346 c 0,5,6
 239 346 239 346 197 388.5 c 128,-1,7
 155 431 155 431 155 493 c 0,8,9
 155 551 155 551 198 593.5 c 128,-1,10
 241 636 241 636 300 636 c 0,0,1
300 595 m 128,-1,12
 257 595 257 595 226.5 564.5 c 128,-1,13
 196 534 196 534 196 492 c 0,14,15
 196 448 196 448 226.5 417.5 c 128,-1,16
 257 387 257 387 300 387 c 128,-1,17
 343 387 343 387 373.5 417.5 c 128,-1,18
 404 448 404 448 404 491 c 128,-1,19
 404 534 404 534 373.5 564.5 c 128,-1,11
 343 595 343 595 300 595 c 128,-1,12
EndSplineSet
EndChar

StartChar: plusminus
Encoding: 177 177 115
Width: 600
GlyphClass: 2
Flags: W
LayerCount: 2
Fore
SplineSet
320 301 m 1,0,-1
 320 139 l 2,1,2
 320 112 320 112 300 112 c 0,3,4
 279 112 279 112 279 139 c 2,5,-1
 279 301 l 1,6,-1
 99 301 l 2,7,8
 72 301 72 301 72 321 c 128,-1,9
 72 341 72 341 99 341 c 2,10,-1
 279 341 l 1,11,-1
 279 502 l 2,12,13
 279 529 279 529 300 529 c 0,14,15
 320 529 320 529 320 502 c 2,16,-1
 320 341 l 1,17,-1
 500 341 l 2,18,19
 528 341 528 341 528 321 c 128,-1,20
 528 301 528 301 500 301 c 2,21,-1
 320 301 l 1,0,-1
99 40 m 2,22,-1
 501 40 l 2,23,24
 528 40 528 40 528 20 c 128,-1,25
 528 0 528 0 501 0 c 2,26,-1
 99 0 l 2,27,28
 72 0 72 0 72 20 c 128,-1,29
 72 40 72 40 99 40 c 2,22,-1
EndSplineSet
EndChar

StartChar: twosuperior
Encoding: 178 178 116
Width: 600
GlyphClass: 2
Flags: W
LayerCount: 2
Fore
SplineSet
219 295 m 1,0,-1
 369 295 l 1,1,-1
 369 298 l 2,2,3
 369 318 369 318 387 318 c 128,-1,4
 405 318 405 318 405 298 c 2,5,-1
 405 259 l 1,6,-1
 175 259 l 1,7,-1
 175 302 l 1,8,-1
 307 425 l 2,9,10
 345 463 345 463 356 479 c 128,-1,11
 367 495 367 495 367 511 c 0,12,13
 367 537 367 537 345.5 556.5 c 128,-1,14
 324 576 324 576 295 576 c 0,15,16
 269 576 269 576 248.5 561.5 c 128,-1,17
 228 547 228 547 221 524 c 0,18,19
 217 508 217 508 203 508 c 0,20,21
 196 508 196 508 191 513 c 128,-1,22
 186 518 186 518 186 525 c 0,23,24
 186 544 186 544 205 568 c 0,25,26
 240 612 240 612 295 612 c 0,27,28
 338 612 338 612 370.5 582 c 128,-1,29
 403 552 403 552 403 511 c 0,30,31
 403 479 403 479 373.5 444.5 c 128,-1,32
 344 410 344 410 219 295 c 1,0,-1
EndSplineSet
EndChar

StartChar: threesuperior
Encoding: 179 179 117
Width: 600
GlyphClass: 2
Flags: W
LayerCount: 2
Fore
SplineSet
358 446 m 1,0,1
 416 410 416 410 416 358 c 0,2,3
 416 314 416 314 380.5 282.5 c 128,-1,4
 345 251 345 251 295 251 c 0,5,6
 258 251 258 251 219.5 269 c 128,-1,7
 181 287 181 287 181 304 c 0,8,9
 181 311 181 311 186 316 c 128,-1,10
 191 321 191 321 198 321 c 128,-1,11
 205 321 205 321 211 316 c 0,12,13
 252 287 252 287 295 287 c 0,14,15
 329 287 329 287 354.5 308 c 128,-1,16
 380 329 380 329 380 358 c 0,17,18
 380 388 380 388 354 409 c 128,-1,19
 328 430 328 430 288 431 c 0,20,21
 267 433 267 433 267 449 c 0,22,23
 267 459 267 459 276 465 c 0,24,25
 279 467 279 467 304 467 c 0,26,27
 332 467 332 467 350 482 c 128,-1,28
 368 497 368 497 368 520 c 0,29,30
 368 544 368 544 348.5 560 c 128,-1,31
 329 576 329 576 300 576 c 0,32,33
 255 576 255 576 231 549 c 0,34,35
 224 539 224 539 215 539 c 0,36,37
 208 539 208 539 202.5 544 c 128,-1,38
 197 549 197 549 197 556 c 0,39,40
 197 575 197 575 231.5 593.5 c 128,-1,41
 266 612 266 612 300 612 c 0,42,43
 344 612 344 612 374 585.5 c 128,-1,44
 404 559 404 559 404 520 c 0,45,46
 404 477 404 477 358 446 c 1,0,1
EndSplineSet
EndChar

StartChar: acute
Encoding: 180 180 118
Width: 600
GlyphClass: 2
Flags: W
LayerCount: 2
Fore
SplineSet
433 599 m 2,0,-1
 319 499 l 2,1,2
 307 490 307 490 300 490 c 0,3,4
 292 490 292 490 286 496 c 128,-1,5
 280 502 280 502 280 511 c 0,6,7
 280 519 280 519 292 530 c 2,8,-1
 406 630 l 2,9,10
 418 639 418 639 425 639 c 0,11,12
 433 639 433 639 439 633 c 128,-1,13
 445 627 445 627 445 618 c 0,14,15
 445 610 445 610 433 599 c 2,0,-1
EndSplineSet
EndChar

StartChar: mu
Encoding: 181 181 119
Width: 600
GlyphClass: 2
Flags: W
LayerCount: 2
Fore
SplineSet
165 16 m 1,0,-1
 165 -173 l 2,1,2
 165 -200 165 -200 144 -200 c 0,3,4
 124 -200 124 -200 124 -173 c 2,5,-1
 124 377 l 1,6,-1
 70 377 l 2,7,8
 43 377 43 377 43 397 c 128,-1,9
 43 417 43 417 70 417 c 2,10,-1
 165 417 l 1,11,-1
 165 115 l 2,12,13
 165 74 165 74 190.5 49 c 128,-1,14
 216 24 216 24 256 24 c 0,15,16
 357 24 357 24 439 115 c 1,17,-1
 439 377 l 1,18,-1
 365 377 l 2,19,20
 337 377 337 377 337 397 c 128,-1,21
 337 417 337 417 365 417 c 2,22,-1
 480 417 l 1,23,-1
 480 40 l 1,24,-1
 514 40 l 2,25,26
 541 40 541 40 541 20 c 128,-1,27
 541 0 541 0 514 0 c 2,28,-1
 439 0 l 1,29,-1
 439 59 l 1,30,31
 359 -16 359 -16 258 -16 c 0,32,33
 201 -16 201 -16 165 16 c 1,0,-1
EndSplineSet
EndChar

StartChar: paragraph
Encoding: 182 182 120
Width: 600
GlyphClass: 2
Flags: W
LayerCount: 2
Fore
SplineSet
437 563 m 1,0,-1
 437 -21 l 1,1,-1
 499 -21 l 2,2,3
 525 -21 525 -21 525 -41 c 0,4,5
 525 -62 525 -62 499 -62 c 2,6,-1
 401 -62 l 2,7,8
 376 -62 376 -62 376 -41 c 0,9,10
 376 -23 376 -23 397 -21 c 1,11,-1
 397 563 l 1,12,-1
 325 563 l 1,13,-1
 325 -21 l 1,14,15
 346 -23 346 -23 346 -41 c 0,16,17
 346 -62 346 -62 321 -62 c 2,18,-1
 187 -62 l 2,19,20
 161 -62 161 -62 161 -41 c 0,21,22
 161 -21 161 -21 187 -21 c 2,23,-1
 284 -21 l 1,24,-1
 284 260 l 1,25,26
 219 264 219 264 173 284 c 0,27,28
 130 303 130 303 104.5 336 c 128,-1,29
 79 369 79 369 79 406 c 2,30,-1
 79 453 l 2,31,32
 79 520 79 520 139.5 562 c 128,-1,33
 200 604 200 604 298 604 c 2,34,-1
 498 604 l 2,35,36
 523 604 523 604 523 584 c 0,37,38
 523 563 523 563 498 563 c 2,39,-1
 437 563 l 1,0,-1
284 307 m 1,40,-1
 284 558 l 1,41,42
 226 552 226 552 187.5 521.5 c 128,-1,43
 149 491 149 491 149 451 c 2,44,-1
 149 414 l 2,45,46
 149 374 149 374 187.5 343.5 c 128,-1,47
 226 313 226 313 284 307 c 1,40,-1
EndSplineSet
EndChar

StartChar: periodcentered
Encoding: 183 183 121
Width: 600
GlyphClass: 2
Flags: W
LayerCount: 2
Fore
SplineSet
295 348 m 2,0,-1
 305 348 l 2,1,2
 334 348 334 348 354 329.5 c 128,-1,3
 374 311 374 311 374 283 c 128,-1,4
 374 255 374 255 354 236 c 128,-1,5
 334 217 334 217 305 217 c 2,6,-1
 295 217 l 2,7,8
 266 217 266 217 246 236 c 128,-1,9
 226 255 226 255 226 283 c 128,-1,10
 226 311 226 311 246 329.5 c 128,-1,11
 266 348 266 348 295 348 c 2,0,-1
EndSplineSet
EndChar

StartChar: cedilla
Encoding: 184 184 122
Width: 600
GlyphClass: 2
Flags: W
LayerCount: 2
Fore
SplineSet
298 -173 m 0,0,1
 273 -173 273 -173 241.5 -162 c 128,-1,2
 210 -151 210 -151 210 -133 c 0,3,4
 210 -125 210 -125 216 -119.5 c 128,-1,5
 222 -114 222 -114 230 -114 c 0,6,7
 235 -114 235 -114 245 -119 c 0,8,9
 274 -135 274 -135 296 -135 c 0,10,11
 315 -135 315 -135 327.5 -127 c 128,-1,12
 340 -119 340 -119 340 -106 c 0,13,14
 340 -81 340 -81 294 -81 c 2,15,-1
 274 -81 l 1,16,-1
 274 0 l 1,17,-1
 312 0 l 1,18,-1
 312 -47 l 1,19,20
 377 -49 377 -49 377 -108 c 0,21,22
 377 -137 377 -137 355 -155 c 128,-1,23
 333 -173 333 -173 298 -173 c 0,0,1
EndSplineSet
EndChar

StartChar: onesuperior
Encoding: 185 185 123
Width: 600
GlyphClass: 2
Flags: W
LayerCount: 2
Fore
SplineSet
319 612 m 1,0,-1
 319 295 l 1,1,-1
 390 295 l 2,2,3
 410 295 410 295 410 277 c 128,-1,4
 410 259 410 259 390 259 c 2,5,-1
 212 259 l 2,6,7
 191 259 191 259 191 277 c 0,8,9
 191 296 191 296 222 296 c 0,10,11
 261 296 261 296 283 295 c 1,12,-1
 283 563 l 1,13,-1
 218 542 l 2,14,15
 210 540 210 540 209 540 c 0,16,17
 203 540 203 540 197.5 545.5 c 128,-1,18
 192 551 192 551 192 558 c 0,19,20
 192 569 192 569 208 576 c 128,-1,21
 224 583 224 583 319 612 c 1,0,-1
EndSplineSet
EndChar

StartChar: ordmasculine
Encoding: 186 186 124
Width: 600
GlyphClass: 2
Flags: W
LayerCount: 2
Fore
SplineSet
301 577 m 0,0,1
 363 577 363 577 405.5 534 c 128,-1,2
 448 491 448 491 448 429 c 0,3,4
 448 370 448 370 404.5 327 c 128,-1,5
 361 284 361 284 301 284 c 0,6,7
 240 284 240 284 197 327 c 128,-1,8
 154 370 154 370 154 431 c 0,9,10
 154 491 154 491 197 534 c 128,-1,11
 240 577 240 577 301 577 c 0,0,1
301 540 m 128,-1,13
 255 540 255 540 223 508 c 128,-1,14
 191 476 191 476 191 431 c 0,15,16
 191 385 191 385 223.5 353 c 128,-1,17
 256 321 256 321 301 321 c 128,-1,18
 346 321 346 321 378.5 353 c 128,-1,19
 411 385 411 385 411 429 c 0,20,21
 411 476 411 476 379 508 c 128,-1,12
 347 540 347 540 301 540 c 128,-1,13
EndSplineSet
EndChar

StartChar: guillemotright
Encoding: 187 187 125
Width: 600
GlyphClass: 2
Flags: W
LayerCount: 2
Fore
SplineSet
311 208 m 1,0,-1
 104 11 l 2,1,2
 93 0 93 0 83 0 c 0,3,4
 75 0 75 0 69 6 c 128,-1,5
 63 12 63 12 63 20 c 128,-1,6
 63 28 63 28 74 40 c 2,7,-1
 216 208 l 1,8,-1
 74 377 l 2,9,10
 63 389 63 389 63 397 c 128,-1,11
 63 405 63 405 69 411 c 128,-1,12
 75 417 75 417 83 417 c 128,-1,13
 91 417 91 417 104 406 c 2,14,-1
 311 208 l 1,0,-1
541 208 m 1,15,-1
 334 11 l 2,16,17
 323 0 323 0 313 0 c 0,18,19
 305 0 305 0 299 6 c 128,-1,20
 293 12 293 12 293 20 c 128,-1,21
 293 28 293 28 304 40 c 2,22,-1
 446 208 l 1,23,-1
 304 377 l 2,24,25
 293 389 293 389 293 397 c 128,-1,26
 293 405 293 405 299 411 c 128,-1,27
 305 417 305 417 313 417 c 128,-1,28
 321 417 321 417 334 406 c 2,29,-1
 541 208 l 1,15,-1
EndSplineSet
EndChar

StartChar: onequarter
Encoding: 188 188 126
Width: 600
GlyphClass: 2
Flags: W
LayerCount: 2
Fore
SplineSet
144 612 m 1,0,-1
 144 295 l 1,1,-1
 215 295 l 2,2,3
 236 295 236 295 236 277 c 128,-1,4
 236 259 236 259 215 259 c 2,5,-1
 37 259 l 2,6,7
 16 259 16 259 16 277 c 0,8,9
 16 296 16 296 47 296 c 0,10,11
 86 296 86 296 108 295 c 1,12,-1
 108 563 l 1,13,-1
 43 542 l 2,14,15
 35 540 35 540 34 540 c 0,16,17
 28 540 28 540 22.5 545.5 c 128,-1,18
 17 551 17 551 17 558 c 0,19,20
 17 569 17 569 33 576 c 128,-1,21
 49 583 49 583 144 612 c 1,0,-1
492 477 m 2,22,-1
 141 63 l 2,23,24
 131 51 131 51 123 51 c 128,-1,25
 115 51 115 51 109 57 c 128,-1,26
 103 63 103 63 103 71 c 0,27,28
 103 78 103 78 112 88 c 2,29,-1
 462 502 l 2,30,31
 473 514 473 514 480 514 c 0,32,33
 488 514 488 514 494 508 c 128,-1,34
 500 502 500 502 500 494 c 0,35,36
 500 489 500 489 492 477 c 2,22,-1
510 93 m 1,37,-1
 361 93 l 1,38,-1
 361 127 l 1,39,-1
 489 345 l 1,40,-1
 546 345 l 1,41,-1
 546 129 l 1,42,-1
 559 129 l 2,43,44
 580 129 580 129 580 111 c 128,-1,45
 580 93 580 93 555 93 c 2,46,-1
 546 93 l 1,47,-1
 546 36 l 1,48,-1
 559 36 l 2,49,50
 580 36 580 36 580 18 c 128,-1,51
 580 0 580 0 559 0 c 2,52,-1
 474 0 l 2,53,54
 453 0 453 0 453 18 c 0,55,56
 453 30 453 30 464 35 c 0,57,58
 469 36 469 36 510 36 c 1,59,-1
 510 93 l 1,37,-1
510 129 m 1,60,-1
 510 309 l 1,61,-1
 508 309 l 1,62,-1
 401 129 l 1,63,-1
 510 129 l 1,60,-1
EndSplineSet
EndChar

StartChar: onehalf
Encoding: 189 189 127
Width: 600
GlyphClass: 2
Flags: W
LayerCount: 2
Fore
SplineSet
485 477 m 2,0,-1
 134 63 l 2,1,2
 124 51 124 51 116 51 c 128,-1,3
 108 51 108 51 102 57 c 128,-1,4
 96 63 96 63 96 71 c 0,5,6
 96 78 96 78 105 88 c 2,7,-1
 455 502 l 2,8,9
 466 514 466 514 473 514 c 0,10,11
 481 514 481 514 487 508 c 128,-1,12
 493 502 493 502 493 494 c 0,13,14
 493 489 493 489 485 477 c 2,0,-1
151 612 m 1,15,-1
 151 295 l 1,16,-1
 222 295 l 2,17,18
 242 295 242 295 242 277 c 128,-1,19
 242 259 242 259 222 259 c 2,20,-1
 44 259 l 2,21,22
 23 259 23 259 23 277 c 0,23,24
 23 296 23 296 54 296 c 0,25,26
 93 296 93 296 115 295 c 1,27,-1
 115 563 l 1,28,-1
 50 542 l 2,29,30
 42 540 42 540 41 540 c 0,31,32
 35 540 35 540 29.5 545.5 c 128,-1,33
 24 551 24 551 24 558 c 0,34,35
 24 569 24 569 40 576 c 128,-1,36
 56 583 56 583 151 612 c 1,15,-1
387 36 m 1,37,-1
 537 36 l 1,38,-1
 537 39 l 2,39,40
 537 59 537 59 555 59 c 128,-1,41
 573 59 573 59 573 39 c 2,42,-1
 573 0 l 1,43,-1
 343 0 l 1,44,-1
 343 43 l 1,45,-1
 475 166 l 2,46,47
 513 204 513 204 524 220 c 128,-1,48
 535 236 535 236 535 252 c 0,49,50
 535 278 535 278 513.5 297.5 c 128,-1,51
 492 317 492 317 463 317 c 0,52,53
 437 317 437 317 416.5 302.5 c 128,-1,54
 396 288 396 288 389 265 c 0,55,56
 385 249 385 249 371 249 c 0,57,58
 364 249 364 249 359 254 c 128,-1,59
 354 259 354 259 354 266 c 0,60,61
 354 285 354 285 373 309 c 0,62,63
 408 353 408 353 463 353 c 0,64,65
 506 353 506 353 538.5 323 c 128,-1,66
 571 293 571 293 571 252 c 0,67,68
 571 220 571 220 541.5 185.5 c 128,-1,69
 512 151 512 151 387 36 c 1,37,-1
EndSplineSet
EndChar

StartChar: threequarters
Encoding: 190 190 128
Width: 600
GlyphClass: 2
Flags: W
LayerCount: 2
Fore
SplineSet
183 446 m 1,0,1
 241 410 241 410 241 358 c 0,2,3
 241 314 241 314 205.5 282.5 c 128,-1,4
 170 251 170 251 120 251 c 0,5,6
 83 251 83 251 44.5 269 c 128,-1,7
 6 287 6 287 6 304 c 0,8,9
 6 311 6 311 11 316 c 128,-1,10
 16 321 16 321 23 321 c 128,-1,11
 30 321 30 321 36 316 c 0,12,13
 77 287 77 287 120 287 c 0,14,15
 154 287 154 287 179.5 308 c 128,-1,16
 205 329 205 329 205 358 c 0,17,18
 205 388 205 388 179 409 c 128,-1,19
 153 430 153 430 113 431 c 0,20,21
 92 433 92 433 92 449 c 0,22,23
 92 459 92 459 101 465 c 0,24,25
 104 467 104 467 129 467 c 0,26,27
 157 467 157 467 175 482 c 128,-1,28
 193 497 193 497 193 520 c 0,29,30
 193 544 193 544 173.5 560 c 128,-1,31
 154 576 154 576 125 576 c 0,32,33
 80 576 80 576 56 549 c 0,34,35
 48 539 48 539 40 539 c 0,36,37
 33 539 33 539 27.5 544 c 128,-1,38
 22 549 22 549 22 556 c 0,39,40
 22 575 22 575 56.5 593.5 c 128,-1,41
 91 612 91 612 125 612 c 0,42,43
 169 612 169 612 199 585.5 c 128,-1,44
 229 559 229 559 229 520 c 0,45,46
 229 477 229 477 183 446 c 1,0,1
491 477 m 2,47,-1
 140 63 l 2,48,49
 130 51 130 51 122 51 c 128,-1,50
 114 51 114 51 108 57 c 128,-1,51
 102 63 102 63 102 71 c 0,52,53
 102 78 102 78 111 88 c 2,54,-1
 461 502 l 2,55,56
 472 514 472 514 479 514 c 0,57,58
 487 514 487 514 493 508 c 128,-1,59
 499 502 499 502 499 494 c 0,60,61
 499 489 499 489 491 477 c 2,47,-1
510 93 m 1,62,-1
 361 93 l 1,63,-1
 361 127 l 1,64,-1
 489 345 l 1,65,-1
 546 345 l 1,66,-1
 546 129 l 1,67,-1
 559 129 l 2,68,69
 580 129 580 129 580 111 c 128,-1,70
 580 93 580 93 555 93 c 2,71,-1
 546 93 l 1,72,-1
 546 36 l 1,73,-1
 559 36 l 2,74,75
 580 36 580 36 580 18 c 128,-1,76
 580 0 580 0 559 0 c 2,77,-1
 474 0 l 2,78,79
 453 0 453 0 453 18 c 0,80,81
 453 30 453 30 464 35 c 0,82,83
 469 36 469 36 510 36 c 1,84,-1
 510 93 l 1,62,-1
510 129 m 1,85,-1
 510 309 l 1,86,-1
 508 309 l 1,87,-1
 401 129 l 1,88,-1
 510 129 l 1,85,-1
EndSplineSet
EndChar

StartChar: questiondown
Encoding: 191 191 129
Width: 600
GlyphClass: 2
Flags: W
LayerCount: 2
Fore
SplineSet
278 155 m 1,0,-1
 278 196 l 2,1,2
 278 223 278 223 298 223 c 0,3,4
 319 223 319 223 319 196 c 2,5,-1
 319 128 l 1,6,7
 232 92 232 92 193 57 c 128,-1,8
 154 22 154 22 154 -21 c 0,9,10
 154 -71 154 -71 194 -102.5 c 128,-1,11
 234 -134 234 -134 296 -134 c 0,12,13
 356 -134 356 -134 425 -100 c 1,14,-1
 425 -59 l 2,15,16
 425 -32 425 -32 445 -32 c 0,17,18
 466 -32 466 -32 466 -59 c 2,19,-1
 466 -126 l 1,20,21
 460 -129 460 -129 450 -133.5 c 128,-1,22
 440 -138 440 -138 437 -139 c 0,23,24
 356 -175 356 -175 291 -175 c 0,25,26
 211 -175 211 -175 162 -132.5 c 128,-1,27
 113 -90 113 -90 113 -21 c 0,28,29
 113 35 113 35 148.5 73 c 128,-1,30
 184 111 184 111 278 155 c 1,0,-1
313 317 m 2,31,-1
 286 317 l 2,32,33
 261 317 261 317 245 331 c 128,-1,34
 229 345 229 345 229 367 c 128,-1,35
 229 389 229 389 245 403 c 128,-1,36
 261 417 261 417 286 417 c 2,37,-1
 313 417 l 2,38,39
 339 417 339 417 354.5 403 c 128,-1,40
 370 389 370 389 370 367 c 128,-1,41
 370 345 370 345 354.5 331 c 128,-1,42
 339 317 339 317 313 317 c 2,31,-1
EndSplineSet
EndChar

StartChar: Agrave
Encoding: 192 192 130
Width: 600
GlyphClass: 2
Flags: W
LayerCount: 2
Fore
SplineSet
428 188 m 1,0,-1
 162 188 l 1,1,-1
 108 41 l 1,2,-1
 187 41 l 2,3,4
 214 41 214 41 214 21 c 0,5,6
 214 0 214 0 187 0 c 2,7,-1
 36 0 l 2,8,9
 9 0 9 0 9 21 c 0,10,11
 9 41 9 41 36 41 c 2,12,-1
 67 41 l 1,13,-1
 246 522 l 1,14,-1
 126 522 l 2,15,16
 99 522 99 522 99 543 c 0,17,18
 99 563 99 563 126 563 c 2,19,-1
 330 563 l 1,20,-1
 527 41 l 1,21,-1
 564 41 l 2,22,23
 591 41 591 41 591 21 c 0,24,25
 591 0 591 0 564 0 c 2,26,-1
 408 0 l 2,27,28
 381 0 381 0 381 21 c 0,29,30
 381 41 381 41 408 41 c 2,31,-1
 484 41 l 1,32,-1
 428 188 l 1,0,-1
413 229 m 1,33,-1
 301 522 l 1,34,-1
 286 522 l 1,35,-1
 178 229 l 1,36,-1
 413 229 l 1,33,-1
204 780 m 2,37,-1
 318 680 l 1,38,-1
 325 672 l 2,39,40
 330 667 330 667 330 661 c 0,41,42
 330 652 330 652 324 646 c 128,-1,43
 318 640 318 640 309 640 c 0,44,45
 302 640 302 640 291 649 c 2,46,-1
 177 749 l 2,47,48
 165 760 165 760 165 769 c 0,49,50
 165 777 165 777 171 783 c 128,-1,51
 177 789 177 789 185 789 c 0,52,53
 192 789 192 789 204 780 c 2,37,-1
EndSplineSet
EndChar

StartChar: Aacute
Encoding: 193 193 131
Width: 600
GlyphClass: 2
Flags: W
LayerCount: 2
Fore
SplineSet
428 188 m 1,0,-1
 162 188 l 1,1,-1
 108 41 l 1,2,-1
 187 41 l 2,3,4
 214 41 214 41 214 21 c 0,5,6
 214 0 214 0 187 0 c 2,7,-1
 36 0 l 2,8,9
 9 0 9 0 9 21 c 0,10,11
 9 41 9 41 36 41 c 2,12,-1
 67 41 l 1,13,-1
 246 522 l 1,14,-1
 126 522 l 2,15,16
 99 522 99 522 99 543 c 0,17,18
 99 563 99 563 126 563 c 2,19,-1
 330 563 l 1,20,-1
 527 41 l 1,21,-1
 564 41 l 2,22,23
 591 41 591 41 591 21 c 0,24,25
 591 0 591 0 564 0 c 2,26,-1
 408 0 l 2,27,28
 381 0 381 0 381 21 c 0,29,30
 381 41 381 41 408 41 c 2,31,-1
 484 41 l 1,32,-1
 428 188 l 1,0,-1
413 229 m 1,33,-1
 301 522 l 1,34,-1
 286 522 l 1,35,-1
 178 229 l 1,36,-1
 413 229 l 1,33,-1
371 749 m 2,37,-1
 257 649 l 2,38,39
 245 640 245 640 238 640 c 0,40,41
 230 640 230 640 224 646 c 128,-1,42
 218 652 218 652 218 661 c 0,43,44
 218 669 218 669 230 680 c 2,45,-1
 344 780 l 2,46,47
 356 789 356 789 363 789 c 0,48,49
 371 789 371 789 377 783 c 128,-1,50
 383 777 383 777 383 768 c 0,51,52
 383 760 383 760 371 749 c 2,37,-1
EndSplineSet
EndChar

StartChar: Acircumflex
Encoding: 194 194 132
Width: 600
GlyphClass: 2
Flags: W
LayerCount: 2
Fore
SplineSet
428 188 m 1,0,-1
 162 188 l 1,1,-1
 108 41 l 1,2,-1
 187 41 l 2,3,4
 214 41 214 41 214 21 c 0,5,6
 214 0 214 0 187 0 c 2,7,-1
 36 0 l 2,8,9
 9 0 9 0 9 21 c 0,10,11
 9 41 9 41 36 41 c 2,12,-1
 67 41 l 1,13,-1
 246 522 l 1,14,-1
 126 522 l 2,15,16
 99 522 99 522 99 543 c 0,17,18
 99 563 99 563 126 563 c 2,19,-1
 330 563 l 1,20,-1
 527 41 l 1,21,-1
 564 41 l 2,22,23
 591 41 591 41 591 21 c 0,24,25
 591 0 591 0 564 0 c 2,26,-1
 408 0 l 2,27,28
 381 0 381 0 381 21 c 0,29,30
 381 41 381 41 408 41 c 2,31,-1
 484 41 l 1,32,-1
 428 188 l 1,0,-1
413 229 m 1,33,-1
 301 522 l 1,34,-1
 286 522 l 1,35,-1
 178 229 l 1,36,-1
 413 229 l 1,33,-1
273 789 m 1,37,-1
 405 681 l 2,38,39
 418 670 418 670 418 660 c 0,40,41
 418 652 418 652 412 646 c 128,-1,42
 406 640 406 640 398 640 c 0,43,44
 391 640 391 640 380 648 c 2,45,-1
 273 736 l 1,46,-1
 166 648 l 2,47,48
 155 640 155 640 148 640 c 0,49,50
 140 640 140 640 134 646 c 128,-1,51
 128 652 128 652 128 660 c 0,52,53
 128 671 128 671 141 680 c 2,54,-1
 273 789 l 1,37,-1
EndSplineSet
EndChar

StartChar: Atilde
Encoding: 195 195 133
Width: 600
GlyphClass: 2
Flags: W
LayerCount: 2
Fore
SplineSet
428 188 m 1,0,-1
 162 188 l 1,1,-1
 108 41 l 1,2,-1
 187 41 l 2,3,4
 214 41 214 41 214 21 c 0,5,6
 214 0 214 0 187 0 c 2,7,-1
 36 0 l 2,8,9
 9 0 9 0 9 21 c 0,10,11
 9 41 9 41 36 41 c 2,12,-1
 67 41 l 1,13,-1
 246 522 l 1,14,-1
 126 522 l 2,15,16
 99 522 99 522 99 543 c 0,17,18
 99 563 99 563 126 563 c 2,19,-1
 330 563 l 1,20,-1
 527 41 l 1,21,-1
 564 41 l 2,22,23
 591 41 591 41 591 21 c 0,24,25
 591 0 591 0 564 0 c 2,26,-1
 408 0 l 2,27,28
 381 0 381 0 381 21 c 0,29,30
 381 41 381 41 408 41 c 2,31,-1
 484 41 l 1,32,-1
 428 188 l 1,0,-1
413 229 m 1,33,-1
 301 522 l 1,34,-1
 286 522 l 1,35,-1
 178 229 l 1,36,-1
 413 229 l 1,33,-1
408 753 m 128,-1,38
 416 753 416 753 422 747 c 128,-1,39
 428 741 428 741 428 733 c 0,40,41
 428 723 428 723 406 702 c 0,42,43
 370 666 370 666 337 666 c 0,44,45
 308 666 308 666 256 697 c 0,46,47
 230 714 230 714 213 714 c 0,48,49
 198 714 198 714 187.5 707 c 128,-1,50
 177 700 177 700 155 677 c 0,51,52
 149 669 149 669 138 669 c 0,53,54
 130 669 130 669 124 674.5 c 128,-1,55
 118 680 118 680 118 688 c 0,56,57
 118 699 118 699 137 718 c 0,58,59
 177 755 177 755 212 755 c 0,60,61
 237 755 237 755 276 732 c 0,62,63
 321 707 321 707 335 707 c 0,64,65
 348 707 348 707 358.5 714.5 c 128,-1,66
 369 722 369 722 392 745 c 0,67,37
 400 753 400 753 408 753 c 128,-1,38
EndSplineSet
EndChar

StartChar: Adieresis
Encoding: 196 196 134
Width: 600
GlyphClass: 2
Flags: W
LayerCount: 2
Fore
SplineSet
428 188 m 1,0,-1
 162 188 l 1,1,-1
 108 41 l 1,2,-1
 187 41 l 2,3,4
 214 41 214 41 214 21 c 0,5,6
 214 0 214 0 187 0 c 2,7,-1
 36 0 l 2,8,9
 9 0 9 0 9 21 c 0,10,11
 9 41 9 41 36 41 c 2,12,-1
 67 41 l 1,13,-1
 246 522 l 1,14,-1
 126 522 l 2,15,16
 99 522 99 522 99 543 c 0,17,18
 99 563 99 563 126 563 c 2,19,-1
 330 563 l 1,20,-1
 527 41 l 1,21,-1
 564 41 l 2,22,23
 591 41 591 41 591 21 c 0,24,25
 591 0 591 0 564 0 c 2,26,-1
 408 0 l 2,27,28
 381 0 381 0 381 21 c 0,29,30
 381 41 381 41 408 41 c 2,31,-1
 484 41 l 1,32,-1
 428 188 l 1,0,-1
413 229 m 1,33,-1
 301 522 l 1,34,-1
 286 522 l 1,35,-1
 178 229 l 1,36,-1
 413 229 l 1,33,-1
162 761 m 0,37,38
 183 761 183 761 197.5 746 c 128,-1,39
 212 731 212 731 212 710 c 0,40,41
 212 690 212 690 197 675.5 c 128,-1,42
 182 661 182 661 162 661 c 128,-1,43
 142 661 142 661 127 676 c 128,-1,44
 112 691 112 691 112 711 c 128,-1,45
 112 731 112 731 127 746 c 128,-1,46
 142 761 142 761 162 761 c 0,37,38
383 761 m 0,47,48
 404 761 404 761 418.5 746 c 128,-1,49
 433 731 433 731 433 710 c 0,50,51
 433 690 433 690 418 675.5 c 128,-1,52
 403 661 403 661 383 661 c 128,-1,53
 363 661 363 661 348 676 c 128,-1,54
 333 691 333 691 333 711 c 128,-1,55
 333 731 333 731 348 746 c 128,-1,56
 363 761 363 761 383 761 c 0,47,48
EndSplineSet
EndChar

StartChar: Aring
Encoding: 197 197 135
Width: 600
GlyphClass: 2
Flags: W
LayerCount: 2
Fore
SplineSet
428 188 m 1,0,-1
 162 188 l 1,1,-1
 108 41 l 1,2,-1
 187 41 l 2,3,4
 214 41 214 41 214 21 c 0,5,6
 214 0 214 0 187 0 c 2,7,-1
 36 0 l 2,8,9
 9 0 9 0 9 21 c 0,10,11
 9 41 9 41 36 41 c 2,12,-1
 67 41 l 1,13,-1
 246 522 l 1,14,-1
 126 522 l 2,15,16
 99 522 99 522 99 543 c 0,17,18
 99 563 99 563 126 563 c 2,19,-1
 330 563 l 1,20,-1
 527 41 l 1,21,-1
 564 41 l 2,22,23
 591 41 591 41 591 21 c 0,24,25
 591 0 591 0 564 0 c 2,26,-1
 408 0 l 2,27,28
 381 0 381 0 381 21 c 0,29,30
 381 41 381 41 408 41 c 2,31,-1
 484 41 l 1,32,-1
 428 188 l 1,0,-1
413 229 m 1,33,-1
 301 522 l 1,34,-1
 286 522 l 1,35,-1
 178 229 l 1,36,-1
 413 229 l 1,33,-1
277 811 m 0,37,38
 316 811 316 811 343 784.5 c 128,-1,39
 370 758 370 758 370 719 c 0,40,41
 370 683 370 683 342.5 656.5 c 128,-1,42
 315 630 315 630 277 630 c 128,-1,43
 239 630 239 630 211.5 657 c 128,-1,44
 184 684 184 684 184 721 c 128,-1,45
 184 758 184 758 211.5 784.5 c 128,-1,46
 239 811 239 811 277 811 c 0,37,38
277 778 m 128,-1,48
 252 778 252 778 234.5 761 c 128,-1,49
 217 744 217 744 217 721 c 0,50,51
 217 697 217 697 234.5 680 c 128,-1,52
 252 663 252 663 277 663 c 128,-1,53
 302 663 302 663 319.5 680 c 128,-1,54
 337 697 337 697 337 720 c 0,55,56
 337 744 337 744 319.5 761 c 128,-1,47
 302 778 302 778 277 778 c 128,-1,48
EndSplineSet
EndChar

StartChar: AE
Encoding: 198 198 136
Width: 600
GlyphClass: 2
Flags: W
LayerCount: 2
Fore
SplineSet
297 189 m 1,0,-1
 156 189 l 1,1,-1
 115 41 l 1,2,-1
 141 41 l 2,3,4
 168 41 168 41 168 21 c 0,5,6
 168 0 168 0 141 0 c 2,7,-1
 37 0 l 2,8,9
 10 0 10 0 10 21 c 0,10,11
 10 41 10 41 37 41 c 2,12,-1
 74 41 l 1,13,-1
 207 522 l 1,14,-1
 144 522 l 2,15,16
 117 522 117 522 117 543 c 0,17,18
 117 563 117 563 144 563 c 2,19,-1
 570 563 l 1,20,-1
 570 411 l 2,21,22
 570 384 570 384 549 384 c 0,23,24
 529 384 529 384 529 411 c 2,25,-1
 529 522 l 1,26,-1
 338 522 l 1,27,-1
 338 314 l 1,28,-1
 416 314 l 1,29,-1
 416 342 l 2,30,31
 416 369 416 369 436 369 c 128,-1,32
 456 369 456 369 456 342 c 2,33,-1
 456 246 l 2,34,35
 456 219 456 219 436 219 c 128,-1,36
 416 219 416 219 416 246 c 2,37,-1
 416 273 l 1,38,-1
 338 273 l 1,39,-1
 338 41 l 1,40,-1
 549 41 l 1,41,-1
 549 134 l 2,42,43
 549 160 549 160 569 160 c 0,44,45
 590 160 590 160 590 134 c 2,46,-1
 590 0 l 1,47,-1
 245 0 l 2,48,49
 218 0 218 0 218 21 c 0,50,51
 218 41 218 41 245 41 c 2,52,-1
 297 41 l 1,53,-1
 297 189 l 1,0,-1
297 230 m 1,54,-1
 297 522 l 1,55,-1
 247 522 l 1,56,-1
 167 230 l 1,57,-1
 297 230 l 1,54,-1
EndSplineSet
EndChar

StartChar: Ccedilla
Encoding: 199 199 137
Width: 600
GlyphClass: 2
Flags: W
LayerCount: 2
Fore
SplineSet
303 -173 m 0,0,1
 278 -173 278 -173 246.5 -162 c 128,-1,2
 215 -151 215 -151 215 -133 c 0,3,4
 215 -125 215 -125 221 -119.5 c 128,-1,5
 227 -114 227 -114 235 -114 c 0,6,7
 240 -114 240 -114 250 -119 c 0,8,9
 281 -135 281 -135 301 -135 c 0,10,11
 320 -135 320 -135 332.5 -127 c 128,-1,12
 345 -119 345 -119 345 -106 c 0,13,14
 345 -81 345 -81 299 -81 c 2,15,-1
 279 -81 l 1,16,-1
 279 -12 l 1,17,18
 217 3 217 3 183 28 c 0,19,20
 128 66 128 66 95.5 123.5 c 128,-1,21
 63 181 63 181 63 242 c 2,22,-1
 63 325 l 2,23,24
 63 371 63 371 82.5 419.5 c 128,-1,25
 102 468 102 468 134 502 c 0,26,27
 203 576 203 576 305 576 c 0,28,29
 406 576 406 576 478 507 c 1,30,-1
 478 536 l 2,31,32
 478 563 478 563 499 563 c 0,33,34
 519 563 519 563 519 536 c 2,35,-1
 519 424 l 2,36,37
 519 397 519 397 498 397 c 0,38,39
 480 397 480 397 478 421 c 0,40,41
 475 467 475 467 423.5 501 c 128,-1,42
 372 535 372 535 305 535 c 0,43,44
 222 535 222 535 163 471.5 c 128,-1,45
 104 408 104 408 104 319 c 2,46,-1
 104 248 l 2,47,48
 104 158 104 158 169 91.5 c 128,-1,49
 234 25 234 25 322 25 c 0,50,51
 374 25 374 25 415 46 c 128,-1,52
 456 67 456 67 496 115 c 0,53,54
 505 125 505 125 514 125 c 0,55,56
 534 125 534 125 534 106 c 0,57,58
 534 90 534 90 496 55 c 0,59,60
 461 23 461 23 416 3.5 c 128,-1,61
 371 -16 371 -16 330 -16 c 2,62,-1
 317 -16 l 1,63,-1
 317 -47 l 1,64,65
 382 -49 382 -49 382 -108 c 0,66,67
 382 -137 382 -137 360 -155 c 128,-1,68
 338 -173 338 -173 303 -173 c 0,0,1
EndSplineSet
EndChar

StartChar: Egrave
Encoding: 200 200 138
Width: 600
GlyphClass: 2
Flags: W
LayerCount: 2
Fore
SplineSet
165 272 m 1,0,-1
 165 41 l 1,1,-1
 479 41 l 1,2,-1
 479 160 l 2,3,4
 479 187 479 187 500 187 c 0,5,6
 520 187 520 187 520 160 c 2,7,-1
 520 0 l 1,8,-1
 70 0 l 2,9,10
 43 0 43 0 43 21 c 0,11,12
 43 41 43 41 70 41 c 2,13,-1
 124 41 l 1,14,-1
 124 522 l 1,15,-1
 70 522 l 2,16,17
 43 522 43 522 43 543 c 0,18,19
 43 563 43 563 70 563 c 2,20,-1
 499 563 l 1,21,-1
 499 424 l 2,22,23
 499 397 499 397 478 397 c 0,24,25
 458 397 458 397 458 424 c 2,26,-1
 458 522 l 1,27,-1
 165 522 l 1,28,-1
 165 313 l 1,29,-1
 310 313 l 1,30,-1
 310 358 l 2,31,32
 310 385 310 385 331 385 c 0,33,34
 351 385 351 385 351 358 c 2,35,-1
 351 227 l 2,36,37
 351 200 351 200 331 200 c 0,38,39
 310 200 310 200 310 227 c 2,40,-1
 310 272 l 1,41,-1
 165 272 l 1,0,-1
215 780 m 2,42,-1
 329 680 l 1,43,-1
 336 672 l 2,44,45
 341 667 341 667 341 661 c 0,46,47
 341 652 341 652 335 646 c 128,-1,48
 329 640 329 640 320 640 c 0,49,50
 312 640 312 640 302 649 c 2,51,-1
 188 749 l 2,52,53
 176 760 176 760 176 769 c 0,54,55
 176 777 176 777 182 783 c 128,-1,56
 188 789 188 789 196 789 c 0,57,58
 203 789 203 789 215 780 c 2,42,-1
EndSplineSet
EndChar

StartChar: Eacute
Encoding: 201 201 139
Width: 600
GlyphClass: 2
Flags: W
LayerCount: 2
Fore
SplineSet
165 272 m 1,0,-1
 165 41 l 1,1,-1
 479 41 l 1,2,-1
 479 160 l 2,3,4
 479 187 479 187 500 187 c 0,5,6
 520 187 520 187 520 160 c 2,7,-1
 520 0 l 1,8,-1
 70 0 l 2,9,10
 43 0 43 0 43 21 c 0,11,12
 43 41 43 41 70 41 c 2,13,-1
 124 41 l 1,14,-1
 124 522 l 1,15,-1
 70 522 l 2,16,17
 43 522 43 522 43 543 c 0,18,19
 43 563 43 563 70 563 c 2,20,-1
 499 563 l 1,21,-1
 499 424 l 2,22,23
 499 397 499 397 478 397 c 0,24,25
 458 397 458 397 458 424 c 2,26,-1
 458 522 l 1,27,-1
 165 522 l 1,28,-1
 165 313 l 1,29,-1
 310 313 l 1,30,-1
 310 358 l 2,31,32
 310 385 310 385 331 385 c 0,33,34
 351 385 351 385 351 358 c 2,35,-1
 351 227 l 2,36,37
 351 200 351 200 331 200 c 0,38,39
 310 200 310 200 310 227 c 2,40,-1
 310 272 l 1,41,-1
 165 272 l 1,0,-1
389 749 m 2,42,-1
 275 649 l 2,43,44
 263 640 263 640 256 640 c 0,45,46
 248 640 248 640 242 646 c 128,-1,47
 236 652 236 652 236 661 c 0,48,49
 236 669 236 669 248 680 c 2,50,-1
 362 780 l 2,51,52
 374 789 374 789 381 789 c 0,53,54
 389 789 389 789 395 783 c 128,-1,55
 401 777 401 777 401 768 c 0,56,57
 401 760 401 760 389 749 c 2,42,-1
EndSplineSet
EndChar

StartChar: Ecircumflex
Encoding: 202 202 140
Width: 600
GlyphClass: 2
Flags: W
LayerCount: 2
Fore
SplineSet
165 272 m 1,0,-1
 165 41 l 1,1,-1
 479 41 l 1,2,-1
 479 160 l 2,3,4
 479 187 479 187 500 187 c 0,5,6
 520 187 520 187 520 160 c 2,7,-1
 520 0 l 1,8,-1
 70 0 l 2,9,10
 43 0 43 0 43 21 c 0,11,12
 43 41 43 41 70 41 c 2,13,-1
 124 41 l 1,14,-1
 124 522 l 1,15,-1
 70 522 l 2,16,17
 43 522 43 522 43 543 c 0,18,19
 43 563 43 563 70 563 c 2,20,-1
 499 563 l 1,21,-1
 499 424 l 2,22,23
 499 397 499 397 478 397 c 0,24,25
 458 397 458 397 458 424 c 2,26,-1
 458 522 l 1,27,-1
 165 522 l 1,28,-1
 165 313 l 1,29,-1
 310 313 l 1,30,-1
 310 358 l 2,31,32
 310 385 310 385 331 385 c 0,33,34
 351 385 351 385 351 358 c 2,35,-1
 351 227 l 2,36,37
 351 200 351 200 331 200 c 0,38,39
 310 200 310 200 310 227 c 2,40,-1
 310 272 l 1,41,-1
 165 272 l 1,0,-1
291 789 m 1,42,-1
 423 681 l 2,43,44
 436 670 436 670 436 660 c 0,45,46
 436 652 436 652 430 646 c 128,-1,47
 424 640 424 640 416 640 c 0,48,49
 409 640 409 640 398 648 c 2,50,-1
 291 736 l 1,51,-1
 184 648 l 2,52,53
 173 640 173 640 166 640 c 0,54,55
 158 640 158 640 152 646 c 128,-1,56
 146 652 146 652 146 660 c 0,57,58
 146 671 146 671 159 680 c 2,59,-1
 291 789 l 1,42,-1
EndSplineSet
EndChar

StartChar: Edieresis
Encoding: 203 203 141
Width: 600
GlyphClass: 2
Flags: W
LayerCount: 2
Fore
SplineSet
165 272 m 1,0,-1
 165 41 l 1,1,-1
 479 41 l 1,2,-1
 479 160 l 2,3,4
 479 187 479 187 500 187 c 0,5,6
 520 187 520 187 520 160 c 2,7,-1
 520 0 l 1,8,-1
 70 0 l 2,9,10
 43 0 43 0 43 21 c 0,11,12
 43 41 43 41 70 41 c 2,13,-1
 124 41 l 1,14,-1
 124 522 l 1,15,-1
 70 522 l 2,16,17
 43 522 43 522 43 543 c 0,18,19
 43 563 43 563 70 563 c 2,20,-1
 499 563 l 1,21,-1
 499 424 l 2,22,23
 499 397 499 397 478 397 c 0,24,25
 458 397 458 397 458 424 c 2,26,-1
 458 522 l 1,27,-1
 165 522 l 1,28,-1
 165 313 l 1,29,-1
 310 313 l 1,30,-1
 310 358 l 2,31,32
 310 385 310 385 331 385 c 0,33,34
 351 385 351 385 351 358 c 2,35,-1
 351 227 l 2,36,37
 351 200 351 200 331 200 c 0,38,39
 310 200 310 200 310 227 c 2,40,-1
 310 272 l 1,41,-1
 165 272 l 1,0,-1
181 761 m 0,42,43
 202 761 202 761 216.5 746 c 128,-1,44
 231 731 231 731 231 710 c 0,45,46
 231 690 231 690 216 675.5 c 128,-1,47
 201 661 201 661 181 661 c 128,-1,48
 161 661 161 661 146 676 c 128,-1,49
 131 691 131 691 131 711 c 128,-1,50
 131 731 131 731 146 746 c 128,-1,51
 161 761 161 761 181 761 c 0,42,43
402 761 m 0,52,53
 423 761 423 761 437.5 746 c 128,-1,54
 452 731 452 731 452 710 c 0,55,56
 452 690 452 690 437 675.5 c 128,-1,57
 422 661 422 661 402 661 c 128,-1,58
 382 661 382 661 367 676 c 128,-1,59
 352 691 352 691 352 711 c 128,-1,60
 352 731 352 731 367 746 c 128,-1,61
 382 761 382 761 402 761 c 0,52,53
EndSplineSet
EndChar

StartChar: Igrave
Encoding: 204 204 142
Width: 600
GlyphClass: 2
Flags: W
LayerCount: 2
Fore
SplineSet
320 522 m 1,0,-1
 320 41 l 1,1,-1
 459 41 l 2,2,3
 487 41 487 41 487 21 c 0,4,5
 487 0 487 0 459 0 c 2,6,-1
 140 0 l 2,7,8
 113 0 113 0 113 21 c 0,9,10
 113 41 113 41 140 41 c 2,11,-1
 279 41 l 1,12,-1
 279 522 l 1,13,-1
 140 522 l 2,14,15
 113 522 113 522 113 543 c 0,16,17
 113 563 113 563 140 563 c 2,18,-1
 459 563 l 2,19,20
 487 563 487 563 487 543 c 0,21,22
 487 522 487 522 459 522 c 2,23,-1
 320 522 l 1,0,-1
230 780 m 2,24,-1
 344 680 l 1,25,-1
 351 672 l 2,26,27
 356 667 356 667 356 661 c 0,28,29
 356 652 356 652 350 646 c 128,-1,30
 344 640 344 640 335 640 c 0,31,32
 328 640 328 640 317 649 c 2,33,-1
 203 749 l 2,34,35
 191 760 191 760 191 769 c 0,36,37
 191 777 191 777 197 783 c 128,-1,38
 203 789 203 789 211 789 c 0,39,40
 218 789 218 789 230 780 c 2,24,-1
EndSplineSet
EndChar

StartChar: Iacute
Encoding: 205 205 143
Width: 600
GlyphClass: 2
Flags: W
LayerCount: 2
Fore
SplineSet
320 522 m 1,0,-1
 320 41 l 1,1,-1
 459 41 l 2,2,3
 487 41 487 41 487 21 c 0,4,5
 487 0 487 0 459 0 c 2,6,-1
 140 0 l 2,7,8
 113 0 113 0 113 21 c 0,9,10
 113 41 113 41 140 41 c 2,11,-1
 279 41 l 1,12,-1
 279 522 l 1,13,-1
 140 522 l 2,14,15
 113 522 113 522 113 543 c 0,16,17
 113 563 113 563 140 563 c 2,18,-1
 459 563 l 2,19,20
 487 563 487 563 487 543 c 0,21,22
 487 522 487 522 459 522 c 2,23,-1
 320 522 l 1,0,-1
433 749 m 2,24,-1
 319 649 l 2,25,26
 307 640 307 640 300 640 c 0,27,28
 292 640 292 640 286 646 c 128,-1,29
 280 652 280 652 280 661 c 0,30,31
 280 669 280 669 292 680 c 2,32,-1
 406 780 l 2,33,34
 418 789 418 789 425 789 c 0,35,36
 433 789 433 789 439 783 c 128,-1,37
 445 777 445 777 445 768 c 0,38,39
 445 760 445 760 433 749 c 2,24,-1
EndSplineSet
EndChar

StartChar: Icircumflex
Encoding: 206 206 144
Width: 600
GlyphClass: 2
Flags: W
LayerCount: 2
Fore
SplineSet
320 522 m 1,0,-1
 320 41 l 1,1,-1
 459 41 l 2,2,3
 487 41 487 41 487 21 c 0,4,5
 487 0 487 0 459 0 c 2,6,-1
 140 0 l 2,7,8
 113 0 113 0 113 21 c 0,9,10
 113 41 113 41 140 41 c 2,11,-1
 279 41 l 1,12,-1
 279 522 l 1,13,-1
 140 522 l 2,14,15
 113 522 113 522 113 543 c 0,16,17
 113 563 113 563 140 563 c 2,18,-1
 459 563 l 2,19,20
 487 563 487 563 487 543 c 0,21,22
 487 522 487 522 459 522 c 2,23,-1
 320 522 l 1,0,-1
300 789 m 1,24,-1
 432 681 l 2,25,26
 445 670 445 670 445 660 c 0,27,28
 445 652 445 652 439 646 c 128,-1,29
 433 640 433 640 425 640 c 0,30,31
 418 640 418 640 407 648 c 2,32,-1
 300 736 l 1,33,-1
 193 648 l 2,34,35
 182 640 182 640 175 640 c 0,36,37
 167 640 167 640 161 646 c 128,-1,38
 155 652 155 652 155 660 c 0,39,40
 155 671 155 671 168 680 c 2,41,-1
 300 789 l 1,24,-1
EndSplineSet
EndChar

StartChar: Idieresis
Encoding: 207 207 145
Width: 600
GlyphClass: 2
Flags: W
LayerCount: 2
Fore
SplineSet
320 522 m 1,0,-1
 320 41 l 1,1,-1
 459 41 l 2,2,3
 487 41 487 41 487 21 c 0,4,5
 487 0 487 0 459 0 c 2,6,-1
 140 0 l 2,7,8
 113 0 113 0 113 21 c 0,9,10
 113 41 113 41 140 41 c 2,11,-1
 279 41 l 1,12,-1
 279 522 l 1,13,-1
 140 522 l 2,14,15
 113 522 113 522 113 543 c 0,16,17
 113 563 113 563 140 563 c 2,18,-1
 459 563 l 2,19,20
 487 563 487 563 487 543 c 0,21,22
 487 522 487 522 459 522 c 2,23,-1
 320 522 l 1,0,-1
189 761 m 0,24,25
 210 761 210 761 224.5 746 c 128,-1,26
 239 731 239 731 239 710 c 0,27,28
 239 690 239 690 224 675.5 c 128,-1,29
 209 661 209 661 189 661 c 128,-1,30
 169 661 169 661 154 676 c 128,-1,31
 139 691 139 691 139 711 c 128,-1,32
 139 731 139 731 154 746 c 128,-1,33
 169 761 169 761 189 761 c 0,24,25
411 761 m 0,34,35
 432 761 432 761 446.5 746 c 128,-1,36
 461 731 461 731 461 710 c 0,37,38
 461 690 461 690 446 675.5 c 128,-1,39
 431 661 431 661 411 661 c 128,-1,40
 391 661 391 661 376 676 c 128,-1,41
 361 691 361 691 361 711 c 128,-1,42
 361 731 361 731 376 746 c 128,-1,43
 391 761 391 761 411 761 c 0,34,35
EndSplineSet
EndChar

StartChar: Eth
Encoding: 208 208 146
Width: 600
GlyphClass: 2
Flags: W
LayerCount: 2
Fore
SplineSet
104 272 m 1,0,-1
 27 272 l 2,1,2
 0 272 0 272 0 293 c 0,3,4
 0 313 0 313 27 313 c 2,5,-1
 104 313 l 1,6,-1
 104 522 l 1,7,-1
 70 522 l 2,8,9
 43 522 43 522 43 543 c 0,10,11
 43 563 43 563 70 563 c 2,12,-1
 290 563 l 2,13,14
 384 563 384 563 452 488.5 c 128,-1,15
 520 414 520 414 520 310 c 2,16,-1
 520 254 l 2,17,18
 520 150 520 150 452 75 c 128,-1,19
 384 0 384 0 290 0 c 2,20,-1
 70 0 l 2,21,22
 43 0 43 0 43 21 c 0,23,24
 43 41 43 41 70 41 c 2,25,-1
 104 41 l 1,26,-1
 104 272 l 1,0,-1
145 522 m 1,27,-1
 145 313 l 1,28,-1
 307 313 l 2,29,30
 334 313 334 313 334 293 c 0,31,32
 334 272 334 272 307 272 c 2,33,-1
 145 272 l 1,34,-1
 145 41 l 1,35,-1
 295 41 l 2,36,37
 366 41 366 41 422.5 103.5 c 128,-1,38
 479 166 479 166 479 245 c 2,39,-1
 479 319 l 2,40,41
 479 358 479 358 461.5 399.5 c 128,-1,42
 444 441 444 441 414 472 c 0,43,44
 364 522 364 522 288 522 c 2,45,-1
 145 522 l 1,27,-1
EndSplineSet
EndChar

StartChar: Ntilde
Encoding: 209 209 147
Width: 600
GlyphClass: 2
Flags: W
LayerCount: 2
Fore
SplineSet
501 0 m 1,0,-1
 449 0 l 1,1,-1
 144 504 l 1,2,-1
 144 41 l 1,3,-1
 219 41 l 2,4,5
 246 41 246 41 246 21 c 0,6,7
 246 0 246 0 219 0 c 2,8,-1
 69 0 l 2,9,10
 42 0 42 0 42 21 c 0,11,12
 42 41 42 41 69 41 c 2,13,-1
 103 41 l 1,14,-1
 103 522 l 1,15,-1
 49 522 l 2,16,17
 22 522 22 522 22 543 c 0,18,19
 22 563 22 563 49 563 c 2,20,-1
 155 563 l 1,21,-1
 460 59 l 1,22,-1
 460 522 l 1,23,-1
 386 522 l 2,24,25
 358 522 358 522 358 543 c 0,26,27
 358 563 358 563 386 563 c 2,28,-1
 535 563 l 2,29,30
 562 563 562 563 562 543 c 0,31,32
 562 522 562 522 535 522 c 2,33,-1
 501 522 l 1,34,-1
 501 0 l 1,0,-1
433 753 m 128,-1,36
 441 753 441 753 447 747 c 128,-1,37
 453 741 453 741 453 733 c 0,38,39
 453 723 453 723 431 702 c 0,40,41
 395 666 395 666 362 666 c 0,42,43
 333 666 333 666 281 697 c 0,44,45
 255 714 255 714 238 714 c 0,46,47
 223 714 223 714 212.5 707 c 128,-1,48
 202 700 202 700 180 677 c 0,49,50
 174 669 174 669 163 669 c 0,51,52
 155 669 155 669 149 674.5 c 128,-1,53
 143 680 143 680 143 688 c 0,54,55
 143 699 143 699 162 718 c 0,56,57
 202 755 202 755 237 755 c 0,58,59
 262 755 262 755 301 732 c 0,60,61
 346 707 346 707 360 707 c 0,62,63
 373 707 373 707 383.5 714.5 c 128,-1,64
 394 722 394 722 417 745 c 0,65,35
 425 753 425 753 433 753 c 128,-1,36
EndSplineSet
EndChar

StartChar: Ograve
Encoding: 210 210 148
Width: 600
GlyphClass: 2
Flags: W
LayerCount: 2
Fore
SplineSet
300 576 m 0,0,1
 406 576 406 576 477.5 489.5 c 128,-1,2
 549 403 549 403 549 276 c 0,3,4
 549 155 549 155 476 69.5 c 128,-1,5
 403 -16 403 -16 300 -16 c 0,6,7
 196 -16 196 -16 123.5 70 c 128,-1,8
 51 156 51 156 51 280 c 128,-1,9
 51 404 51 404 123.5 490 c 128,-1,10
 196 576 196 576 300 576 c 0,0,1
300 535 m 0,11,12
 214 535 214 535 153 460 c 128,-1,13
 92 385 92 385 92 280 c 128,-1,14
 92 175 92 175 153 100 c 128,-1,15
 214 25 214 25 300 25 c 0,16,17
 385 25 385 25 446.5 99.5 c 128,-1,18
 508 174 508 174 508 277 c 0,19,20
 508 385 508 385 447.5 460 c 128,-1,21
 387 535 387 535 300 535 c 0,11,12
224 780 m 2,22,-1
 338 680 l 1,23,-1
 345 672 l 2,24,25
 350 667 350 667 350 661 c 0,26,27
 350 652 350 652 344 646 c 128,-1,28
 338 640 338 640 329 640 c 0,29,30
 322 640 322 640 311 649 c 2,31,-1
 197 749 l 2,32,33
 185 760 185 760 185 769 c 0,34,35
 185 777 185 777 191 783 c 128,-1,36
 197 789 197 789 205 789 c 0,37,38
 212 789 212 789 224 780 c 2,22,-1
EndSplineSet
EndChar

StartChar: Oacute
Encoding: 211 211 149
Width: 600
GlyphClass: 2
Flags: W
LayerCount: 2
Fore
SplineSet
300 576 m 0,0,1
 406 576 406 576 477.5 489.5 c 128,-1,2
 549 403 549 403 549 276 c 0,3,4
 549 155 549 155 476 69.5 c 128,-1,5
 403 -16 403 -16 300 -16 c 0,6,7
 196 -16 196 -16 123.5 70 c 128,-1,8
 51 156 51 156 51 280 c 128,-1,9
 51 404 51 404 123.5 490 c 128,-1,10
 196 576 196 576 300 576 c 0,0,1
300 535 m 0,11,12
 214 535 214 535 153 460 c 128,-1,13
 92 385 92 385 92 280 c 128,-1,14
 92 175 92 175 153 100 c 128,-1,15
 214 25 214 25 300 25 c 0,16,17
 385 25 385 25 446.5 99.5 c 128,-1,18
 508 174 508 174 508 277 c 0,19,20
 508 385 508 385 447.5 460 c 128,-1,21
 387 535 387 535 300 535 c 0,11,12
404 749 m 2,22,-1
 290 649 l 2,23,24
 278 640 278 640 271 640 c 0,25,26
 263 640 263 640 257 646 c 128,-1,27
 251 652 251 652 251 661 c 0,28,29
 251 669 251 669 263 680 c 2,30,-1
 377 780 l 2,31,32
 389 789 389 789 396 789 c 0,33,34
 404 789 404 789 410 783 c 128,-1,35
 416 777 416 777 416 768 c 0,36,37
 416 760 416 760 404 749 c 2,22,-1
EndSplineSet
EndChar

StartChar: Ocircumflex
Encoding: 212 212 150
Width: 600
GlyphClass: 2
Flags: W
LayerCount: 2
Fore
SplineSet
300 576 m 0,0,1
 406 576 406 576 477.5 489.5 c 128,-1,2
 549 403 549 403 549 276 c 0,3,4
 549 155 549 155 476 69.5 c 128,-1,5
 403 -16 403 -16 300 -16 c 0,6,7
 196 -16 196 -16 123.5 70 c 128,-1,8
 51 156 51 156 51 280 c 128,-1,9
 51 404 51 404 123.5 490 c 128,-1,10
 196 576 196 576 300 576 c 0,0,1
300 535 m 0,11,12
 214 535 214 535 153 460 c 128,-1,13
 92 385 92 385 92 280 c 128,-1,14
 92 175 92 175 153 100 c 128,-1,15
 214 25 214 25 300 25 c 0,16,17
 385 25 385 25 446.5 99.5 c 128,-1,18
 508 174 508 174 508 277 c 0,19,20
 508 385 508 385 447.5 460 c 128,-1,21
 387 535 387 535 300 535 c 0,11,12
300 789 m 1,22,-1
 432 681 l 2,23,24
 445 670 445 670 445 660 c 0,25,26
 445 652 445 652 439 646 c 128,-1,27
 433 640 433 640 425 640 c 0,28,29
 418 640 418 640 407 648 c 2,30,-1
 300 736 l 1,31,-1
 193 648 l 2,32,33
 182 640 182 640 175 640 c 0,34,35
 167 640 167 640 161 646 c 128,-1,36
 155 652 155 652 155 660 c 0,37,38
 155 671 155 671 168 680 c 2,39,-1
 300 789 l 1,22,-1
EndSplineSet
EndChar

StartChar: Otilde
Encoding: 213 213 151
Width: 600
GlyphClass: 2
Flags: W
LayerCount: 2
Fore
SplineSet
300 576 m 0,0,1
 406 576 406 576 477.5 489.5 c 128,-1,2
 549 403 549 403 549 276 c 0,3,4
 549 155 549 155 476 69.5 c 128,-1,5
 403 -16 403 -16 300 -16 c 0,6,7
 196 -16 196 -16 123.5 70 c 128,-1,8
 51 156 51 156 51 280 c 128,-1,9
 51 404 51 404 123.5 490 c 128,-1,10
 196 576 196 576 300 576 c 0,0,1
300 535 m 0,11,12
 214 535 214 535 153 460 c 128,-1,13
 92 385 92 385 92 280 c 128,-1,14
 92 175 92 175 153 100 c 128,-1,15
 214 25 214 25 300 25 c 0,16,17
 385 25 385 25 446.5 99.5 c 128,-1,18
 508 174 508 174 508 277 c 0,19,20
 508 385 508 385 447.5 460 c 128,-1,21
 387 535 387 535 300 535 c 0,11,12
441 753 m 128,-1,23
 449 753 449 753 455 747 c 128,-1,24
 461 741 461 741 461 733 c 0,25,26
 461 723 461 723 439 702 c 0,27,28
 403 666 403 666 370 666 c 0,29,30
 341 666 341 666 289 697 c 0,31,32
 263 714 263 714 246 714 c 0,33,34
 231 714 231 714 220.5 707 c 128,-1,35
 210 700 210 700 188 677 c 0,36,37
 182 669 182 669 171 669 c 0,38,39
 163 669 163 669 157 674.5 c 128,-1,40
 151 680 151 680 151 688 c 0,41,42
 151 699 151 699 170 718 c 0,43,44
 210 755 210 755 245 755 c 0,45,46
 270 755 270 755 309 732 c 0,47,48
 354 707 354 707 368 707 c 0,49,50
 381 707 381 707 391.5 714.5 c 128,-1,51
 402 722 402 722 425 745 c 0,52,22
 433 753 433 753 441 753 c 128,-1,23
EndSplineSet
EndChar

StartChar: Odieresis
Encoding: 214 214 152
Width: 600
GlyphClass: 2
Flags: W
LayerCount: 2
Fore
SplineSet
300 576 m 0,0,1
 406 576 406 576 477.5 489.5 c 128,-1,2
 549 403 549 403 549 276 c 0,3,4
 549 155 549 155 476 69.5 c 128,-1,5
 403 -16 403 -16 300 -16 c 0,6,7
 196 -16 196 -16 123.5 70 c 128,-1,8
 51 156 51 156 51 280 c 128,-1,9
 51 404 51 404 123.5 490 c 128,-1,10
 196 576 196 576 300 576 c 0,0,1
300 535 m 0,11,12
 214 535 214 535 153 460 c 128,-1,13
 92 385 92 385 92 280 c 128,-1,14
 92 175 92 175 153 100 c 128,-1,15
 214 25 214 25 300 25 c 0,16,17
 385 25 385 25 446.5 99.5 c 128,-1,18
 508 174 508 174 508 277 c 0,19,20
 508 385 508 385 447.5 460 c 128,-1,21
 387 535 387 535 300 535 c 0,11,12
189 761 m 0,22,23
 210 761 210 761 224.5 746 c 128,-1,24
 239 731 239 731 239 710 c 0,25,26
 239 690 239 690 224 675.5 c 128,-1,27
 209 661 209 661 189 661 c 128,-1,28
 169 661 169 661 154 676 c 128,-1,29
 139 691 139 691 139 711 c 128,-1,30
 139 731 139 731 154 746 c 128,-1,31
 169 761 169 761 189 761 c 0,22,23
410 761 m 0,32,33
 431 761 431 761 445.5 746 c 128,-1,34
 460 731 460 731 460 710 c 0,35,36
 460 690 460 690 445 675.5 c 128,-1,37
 430 661 430 661 410 661 c 128,-1,38
 390 661 390 661 375 676 c 128,-1,39
 360 691 360 691 360 711 c 128,-1,40
 360 731 360 731 375 746 c 128,-1,41
 390 761 390 761 410 761 c 0,32,33
EndSplineSet
EndChar

StartChar: multiply
Encoding: 215 215 153
Width: 600
GlyphClass: 2
Flags: W
LayerCount: 2
Fore
SplineSet
300 311 m 1,0,-1
 442 453 l 2,1,2
 453 464 453 464 461 464 c 128,-1,3
 469 464 469 464 475.5 458 c 128,-1,4
 482 452 482 452 482 443 c 0,5,6
 482 435 482 435 471 424 c 2,7,-1
 329 282 l 1,8,-1
 471 139 l 2,9,10
 482 129 482 129 482 120 c 0,11,12
 482 112 482 112 476 106 c 128,-1,13
 470 100 470 100 461 100 c 128,-1,14
 452 100 452 100 442 110 c 2,15,-1
 300 253 l 1,16,-1
 158 110 l 2,17,18
 147 100 147 100 139 100 c 0,19,20
 130 100 130 100 124 106 c 128,-1,21
 118 112 118 112 118 120 c 0,22,23
 118 129 118 129 128 139 c 2,24,-1
 271 282 l 1,25,-1
 128 424 l 2,26,27
 118 435 118 435 118 443 c 0,28,29
 118 452 118 452 124 458 c 128,-1,30
 130 464 130 464 139 464 c 0,31,32
 146 464 146 464 157 453 c 2,33,-1
 300 311 l 1,0,-1
EndSplineSet
EndChar

StartChar: Oslash
Encoding: 216 216 154
Width: 600
GlyphClass: 2
Flags: W
LayerCount: 2
Fore
SplineSet
141 51 m 1,0,-1
 76 -31 l 2,1,2
 67 -43 67 -43 58 -43 c 0,3,4
 50 -43 50 -43 45 -37.5 c 128,-1,5
 40 -32 40 -32 40 -25 c 0,6,7
 40 -19 40 -19 48 -9 c 2,8,-1
 117 78 l 1,9,10
 51 166 51 166 51 280 c 0,11,12
 51 404 51 404 123.5 490 c 128,-1,13
 196 576 196 576 300 576 c 0,14,15
 386 576 386 576 458 510 c 1,16,-1
 524 593 l 2,17,18
 533 605 533 605 542 605 c 0,19,20
 550 605 550 605 555 599.5 c 128,-1,21
 560 594 560 594 560 587 c 0,22,23
 560 582 560 582 552 571 c 2,24,-1
 482 483 l 1,25,26
 549 400 549 400 549 280 c 0,27,28
 549 156 549 156 476.5 70 c 128,-1,29
 404 -16 404 -16 300 -16 c 0,30,31
 210 -16 210 -16 141 51 c 1,0,-1
144 112 m 1,32,-1
 432 476 l 1,33,34
 373 535 373 535 300 535 c 0,35,36
 214 535 214 535 153 460 c 128,-1,37
 92 385 92 385 92 280 c 0,38,39
 92 189 92 189 144 112 c 1,32,-1
456 449 m 1,40,-1
 167 84 l 1,41,42
 226 25 226 25 300 25 c 0,43,44
 386 25 386 25 447 100 c 128,-1,45
 508 175 508 175 508 280 c 0,46,47
 508 374 508 374 456 449 c 1,40,-1
EndSplineSet
EndChar

StartChar: Ugrave
Encoding: 217 217 155
Width: 600
GlyphClass: 2
Flags: W
LayerCount: 2
Fore
SplineSet
499 522 m 1,0,-1
 499 185 l 2,1,2
 499 100 499 100 441.5 42 c 128,-1,3
 384 -16 384 -16 300 -16 c 0,4,5
 215 -16 215 -16 158 41.5 c 128,-1,6
 101 99 101 99 101 185 c 2,7,-1
 101 522 l 1,8,-1
 67 522 l 2,9,10
 40 522 40 522 40 543 c 0,11,12
 40 563 40 563 67 563 c 2,13,-1
 216 563 l 2,14,15
 243 563 243 563 243 543 c 0,16,17
 243 522 243 522 216 522 c 2,18,-1
 142 522 l 1,19,-1
 142 185 l 2,20,21
 142 117 142 117 187.5 71 c 128,-1,22
 233 25 233 25 300 25 c 0,23,24
 366 25 366 25 412 71.5 c 128,-1,25
 458 118 458 118 458 185 c 2,26,-1
 458 522 l 1,27,-1
 384 522 l 2,28,29
 357 522 357 522 357 543 c 0,30,31
 357 563 357 563 384 563 c 2,32,-1
 533 563 l 2,33,34
 560 563 560 563 560 543 c 0,35,36
 560 522 560 522 533 522 c 2,37,-1
 499 522 l 1,0,-1
227 780 m 2,38,-1
 341 680 l 1,39,-1
 348 672 l 2,40,41
 353 667 353 667 353 661 c 0,42,43
 353 652 353 652 347 646 c 128,-1,44
 341 640 341 640 332 640 c 0,45,46
 324 640 324 640 314 649 c 2,47,-1
 200 749 l 2,48,49
 188 760 188 760 188 769 c 0,50,51
 188 777 188 777 194 783 c 128,-1,52
 200 789 200 789 208 789 c 0,53,54
 215 789 215 789 227 780 c 2,38,-1
EndSplineSet
EndChar

StartChar: Uacute
Encoding: 218 218 156
Width: 600
GlyphClass: 2
Flags: W
LayerCount: 2
Fore
SplineSet
499 522 m 1,0,-1
 499 185 l 2,1,2
 499 100 499 100 441.5 42 c 128,-1,3
 384 -16 384 -16 300 -16 c 0,4,5
 215 -16 215 -16 158 41.5 c 128,-1,6
 101 99 101 99 101 185 c 2,7,-1
 101 522 l 1,8,-1
 67 522 l 2,9,10
 40 522 40 522 40 543 c 0,11,12
 40 563 40 563 67 563 c 2,13,-1
 216 563 l 2,14,15
 243 563 243 563 243 543 c 0,16,17
 243 522 243 522 216 522 c 2,18,-1
 142 522 l 1,19,-1
 142 185 l 2,20,21
 142 117 142 117 187.5 71 c 128,-1,22
 233 25 233 25 300 25 c 0,23,24
 366 25 366 25 412 71.5 c 128,-1,25
 458 118 458 118 458 185 c 2,26,-1
 458 522 l 1,27,-1
 384 522 l 2,28,29
 357 522 357 522 357 543 c 0,30,31
 357 563 357 563 384 563 c 2,32,-1
 533 563 l 2,33,34
 560 563 560 563 560 543 c 0,35,36
 560 522 560 522 533 522 c 2,37,-1
 499 522 l 1,0,-1
401 749 m 2,38,-1
 287 649 l 2,39,40
 275 640 275 640 268 640 c 0,41,42
 260 640 260 640 254 646 c 128,-1,43
 248 652 248 652 248 661 c 0,44,45
 248 669 248 669 260 680 c 2,46,-1
 374 780 l 2,47,48
 386 789 386 789 393 789 c 0,49,50
 401 789 401 789 407 783 c 128,-1,51
 413 777 413 777 413 768 c 0,52,53
 413 760 413 760 401 749 c 2,38,-1
EndSplineSet
EndChar

StartChar: Ucircumflex
Encoding: 219 219 157
Width: 600
GlyphClass: 2
Flags: W
LayerCount: 2
Fore
SplineSet
499 522 m 1,0,-1
 499 185 l 2,1,2
 499 100 499 100 441.5 42 c 128,-1,3
 384 -16 384 -16 300 -16 c 0,4,5
 215 -16 215 -16 158 41.5 c 128,-1,6
 101 99 101 99 101 185 c 2,7,-1
 101 522 l 1,8,-1
 67 522 l 2,9,10
 40 522 40 522 40 543 c 0,11,12
 40 563 40 563 67 563 c 2,13,-1
 216 563 l 2,14,15
 243 563 243 563 243 543 c 0,16,17
 243 522 243 522 216 522 c 2,18,-1
 142 522 l 1,19,-1
 142 185 l 2,20,21
 142 117 142 117 187.5 71 c 128,-1,22
 233 25 233 25 300 25 c 0,23,24
 366 25 366 25 412 71.5 c 128,-1,25
 458 118 458 118 458 185 c 2,26,-1
 458 522 l 1,27,-1
 384 522 l 2,28,29
 357 522 357 522 357 543 c 0,30,31
 357 563 357 563 384 563 c 2,32,-1
 533 563 l 2,33,34
 560 563 560 563 560 543 c 0,35,36
 560 522 560 522 533 522 c 2,37,-1
 499 522 l 1,0,-1
300 789 m 1,38,-1
 432 681 l 2,39,40
 445 670 445 670 445 660 c 0,41,42
 445 652 445 652 439 646 c 128,-1,43
 433 640 433 640 425 640 c 0,44,45
 418 640 418 640 407 648 c 2,46,-1
 300 736 l 1,47,-1
 193 648 l 2,48,49
 182 640 182 640 175 640 c 0,50,51
 167 640 167 640 161 646 c 128,-1,52
 155 652 155 652 155 660 c 0,53,54
 155 671 155 671 168 680 c 2,55,-1
 300 789 l 1,38,-1
EndSplineSet
EndChar

StartChar: Udieresis
Encoding: 220 220 158
Width: 600
GlyphClass: 2
Flags: W
LayerCount: 2
Fore
SplineSet
499 522 m 1,0,-1
 499 185 l 2,1,2
 499 100 499 100 441.5 42 c 128,-1,3
 384 -16 384 -16 300 -16 c 0,4,5
 215 -16 215 -16 158 41.5 c 128,-1,6
 101 99 101 99 101 185 c 2,7,-1
 101 522 l 1,8,-1
 67 522 l 2,9,10
 40 522 40 522 40 543 c 0,11,12
 40 563 40 563 67 563 c 2,13,-1
 216 563 l 2,14,15
 243 563 243 563 243 543 c 0,16,17
 243 522 243 522 216 522 c 2,18,-1
 142 522 l 1,19,-1
 142 185 l 2,20,21
 142 117 142 117 187.5 71 c 128,-1,22
 233 25 233 25 300 25 c 0,23,24
 366 25 366 25 412 71.5 c 128,-1,25
 458 118 458 118 458 185 c 2,26,-1
 458 522 l 1,27,-1
 384 522 l 2,28,29
 357 522 357 522 357 543 c 0,30,31
 357 563 357 563 384 563 c 2,32,-1
 533 563 l 2,33,34
 560 563 560 563 560 543 c 0,35,36
 560 522 560 522 533 522 c 2,37,-1
 499 522 l 1,0,-1
189 761 m 0,38,39
 210 761 210 761 224.5 746 c 128,-1,40
 239 731 239 731 239 710 c 0,41,42
 239 690 239 690 224 675.5 c 128,-1,43
 209 661 209 661 189 661 c 128,-1,44
 169 661 169 661 154 676 c 128,-1,45
 139 691 139 691 139 711 c 128,-1,46
 139 731 139 731 154 746 c 128,-1,47
 169 761 169 761 189 761 c 0,38,39
410 761 m 0,48,49
 431 761 431 761 445.5 746 c 128,-1,50
 460 731 460 731 460 710 c 0,51,52
 460 690 460 690 445 675.5 c 128,-1,53
 430 661 430 661 410 661 c 128,-1,54
 390 661 390 661 375 676 c 128,-1,55
 360 691 360 691 360 711 c 128,-1,56
 360 731 360 731 375 746 c 128,-1,57
 390 761 390 761 410 761 c 0,48,49
EndSplineSet
EndChar

StartChar: Yacute
Encoding: 221 221 159
Width: 600
GlyphClass: 2
Flags: W
LayerCount: 2
Fore
SplineSet
322 254 m 1,0,-1
 322 41 l 1,1,-1
 427 41 l 2,2,3
 454 41 454 41 454 21 c 0,4,5
 454 0 454 0 427 0 c 2,6,-1
 176 0 l 2,7,8
 149 0 149 0 149 21 c 0,9,10
 149 41 149 41 176 41 c 2,11,-1
 281 41 l 1,12,-1
 281 254 l 1,13,-1
 102 522 l 1,14,-1
 78 522 l 2,15,16
 51 522 51 522 51 543 c 0,17,18
 51 563 51 563 78 563 c 2,19,-1
 189 563 l 2,20,21
 216 563 216 563 216 543 c 0,22,23
 216 522 216 522 189 522 c 2,24,-1
 151 522 l 1,25,-1
 303 295 l 1,26,-1
 452 522 l 1,27,-1
 412 522 l 2,28,29
 384 522 384 522 384 543 c 0,30,31
 384 563 384 563 412 563 c 2,32,-1
 522 563 l 2,33,34
 549 563 549 563 549 543 c 0,35,36
 549 522 549 522 522 522 c 2,37,-1
 498 522 l 1,38,-1
 322 254 l 1,0,-1
401 749 m 2,39,-1
 287 649 l 2,40,41
 275 640 275 640 268 640 c 0,42,43
 260 640 260 640 254 646 c 128,-1,44
 248 652 248 652 248 661 c 0,45,46
 248 669 248 669 260 680 c 2,47,-1
 374 780 l 2,48,49
 386 789 386 789 393 789 c 0,50,51
 401 789 401 789 407 783 c 128,-1,52
 413 777 413 777 413 768 c 0,53,54
 413 760 413 760 401 749 c 2,39,-1
EndSplineSet
EndChar

StartChar: Thorn
Encoding: 222 222 160
Width: 600
GlyphClass: 2
Flags: W
LayerCount: 2
Fore
SplineSet
165 131 m 1,0,-1
 165 41 l 1,1,-1
 303 41 l 2,2,3
 331 41 331 41 331 21 c 0,4,5
 331 0 331 0 303 0 c 2,6,-1
 70 0 l 2,7,8
 43 0 43 0 43 21 c 0,9,10
 43 41 43 41 70 41 c 2,11,-1
 124 41 l 1,12,-1
 124 522 l 1,13,-1
 70 522 l 2,14,15
 43 522 43 522 43 543 c 0,16,17
 43 563 43 563 70 563 c 2,18,-1
 303 563 l 2,19,20
 331 563 331 563 331 543 c 0,21,22
 331 522 331 522 303 522 c 2,23,-1
 165 522 l 1,24,-1
 165 463 l 1,25,-1
 310 463 l 2,26,27
 390 463 390 463 444.5 415.5 c 128,-1,28
 499 368 499 368 499 298 c 128,-1,29
 499 228 499 228 440 179.5 c 128,-1,30
 381 131 381 131 296 131 c 2,31,-1
 165 131 l 1,0,-1
165 172 m 1,32,-1
 299 172 l 2,33,34
 364 172 364 172 411 209 c 128,-1,35
 458 246 458 246 458 298 c 0,36,37
 458 349 458 349 415.5 385.5 c 128,-1,38
 373 422 373 422 314 422 c 2,39,-1
 165 422 l 1,40,-1
 165 172 l 1,32,-1
EndSplineSet
EndChar

StartChar: germandbls
Encoding: 223 223 161
Width: 600
GlyphClass: 2
Flags: W
LayerCount: 2
Fore
SplineSet
124 41 m 1,0,-1
 124 476 l 2,1,2
 124 529 124 529 165.5 566.5 c 128,-1,3
 207 604 207 604 266 604 c 0,4,5
 327 604 327 604 369.5 561.5 c 128,-1,6
 412 519 412 519 412 458 c 0,7,8
 412 398 412 398 354 359 c 1,9,10
 499 300 499 300 499 161 c 0,11,12
 499 85 499 85 460.5 34.5 c 128,-1,13
 422 -16 422 -16 365 -16 c 0,14,15
 320 -16 320 -16 289.5 17.5 c 128,-1,16
 259 51 259 51 259 101 c 0,17,18
 259 124 259 124 279 124 c 0,19,20
 298 124 298 124 300 100 c 0,21,22
 302 65 302 65 319.5 45 c 128,-1,23
 337 25 337 25 365 25 c 0,24,25
 404 25 404 25 431 64.5 c 128,-1,26
 458 104 458 104 458 162 c 0,27,28
 458 240 458 240 397 290 c 0,29,30
 343 334 343 334 279 334 c 2,31,-1
 274 334 l 2,32,33
 247 334 247 334 247 355 c 0,34,35
 247 375 247 375 270 375 c 2,36,-1
 275 375 l 2,37,38
 313 375 313 375 342 400.5 c 128,-1,39
 371 426 371 426 371 459 c 0,40,41
 371 502 371 502 340 532.5 c 128,-1,42
 309 563 309 563 266 563 c 0,43,44
 224 563 224 563 194.5 538 c 128,-1,45
 165 513 165 513 165 476 c 2,46,-1
 165 41 l 1,47,-1
 180 41 l 2,48,49
 207 41 207 41 207 21 c 0,50,51
 207 0 207 0 180 0 c 2,52,-1
 70 0 l 2,53,54
 43 0 43 0 43 21 c 0,55,56
 43 41 43 41 70 41 c 2,57,-1
 124 41 l 1,0,-1
EndSplineSet
EndChar

StartChar: agrave
Encoding: 224 224 162
Width: 600
GlyphClass: 2
Flags: W
LayerCount: 2
Fore
SplineSet
419 0 m 1,0,-1
 419 67 l 1,1,2
 330 -16 330 -16 228 -16 c 0,3,4
 158 -16 158 -16 115 19.5 c 128,-1,5
 72 55 72 55 72 112 c 0,6,7
 72 177 72 177 130.5 217.5 c 128,-1,8
 189 258 189 258 283 258 c 0,9,10
 342 258 342 258 419 237 c 1,11,-1
 419 308 l 2,12,13
 419 345 419 345 385 367.5 c 128,-1,14
 351 390 351 390 296 390 c 0,15,16
 252 390 252 390 154 360 c 0,17,18
 146 358 146 358 144 358 c 0,19,20
 136 358 136 358 130.5 364 c 128,-1,21
 125 370 125 370 125 378 c 0,22,23
 125 393 125 393 142 399 c 0,24,25
 235 431 235 431 299 431 c 0,26,27
 369 431 369 431 414.5 396 c 128,-1,28
 460 361 460 361 460 308 c 2,29,-1
 460 41 l 1,30,-1
 514 41 l 2,31,32
 541 41 541 41 541 21 c 0,33,34
 541 0 541 0 514 0 c 2,35,-1
 419 0 l 1,0,-1
419 112 m 1,36,-1
 419 202 l 1,37,38
 359 217 359 217 291 217 c 0,39,40
 212 217 212 217 162.5 187.5 c 128,-1,41
 113 158 113 158 113 111 c 0,42,43
 113 72 113 72 144 48.5 c 128,-1,44
 175 25 175 25 227 25 c 0,45,46
 280 25 280 25 324.5 45 c 128,-1,47
 369 65 369 65 419 112 c 1,36,-1
213 630 m 2,48,-1
 327 530 l 1,49,-1
 334 522 l 2,50,51
 339 517 339 517 339 511 c 0,52,53
 339 502 339 502 333 496 c 128,-1,54
 327 490 327 490 318 490 c 0,55,56
 310 490 310 490 300 499 c 2,57,-1
 186 599 l 2,58,59
 174 610 174 610 174 619 c 0,60,61
 174 627 174 627 180 633 c 128,-1,62
 186 639 186 639 194 639 c 0,63,64
 201 639 201 639 213 630 c 2,48,-1
EndSplineSet
EndChar

StartChar: aacute
Encoding: 225 225 163
Width: 600
GlyphClass: 2
Flags: W
LayerCount: 2
Fore
SplineSet
419 0 m 1,0,-1
 419 67 l 1,1,2
 330 -16 330 -16 228 -16 c 0,3,4
 158 -16 158 -16 115 19.5 c 128,-1,5
 72 55 72 55 72 112 c 0,6,7
 72 177 72 177 130.5 217.5 c 128,-1,8
 189 258 189 258 283 258 c 0,9,10
 342 258 342 258 419 237 c 1,11,-1
 419 308 l 2,12,13
 419 345 419 345 385 367.5 c 128,-1,14
 351 390 351 390 296 390 c 0,15,16
 252 390 252 390 154 360 c 0,17,18
 146 358 146 358 144 358 c 0,19,20
 136 358 136 358 130.5 364 c 128,-1,21
 125 370 125 370 125 378 c 0,22,23
 125 393 125 393 142 399 c 0,24,25
 235 431 235 431 299 431 c 0,26,27
 369 431 369 431 414.5 396 c 128,-1,28
 460 361 460 361 460 308 c 2,29,-1
 460 41 l 1,30,-1
 514 41 l 2,31,32
 541 41 541 41 541 21 c 0,33,34
 541 0 541 0 514 0 c 2,35,-1
 419 0 l 1,0,-1
419 112 m 1,36,-1
 419 202 l 1,37,38
 359 217 359 217 291 217 c 0,39,40
 212 217 212 217 162.5 187.5 c 128,-1,41
 113 158 113 158 113 111 c 0,42,43
 113 72 113 72 144 48.5 c 128,-1,44
 175 25 175 25 227 25 c 0,45,46
 280 25 280 25 324.5 45 c 128,-1,47
 369 65 369 65 419 112 c 1,36,-1
387 599 m 2,48,-1
 273 499 l 2,49,50
 261 490 261 490 254 490 c 0,51,52
 246 490 246 490 240 496 c 128,-1,53
 234 502 234 502 234 511 c 0,54,55
 234 519 234 519 246 530 c 2,56,-1
 360 630 l 2,57,58
 372 639 372 639 379 639 c 0,59,60
 387 639 387 639 393 633 c 128,-1,61
 399 627 399 627 399 618 c 0,62,63
 399 610 399 610 387 599 c 2,48,-1
EndSplineSet
EndChar

StartChar: acircumflex
Encoding: 226 226 164
Width: 600
GlyphClass: 2
Flags: W
LayerCount: 2
Fore
SplineSet
419 0 m 1,0,-1
 419 67 l 1,1,2
 330 -16 330 -16 228 -16 c 0,3,4
 158 -16 158 -16 115 19.5 c 128,-1,5
 72 55 72 55 72 112 c 0,6,7
 72 177 72 177 130.5 217.5 c 128,-1,8
 189 258 189 258 283 258 c 0,9,10
 342 258 342 258 419 237 c 1,11,-1
 419 308 l 2,12,13
 419 345 419 345 385 367.5 c 128,-1,14
 351 390 351 390 296 390 c 0,15,16
 252 390 252 390 154 360 c 0,17,18
 146 358 146 358 144 358 c 0,19,20
 136 358 136 358 130.5 364 c 128,-1,21
 125 370 125 370 125 378 c 0,22,23
 125 393 125 393 142 399 c 0,24,25
 235 431 235 431 299 431 c 0,26,27
 369 431 369 431 414.5 396 c 128,-1,28
 460 361 460 361 460 308 c 2,29,-1
 460 41 l 1,30,-1
 514 41 l 2,31,32
 541 41 541 41 541 21 c 0,33,34
 541 0 541 0 514 0 c 2,35,-1
 419 0 l 1,0,-1
419 112 m 1,36,-1
 419 202 l 1,37,38
 359 217 359 217 291 217 c 0,39,40
 212 217 212 217 162.5 187.5 c 128,-1,41
 113 158 113 158 113 111 c 0,42,43
 113 72 113 72 144 48.5 c 128,-1,44
 175 25 175 25 227 25 c 0,45,46
 280 25 280 25 324.5 45 c 128,-1,47
 369 65 369 65 419 112 c 1,36,-1
290 639 m 1,48,-1
 422 531 l 2,49,50
 435 520 435 520 435 510 c 0,51,52
 435 502 435 502 429 496 c 128,-1,53
 423 490 423 490 415 490 c 0,54,55
 408 490 408 490 397 498 c 2,56,-1
 290 586 l 1,57,-1
 183 498 l 2,58,59
 172 490 172 490 165 490 c 0,60,61
 157 490 157 490 151 496 c 128,-1,62
 145 502 145 502 145 510 c 0,63,64
 145 521 145 521 158 530 c 2,65,-1
 290 639 l 1,48,-1
EndSplineSet
EndChar

StartChar: atilde
Encoding: 227 227 165
Width: 600
GlyphClass: 2
Flags: W
LayerCount: 2
Fore
SplineSet
419 0 m 1,0,-1
 419 67 l 1,1,2
 330 -16 330 -16 228 -16 c 0,3,4
 158 -16 158 -16 115 19.5 c 128,-1,5
 72 55 72 55 72 112 c 0,6,7
 72 177 72 177 130.5 217.5 c 128,-1,8
 189 258 189 258 283 258 c 0,9,10
 342 258 342 258 419 237 c 1,11,-1
 419 308 l 2,12,13
 419 345 419 345 385 367.5 c 128,-1,14
 351 390 351 390 296 390 c 0,15,16
 252 390 252 390 154 360 c 0,17,18
 146 358 146 358 144 358 c 0,19,20
 136 358 136 358 130.5 364 c 128,-1,21
 125 370 125 370 125 378 c 0,22,23
 125 393 125 393 142 399 c 0,24,25
 235 431 235 431 299 431 c 0,26,27
 369 431 369 431 414.5 396 c 128,-1,28
 460 361 460 361 460 308 c 2,29,-1
 460 41 l 1,30,-1
 514 41 l 2,31,32
 541 41 541 41 541 21 c 0,33,34
 541 0 541 0 514 0 c 2,35,-1
 419 0 l 1,0,-1
419 112 m 1,36,-1
 419 202 l 1,37,38
 359 217 359 217 291 217 c 0,39,40
 212 217 212 217 162.5 187.5 c 128,-1,41
 113 158 113 158 113 111 c 0,42,43
 113 72 113 72 144 48.5 c 128,-1,44
 175 25 175 25 227 25 c 0,45,46
 280 25 280 25 324.5 45 c 128,-1,47
 369 65 369 65 419 112 c 1,36,-1
425 603 m 128,-1,49
 433 603 433 603 439 597 c 128,-1,50
 445 591 445 591 445 583 c 0,51,52
 445 573 445 573 423 552 c 0,53,54
 387 516 387 516 354 516 c 0,55,56
 325 516 325 516 273 547 c 0,57,58
 247 564 247 564 230 564 c 0,59,60
 215 564 215 564 204.5 557 c 128,-1,61
 194 550 194 550 172 527 c 0,62,63
 166 519 166 519 155 519 c 0,64,65
 147 519 147 519 141 524.5 c 128,-1,66
 135 530 135 530 135 538 c 0,67,68
 135 549 135 549 154 568 c 0,69,70
 194 605 194 605 229 605 c 0,71,72
 254 605 254 605 293 582 c 0,73,74
 338 557 338 557 352 557 c 0,75,76
 365 557 365 557 375.5 564.5 c 128,-1,77
 386 572 386 572 409 595 c 0,78,48
 417 603 417 603 425 603 c 128,-1,49
EndSplineSet
EndChar

StartChar: adieresis
Encoding: 228 228 166
Width: 600
GlyphClass: 2
Flags: W
LayerCount: 2
Fore
SplineSet
419 0 m 1,0,-1
 419 67 l 1,1,2
 330 -16 330 -16 228 -16 c 0,3,4
 158 -16 158 -16 115 19.5 c 128,-1,5
 72 55 72 55 72 112 c 0,6,7
 72 177 72 177 130.5 217.5 c 128,-1,8
 189 258 189 258 283 258 c 0,9,10
 342 258 342 258 419 237 c 1,11,-1
 419 308 l 2,12,13
 419 345 419 345 385 367.5 c 128,-1,14
 351 390 351 390 296 390 c 0,15,16
 252 390 252 390 154 360 c 0,17,18
 146 358 146 358 144 358 c 0,19,20
 136 358 136 358 130.5 364 c 128,-1,21
 125 370 125 370 125 378 c 0,22,23
 125 393 125 393 142 399 c 0,24,25
 235 431 235 431 299 431 c 0,26,27
 369 431 369 431 414.5 396 c 128,-1,28
 460 361 460 361 460 308 c 2,29,-1
 460 41 l 1,30,-1
 514 41 l 2,31,32
 541 41 541 41 541 21 c 0,33,34
 541 0 541 0 514 0 c 2,35,-1
 419 0 l 1,0,-1
419 112 m 1,36,-1
 419 202 l 1,37,38
 359 217 359 217 291 217 c 0,39,40
 212 217 212 217 162.5 187.5 c 128,-1,41
 113 158 113 158 113 111 c 0,42,43
 113 72 113 72 144 48.5 c 128,-1,44
 175 25 175 25 227 25 c 0,45,46
 280 25 280 25 324.5 45 c 128,-1,47
 369 65 369 65 419 112 c 1,36,-1
179 611 m 0,48,49
 200 611 200 611 214.5 596 c 128,-1,50
 229 581 229 581 229 560 c 0,51,52
 229 540 229 540 214 525.5 c 128,-1,53
 199 511 199 511 179 511 c 128,-1,54
 159 511 159 511 144 526 c 128,-1,55
 129 541 129 541 129 561 c 128,-1,56
 129 581 129 581 144 596 c 128,-1,57
 159 611 159 611 179 611 c 0,48,49
400 611 m 0,58,59
 421 611 421 611 435.5 596 c 128,-1,60
 450 581 450 581 450 560 c 0,61,62
 450 540 450 540 435 525.5 c 128,-1,63
 420 511 420 511 400 511 c 128,-1,64
 380 511 380 511 365 526 c 128,-1,65
 350 541 350 541 350 561 c 128,-1,66
 350 581 350 581 365 596 c 128,-1,67
 380 611 380 611 400 611 c 0,58,59
EndSplineSet
EndChar

StartChar: aring
Encoding: 229 229 167
Width: 600
GlyphClass: 2
Flags: W
LayerCount: 2
Fore
SplineSet
419 0 m 1,0,-1
 419 67 l 1,1,2
 330 -16 330 -16 228 -16 c 0,3,4
 158 -16 158 -16 115 19.5 c 128,-1,5
 72 55 72 55 72 112 c 0,6,7
 72 177 72 177 130.5 217.5 c 128,-1,8
 189 258 189 258 283 258 c 0,9,10
 342 258 342 258 419 237 c 1,11,-1
 419 308 l 2,12,13
 419 345 419 345 385 367.5 c 128,-1,14
 351 390 351 390 296 390 c 0,15,16
 252 390 252 390 154 360 c 0,17,18
 146 358 146 358 144 358 c 0,19,20
 136 358 136 358 130.5 364 c 128,-1,21
 125 370 125 370 125 378 c 0,22,23
 125 393 125 393 142 399 c 0,24,25
 235 431 235 431 299 431 c 0,26,27
 369 431 369 431 414.5 396 c 128,-1,28
 460 361 460 361 460 308 c 2,29,-1
 460 41 l 1,30,-1
 514 41 l 2,31,32
 541 41 541 41 541 21 c 0,33,34
 541 0 541 0 514 0 c 2,35,-1
 419 0 l 1,0,-1
419 112 m 1,36,-1
 419 202 l 1,37,38
 359 217 359 217 291 217 c 0,39,40
 212 217 212 217 162.5 187.5 c 128,-1,41
 113 158 113 158 113 111 c 0,42,43
 113 72 113 72 144 48.5 c 128,-1,44
 175 25 175 25 227 25 c 0,45,46
 280 25 280 25 324.5 45 c 128,-1,47
 369 65 369 65 419 112 c 1,36,-1
290 661 m 0,48,49
 329 661 329 661 356 634.5 c 128,-1,50
 383 608 383 608 383 569 c 0,51,52
 383 533 383 533 355.5 506.5 c 128,-1,53
 328 480 328 480 290 480 c 128,-1,54
 252 480 252 480 224.5 507 c 128,-1,55
 197 534 197 534 197 571 c 128,-1,56
 197 608 197 608 224.5 634.5 c 128,-1,57
 252 661 252 661 290 661 c 0,48,49
290 628 m 128,-1,59
 265 628 265 628 247.5 611 c 128,-1,60
 230 594 230 594 230 571 c 0,61,62
 230 547 230 547 247.5 530 c 128,-1,63
 265 513 265 513 290 513 c 128,-1,64
 315 513 315 513 332.5 530 c 128,-1,65
 350 547 350 547 350 570 c 0,66,67
 350 594 350 594 332.5 611 c 128,-1,58
 315 628 315 628 290 628 c 128,-1,59
EndSplineSet
EndChar

StartChar: ae
Encoding: 230 230 168
Width: 600
GlyphClass: 2
Flags: W
LayerCount: 2
Fore
SplineSet
12 132 m 0,0,1
 12 190 12 190 67.5 223.5 c 128,-1,2
 123 257 123 257 195 257 c 0,3,4
 236 257 236 257 280 245 c 1,5,-1
 280 305 l 2,6,7
 280 340 280 340 254.5 365 c 128,-1,8
 229 390 229 390 192 390 c 0,9,10
 147 390 147 390 108 365 c 0,11,12
 96 358 96 358 90 358 c 0,13,14
 83 358 83 358 77 364.5 c 128,-1,15
 71 371 71 371 71 378 c 0,16,17
 71 394 71 394 100 406 c 0,18,19
 156 431 156 431 199 431 c 0,20,21
 236 431 236 431 267 408 c 128,-1,22
 298 385 298 385 312 347 c 1,23,24
 330 386 330 386 362 408.5 c 128,-1,25
 394 431 394 431 430 431 c 0,26,27
 503 431 503 431 539 368.5 c 128,-1,28
 575 306 575 306 577 199 c 1,29,-1
 319 199 l 1,30,31
 324 123 324 123 360 74 c 128,-1,32
 396 25 396 25 446 25 c 0,33,34
 468 25 468 25 488.5 37 c 128,-1,35
 509 49 509 49 545 82 c 0,36,37
 552 87 552 87 558 87 c 0,38,39
 566 87 566 87 572 81 c 128,-1,40
 578 75 578 75 578 67 c 0,41,42
 578 55 578 55 547 29 c 0,43,44
 487 -16 487 -16 444 -16 c 0,45,46
 370 -16 370 -16 320 61 c 1,47,-1
 320 27 l 2,48,49
 320 0 320 0 300 0 c 128,-1,50
 280 0 280 0 280 27 c 2,51,-1
 280 52 l 1,52,53
 224 -16 224 -16 160 -16 c 128,-1,54
 96 -16 96 -16 54 26 c 128,-1,55
 12 68 12 68 12 132 c 0,0,1
280 110 m 1,56,-1
 280 203 l 1,57,58
 236 216 236 216 201 216 c 0,59,60
 169 216 169 216 132 204 c 128,-1,61
 95 192 95 192 78 176 c 0,62,63
 57 155 57 155 57 121 c 0,64,65
 57 79 57 79 86.5 52 c 128,-1,66
 116 25 116 25 162 25 c 0,67,68
 213 25 213 25 280 110 c 1,56,-1
320 240 m 1,69,-1
 535 240 l 1,70,71
 527 305 527 305 512 335 c 0,72,73
 485 390 485 390 429 390 c 0,74,75
 340 390 340 390 320 240 c 1,69,-1
EndSplineSet
EndChar

StartChar: ccedilla
Encoding: 231 231 169
Width: 600
GlyphClass: 2
Flags: W
LayerCount: 2
Fore
SplineSet
301 -173 m 0,0,1
 277 -173 277 -173 245 -162 c 128,-1,2
 213 -151 213 -151 213 -134 c 0,3,4
 213 -126 213 -126 219 -120 c 128,-1,5
 225 -114 225 -114 233 -114 c 0,6,7
 238 -114 238 -114 248 -119 c 0,8,9
 279 -135 279 -135 299 -135 c 0,10,11
 318 -135 318 -135 330.5 -127 c 128,-1,12
 343 -119 343 -119 343 -106 c 0,13,14
 343 -81 343 -81 298 -81 c 2,15,-1
 277 -81 l 1,16,-1
 277 -14 l 1,17,18
 213 -5 213 -5 172 25 c 0,19,20
 84 89 84 89 84 204 c 0,21,22
 84 303 84 303 149 367 c 128,-1,23
 214 431 214 431 314 431 c 0,24,25
 407 431 407 431 470 376 c 1,26,-1
 470 389 l 2,27,28
 470 417 470 417 491 417 c 0,29,30
 511 417 511 417 511 389 c 2,31,-1
 511 298 l 2,32,33
 511 271 511 271 491 271 c 128,-1,34
 471 271 471 271 470 295 c 0,35,36
 466 335 466 335 420 362.5 c 128,-1,37
 374 390 374 390 311 390 c 0,38,39
 228 390 228 390 176.5 338.5 c 128,-1,40
 125 287 125 287 125 205 c 0,41,42
 125 126 125 126 177 75.5 c 128,-1,43
 229 25 229 25 311 25 c 0,44,45
 420 25 420 25 498 97 c 0,46,47
 508 107 508 107 516 107 c 128,-1,48
 524 107 524 107 529.5 101.5 c 128,-1,49
 535 96 535 96 535 88 c 0,50,51
 535 75 535 75 513.5 55.5 c 128,-1,52
 492 36 492 36 459 19 c 0,53,54
 399 -12 399 -12 315 -16 c 1,55,-1
 315 -47 l 1,56,57
 380 -49 380 -49 380 -108 c 0,58,59
 380 -137 380 -137 358 -155 c 128,-1,60
 336 -173 336 -173 301 -173 c 0,0,1
EndSplineSet
EndChar

StartChar: egrave
Encoding: 232 232 170
Width: 600
GlyphClass: 2
Flags: W
LayerCount: 2
Fore
SplineSet
520 199 m 1,0,-1
 104 199 l 1,1,2
 115 120 115 120 170 72.5 c 128,-1,3
 225 25 225 25 306 25 c 0,4,5
 353 25 353 25 402 40 c 128,-1,6
 451 55 451 55 481 79 c 0,7,8
 491 86 491 86 497 86 c 0,9,10
 505 86 505 86 510.5 80 c 128,-1,11
 516 74 516 74 516 66 c 0,12,13
 516 40 516 40 444.5 12 c 128,-1,14
 373 -16 373 -16 305 -16 c 0,15,16
 204 -16 204 -16 133.5 52 c 128,-1,17
 63 120 63 120 63 217 c 0,18,19
 63 308 63 308 129 369.5 c 128,-1,20
 195 431 195 431 291 431 c 0,21,22
 363 431 363 431 419.5 395 c 128,-1,23
 476 359 476 359 503 297 c 0,24,25
 520 257 520 257 520 199 c 1,0,-1
104 240 m 1,26,-1
 478 240 l 1,27,28
 466 308 466 308 415 349 c 128,-1,29
 364 390 364 390 291 390 c 128,-1,30
 218 390 218 390 168 349.5 c 128,-1,31
 118 309 118 309 104 240 c 1,26,-1
228 630 m 2,32,-1
 342 530 l 1,33,-1
 349 522 l 2,34,35
 354 517 354 517 354 511 c 0,36,37
 354 502 354 502 348 496 c 128,-1,38
 342 490 342 490 333 490 c 0,39,40
 326 490 326 490 315 499 c 2,41,-1
 201 599 l 2,42,43
 189 610 189 610 189 619 c 0,44,45
 189 627 189 627 195 633 c 128,-1,46
 201 639 201 639 209 639 c 0,47,48
 216 639 216 639 228 630 c 2,32,-1
EndSplineSet
EndChar

StartChar: eacute
Encoding: 233 233 171
Width: 600
GlyphClass: 2
Flags: W
LayerCount: 2
Fore
SplineSet
520 199 m 1,0,-1
 104 199 l 1,1,2
 115 120 115 120 170 72.5 c 128,-1,3
 225 25 225 25 306 25 c 0,4,5
 353 25 353 25 402 40 c 128,-1,6
 451 55 451 55 481 79 c 0,7,8
 491 86 491 86 497 86 c 0,9,10
 505 86 505 86 510.5 80 c 128,-1,11
 516 74 516 74 516 66 c 0,12,13
 516 40 516 40 444.5 12 c 128,-1,14
 373 -16 373 -16 305 -16 c 0,15,16
 204 -16 204 -16 133.5 52 c 128,-1,17
 63 120 63 120 63 217 c 0,18,19
 63 308 63 308 129 369.5 c 128,-1,20
 195 431 195 431 291 431 c 0,21,22
 363 431 363 431 419.5 395 c 128,-1,23
 476 359 476 359 503 297 c 0,24,25
 520 257 520 257 520 199 c 1,0,-1
104 240 m 1,26,-1
 478 240 l 1,27,28
 466 308 466 308 415 349 c 128,-1,29
 364 390 364 390 291 390 c 128,-1,30
 218 390 218 390 168 349.5 c 128,-1,31
 118 309 118 309 104 240 c 1,26,-1
402 599 m 2,32,-1
 288 499 l 2,33,34
 276 490 276 490 269 490 c 0,35,36
 261 490 261 490 255 496 c 128,-1,37
 249 502 249 502 249 511 c 0,38,39
 249 519 249 519 261 530 c 2,40,-1
 375 630 l 2,41,42
 387 639 387 639 394 639 c 0,43,44
 402 639 402 639 408 633 c 128,-1,45
 414 627 414 627 414 618 c 0,46,47
 414 610 414 610 402 599 c 2,32,-1
EndSplineSet
EndChar

StartChar: ecircumflex
Encoding: 234 234 172
Width: 600
GlyphClass: 2
Flags: W
LayerCount: 2
Fore
SplineSet
520 199 m 1,0,-1
 104 199 l 1,1,2
 115 120 115 120 170 72.5 c 128,-1,3
 225 25 225 25 306 25 c 0,4,5
 353 25 353 25 402 40 c 128,-1,6
 451 55 451 55 481 79 c 0,7,8
 491 86 491 86 497 86 c 0,9,10
 505 86 505 86 510.5 80 c 128,-1,11
 516 74 516 74 516 66 c 0,12,13
 516 40 516 40 444.5 12 c 128,-1,14
 373 -16 373 -16 305 -16 c 0,15,16
 204 -16 204 -16 133.5 52 c 128,-1,17
 63 120 63 120 63 217 c 0,18,19
 63 308 63 308 129 369.5 c 128,-1,20
 195 431 195 431 291 431 c 0,21,22
 363 431 363 431 419.5 395 c 128,-1,23
 476 359 476 359 503 297 c 0,24,25
 520 257 520 257 520 199 c 1,0,-1
104 240 m 1,26,-1
 478 240 l 1,27,28
 466 308 466 308 415 349 c 128,-1,29
 364 390 364 390 291 390 c 128,-1,30
 218 390 218 390 168 349.5 c 128,-1,31
 118 309 118 309 104 240 c 1,26,-1
305 639 m 1,32,-1
 437 531 l 2,33,34
 450 520 450 520 450 510 c 0,35,36
 450 502 450 502 444 496 c 128,-1,37
 438 490 438 490 430 490 c 0,38,39
 423 490 423 490 412 498 c 2,40,-1
 305 586 l 1,41,-1
 198 498 l 2,42,43
 187 490 187 490 180 490 c 0,44,45
 172 490 172 490 166 496 c 128,-1,46
 160 502 160 502 160 510 c 0,47,48
 160 521 160 521 173 530 c 2,49,-1
 305 639 l 1,32,-1
EndSplineSet
EndChar

StartChar: edieresis
Encoding: 235 235 173
Width: 600
GlyphClass: 2
Flags: W
LayerCount: 2
Fore
SplineSet
520 199 m 1,0,-1
 104 199 l 1,1,2
 115 120 115 120 170 72.5 c 128,-1,3
 225 25 225 25 306 25 c 0,4,5
 353 25 353 25 402 40 c 128,-1,6
 451 55 451 55 481 79 c 0,7,8
 491 86 491 86 497 86 c 0,9,10
 505 86 505 86 510.5 80 c 128,-1,11
 516 74 516 74 516 66 c 0,12,13
 516 40 516 40 444.5 12 c 128,-1,14
 373 -16 373 -16 305 -16 c 0,15,16
 204 -16 204 -16 133.5 52 c 128,-1,17
 63 120 63 120 63 217 c 0,18,19
 63 308 63 308 129 369.5 c 128,-1,20
 195 431 195 431 291 431 c 0,21,22
 363 431 363 431 419.5 395 c 128,-1,23
 476 359 476 359 503 297 c 0,24,25
 520 257 520 257 520 199 c 1,0,-1
104 240 m 1,26,-1
 478 240 l 1,27,28
 466 308 466 308 415 349 c 128,-1,29
 364 390 364 390 291 390 c 128,-1,30
 218 390 218 390 168 349.5 c 128,-1,31
 118 309 118 309 104 240 c 1,26,-1
194 611 m 0,32,33
 215 611 215 611 229.5 596 c 128,-1,34
 244 581 244 581 244 560 c 0,35,36
 244 540 244 540 229 525.5 c 128,-1,37
 214 511 214 511 194 511 c 128,-1,38
 174 511 174 511 159 526 c 128,-1,39
 144 541 144 541 144 561 c 128,-1,40
 144 581 144 581 159 596 c 128,-1,41
 174 611 174 611 194 611 c 0,32,33
415 611 m 0,42,43
 436 611 436 611 450.5 596 c 128,-1,44
 465 581 465 581 465 560 c 0,45,46
 465 540 465 540 450 525.5 c 128,-1,47
 435 511 435 511 415 511 c 128,-1,48
 395 511 395 511 380 526 c 128,-1,49
 365 541 365 541 365 561 c 128,-1,50
 365 581 365 581 380 596 c 128,-1,51
 395 611 395 611 415 611 c 0,42,43
EndSplineSet
EndChar

StartChar: igrave
Encoding: 236 236 174
Width: 600
GlyphClass: 2
Flags: W
LayerCount: 2
Fore
SplineSet
320 417 m 1,0,-1
 320 41 l 1,1,-1
 480 41 l 2,2,3
 508 41 508 41 508 21 c 0,4,5
 508 0 508 0 480 0 c 2,6,-1
 119 0 l 2,7,8
 92 0 92 0 92 21 c 0,9,10
 92 41 92 41 119 41 c 2,11,-1
 279 41 l 1,12,-1
 279 376 l 1,13,-1
 161 376 l 2,14,15
 134 376 134 376 134 397 c 0,16,17
 134 417 134 417 161 417 c 2,18,-1
 320 417 l 1,0,-1
217 630 m 2,19,-1
 331 530 l 1,20,-1
 338 522 l 2,21,22
 343 517 343 517 343 511 c 0,23,24
 343 502 343 502 337 496 c 128,-1,25
 331 490 331 490 322 490 c 0,26,27
 314 490 314 490 304 499 c 2,28,-1
 190 599 l 2,29,30
 178 610 178 610 178 619 c 0,31,32
 178 627 178 627 184 633 c 128,-1,33
 190 639 190 639 198 639 c 0,34,35
 205 639 205 639 217 630 c 2,19,-1
EndSplineSet
EndChar

StartChar: iacute
Encoding: 237 237 175
Width: 600
GlyphClass: 2
Flags: W
LayerCount: 2
Fore
SplineSet
320 417 m 1,0,-1
 320 41 l 1,1,-1
 480 41 l 2,2,3
 508 41 508 41 508 21 c 0,4,5
 508 0 508 0 480 0 c 2,6,-1
 119 0 l 2,7,8
 92 0 92 0 92 21 c 0,9,10
 92 41 92 41 119 41 c 2,11,-1
 279 41 l 1,12,-1
 279 376 l 1,13,-1
 161 376 l 2,14,15
 134 376 134 376 134 397 c 0,16,17
 134 417 134 417 161 417 c 2,18,-1
 320 417 l 1,0,-1
391 599 m 2,19,-1
 277 499 l 2,20,21
 265 490 265 490 258 490 c 0,22,23
 250 490 250 490 244 496 c 128,-1,24
 238 502 238 502 238 511 c 0,25,26
 238 519 238 519 250 530 c 2,27,-1
 364 630 l 2,28,29
 376 639 376 639 383 639 c 0,30,31
 391 639 391 639 397 633 c 128,-1,32
 403 627 403 627 403 618 c 0,33,34
 403 610 403 610 391 599 c 2,19,-1
EndSplineSet
EndChar

StartChar: icircumflex
Encoding: 238 238 176
Width: 600
GlyphClass: 2
Flags: W
LayerCount: 2
Fore
SplineSet
320 417 m 1,0,-1
 320 41 l 1,1,-1
 480 41 l 2,2,3
 508 41 508 41 508 21 c 0,4,5
 508 0 508 0 480 0 c 2,6,-1
 119 0 l 2,7,8
 92 0 92 0 92 21 c 0,9,10
 92 41 92 41 119 41 c 2,11,-1
 279 41 l 1,12,-1
 279 376 l 1,13,-1
 161 376 l 2,14,15
 134 376 134 376 134 397 c 0,16,17
 134 417 134 417 161 417 c 2,18,-1
 320 417 l 1,0,-1
283 639 m 1,19,-1
 415 531 l 2,20,21
 428 520 428 520 428 510 c 0,22,23
 428 502 428 502 422 496 c 128,-1,24
 416 490 416 490 408 490 c 0,25,26
 401 490 401 490 390 498 c 2,27,-1
 283 586 l 1,28,-1
 176 498 l 2,29,30
 165 490 165 490 158 490 c 0,31,32
 150 490 150 490 144 496 c 128,-1,33
 138 502 138 502 138 510 c 0,34,35
 138 521 138 521 151 530 c 2,36,-1
 283 639 l 1,19,-1
EndSplineSet
EndChar

StartChar: idieresis
Encoding: 239 239 177
Width: 600
GlyphClass: 2
Flags: W
LayerCount: 2
Fore
SplineSet
320 417 m 1,0,-1
 320 41 l 1,1,-1
 480 41 l 2,2,3
 508 41 508 41 508 21 c 0,4,5
 508 0 508 0 480 0 c 2,6,-1
 119 0 l 2,7,8
 92 0 92 0 92 21 c 0,9,10
 92 41 92 41 119 41 c 2,11,-1
 279 41 l 1,12,-1
 279 376 l 1,13,-1
 161 376 l 2,14,15
 134 376 134 376 134 397 c 0,16,17
 134 417 134 417 161 417 c 2,18,-1
 320 417 l 1,0,-1
176 611 m 0,19,20
 197 611 197 611 211.5 596 c 128,-1,21
 226 581 226 581 226 560 c 0,22,23
 226 540 226 540 211 525.5 c 128,-1,24
 196 511 196 511 176 511 c 128,-1,25
 156 511 156 511 141 526 c 128,-1,26
 126 541 126 541 126 561 c 128,-1,27
 126 581 126 581 141 596 c 128,-1,28
 156 611 156 611 176 611 c 0,19,20
398 611 m 0,29,30
 419 611 419 611 433.5 596 c 128,-1,31
 448 581 448 581 448 560 c 0,32,33
 448 540 448 540 433 525.5 c 128,-1,34
 418 511 418 511 398 511 c 128,-1,35
 378 511 378 511 363 526 c 128,-1,36
 348 541 348 541 348 561 c 128,-1,37
 348 581 348 581 363 596 c 128,-1,38
 378 611 378 611 398 611 c 0,29,30
EndSplineSet
EndChar

StartChar: eth
Encoding: 240 240 178
Width: 600
GlyphClass: 2
Flags: W
LayerCount: 2
Fore
SplineSet
440 577 m 2,0,-1
 365 543 l 1,1,2
 440 479 440 479 484 391.5 c 128,-1,3
 528 304 528 304 528 221 c 0,4,5
 528 114 528 114 462 48 c 0,6,7
 395 -17 395 -17 300 -17 c 128,-1,8
 205 -17 205 -17 138.5 48 c 128,-1,9
 72 113 72 113 72 207 c 0,10,11
 72 299 72 299 138 364.5 c 128,-1,12
 204 430 204 430 298 430 c 0,13,14
 339 430 339 430 371 418 c 128,-1,15
 403 406 403 406 444 377 c 1,16,17
 391 476 391 476 323 525 c 1,18,-1
 232 483 l 2,19,20
 230 482 230 482 225 482 c 0,21,22
 217 482 217 482 211 489 c 128,-1,23
 205 496 205 496 205 505 c 0,24,25
 205 518 205 518 214 521 c 2,26,-1
 277 549 l 1,27,28
 225 571 225 571 179 580 c 0,29,30
 159 584 159 584 159 598 c 0,31,32
 159 608 159 608 165 614 c 128,-1,33
 171 620 171 620 180 620 c 0,34,35
 227 620 227 620 328 572 c 1,36,-1
 423 614 l 1,37,-1
 430 615 l 2,38,39
 438 615 438 615 443.5 609 c 128,-1,40
 449 603 449 603 449 594 c 0,41,42
 449 581 449 581 440 577 c 2,0,-1
301 390 m 0,43,44
 223 390 223 390 168.5 337 c 128,-1,45
 114 284 114 284 114 208 c 128,-1,46
 114 132 114 132 168.5 78.5 c 128,-1,47
 223 25 223 25 301 25 c 0,48,49
 378 25 378 25 433 78 c 128,-1,50
 488 131 488 131 488 205 c 0,51,52
 488 284 488 284 434 337 c 128,-1,53
 380 390 380 390 301 390 c 0,43,44
EndSplineSet
EndChar

StartChar: ntilde
Encoding: 241 241 179
Width: 600
GlyphClass: 2
Flags: W
LayerCount: 2
Fore
SplineSet
167 417 m 1,0,-1
 167 348 l 1,1,2
 210 396 210 396 243 413.5 c 128,-1,3
 276 431 276 431 323 431 c 0,4,5
 390 431 390 431 435 392 c 128,-1,6
 480 353 480 353 480 295 c 2,7,-1
 480 41 l 1,8,-1
 514 41 l 2,9,10
 541 41 541 41 541 21 c 0,11,12
 541 0 541 0 514 0 c 2,13,-1
 405 0 l 2,14,15
 378 0 378 0 378 21 c 0,16,17
 378 41 378 41 405 41 c 2,18,-1
 439 41 l 1,19,-1
 439 288 l 2,20,21
 439 332 439 332 401 364 c 0,22,23
 370 390 370 390 319 390 c 0,24,25
 264 390 264 390 224 357 c 0,26,27
 206 344 206 344 167 294 c 1,28,-1
 167 41 l 1,29,-1
 212 41 l 2,30,31
 239 41 239 41 239 21 c 0,32,33
 239 0 239 0 212 0 c 2,34,-1
 81 0 l 2,35,36
 53 0 53 0 53 21 c 0,37,38
 53 41 53 41 81 41 c 2,39,-1
 126 41 l 1,40,-1
 126 376 l 1,41,-1
 92 376 l 2,42,43
 65 376 65 376 65 397 c 0,44,45
 65 417 65 417 92 417 c 2,46,-1
 167 417 l 1,0,-1
425 603 m 128,-1,48
 433 603 433 603 439 597 c 128,-1,49
 445 591 445 591 445 583 c 0,50,51
 445 573 445 573 423 552 c 0,52,53
 387 516 387 516 354 516 c 0,54,55
 325 516 325 516 273 547 c 0,56,57
 247 564 247 564 230 564 c 0,58,59
 215 564 215 564 204.5 557 c 128,-1,60
 194 550 194 550 172 527 c 0,61,62
 166 519 166 519 155 519 c 0,63,64
 147 519 147 519 141 524.5 c 128,-1,65
 135 530 135 530 135 538 c 0,66,67
 135 549 135 549 154 568 c 0,68,69
 194 605 194 605 229 605 c 0,70,71
 254 605 254 605 293 582 c 0,72,73
 338 557 338 557 352 557 c 0,74,75
 365 557 365 557 375.5 564.5 c 128,-1,76
 386 572 386 572 409 595 c 0,77,47
 417 603 417 603 425 603 c 128,-1,48
EndSplineSet
EndChar

StartChar: ograve
Encoding: 242 242 180
Width: 600
GlyphClass: 2
Flags: W
LayerCount: 2
Fore
SplineSet
300 431 m 0,0,1
 396 431 396 431 462 365.5 c 128,-1,2
 528 300 528 300 528 205 c 0,3,4
 528 113 528 113 461 48.5 c 128,-1,5
 394 -16 394 -16 300 -16 c 0,6,7
 205 -16 205 -16 138.5 49 c 128,-1,8
 72 114 72 114 72 208 c 0,9,10
 72 300 72 300 138.5 365.5 c 128,-1,11
 205 431 205 431 300 431 c 0,0,1
300 390 m 0,12,13
 222 390 222 390 167.5 337 c 128,-1,14
 113 284 113 284 113 208 c 128,-1,15
 113 132 113 132 167.5 78.5 c 128,-1,16
 222 25 222 25 300 25 c 0,17,18
 377 25 377 25 432 78 c 128,-1,19
 487 131 487 131 487 205 c 0,20,21
 487 284 487 284 433 337 c 128,-1,22
 379 390 379 390 300 390 c 0,12,13
230 630 m 2,23,-1
 344 530 l 1,24,-1
 351 522 l 2,25,26
 356 517 356 517 356 511 c 0,27,28
 356 502 356 502 350 496 c 128,-1,29
 344 490 344 490 335 490 c 0,30,31
 328 490 328 490 317 499 c 2,32,-1
 203 599 l 2,33,34
 191 610 191 610 191 619 c 0,35,36
 191 627 191 627 197 633 c 128,-1,37
 203 639 203 639 211 639 c 0,38,39
 218 639 218 639 230 630 c 2,23,-1
EndSplineSet
EndChar

StartChar: oacute
Encoding: 243 243 181
Width: 600
GlyphClass: 2
Flags: W
LayerCount: 2
Fore
SplineSet
300 431 m 0,0,1
 396 431 396 431 462 365.5 c 128,-1,2
 528 300 528 300 528 205 c 0,3,4
 528 113 528 113 461 48.5 c 128,-1,5
 394 -16 394 -16 300 -16 c 0,6,7
 205 -16 205 -16 138.5 49 c 128,-1,8
 72 114 72 114 72 208 c 0,9,10
 72 300 72 300 138.5 365.5 c 128,-1,11
 205 431 205 431 300 431 c 0,0,1
300 390 m 0,12,13
 222 390 222 390 167.5 337 c 128,-1,14
 113 284 113 284 113 208 c 128,-1,15
 113 132 113 132 167.5 78.5 c 128,-1,16
 222 25 222 25 300 25 c 0,17,18
 377 25 377 25 432 78 c 128,-1,19
 487 131 487 131 487 205 c 0,20,21
 487 284 487 284 433 337 c 128,-1,22
 379 390 379 390 300 390 c 0,12,13
398 599 m 2,23,-1
 284 499 l 2,24,25
 272 490 272 490 265 490 c 0,26,27
 257 490 257 490 251 496 c 128,-1,28
 245 502 245 502 245 511 c 0,29,30
 245 519 245 519 257 530 c 2,31,-1
 371 630 l 2,32,33
 383 639 383 639 390 639 c 0,34,35
 398 639 398 639 404 633 c 128,-1,36
 410 627 410 627 410 618 c 0,37,38
 410 610 410 610 398 599 c 2,23,-1
EndSplineSet
EndChar

StartChar: ocircumflex
Encoding: 244 244 182
Width: 600
GlyphClass: 2
Flags: W
LayerCount: 2
Fore
SplineSet
300 431 m 0,0,1
 396 431 396 431 462 365.5 c 128,-1,2
 528 300 528 300 528 205 c 0,3,4
 528 113 528 113 461 48.5 c 128,-1,5
 394 -16 394 -16 300 -16 c 0,6,7
 205 -16 205 -16 138.5 49 c 128,-1,8
 72 114 72 114 72 208 c 0,9,10
 72 300 72 300 138.5 365.5 c 128,-1,11
 205 431 205 431 300 431 c 0,0,1
300 390 m 0,12,13
 222 390 222 390 167.5 337 c 128,-1,14
 113 284 113 284 113 208 c 128,-1,15
 113 132 113 132 167.5 78.5 c 128,-1,16
 222 25 222 25 300 25 c 0,17,18
 377 25 377 25 432 78 c 128,-1,19
 487 131 487 131 487 205 c 0,20,21
 487 284 487 284 433 337 c 128,-1,22
 379 390 379 390 300 390 c 0,12,13
300 639 m 1,23,-1
 432 531 l 2,24,25
 445 520 445 520 445 510 c 0,26,27
 445 502 445 502 439 496 c 128,-1,28
 433 490 433 490 425 490 c 0,29,30
 418 490 418 490 407 498 c 2,31,-1
 300 586 l 1,32,-1
 193 498 l 2,33,34
 182 490 182 490 175 490 c 0,35,36
 167 490 167 490 161 496 c 128,-1,37
 155 502 155 502 155 510 c 0,38,39
 155 521 155 521 168 530 c 2,40,-1
 300 639 l 1,23,-1
EndSplineSet
EndChar

StartChar: otilde
Encoding: 245 245 183
Width: 600
GlyphClass: 2
Flags: W
LayerCount: 2
Fore
SplineSet
300 431 m 0,0,1
 396 431 396 431 462 365.5 c 128,-1,2
 528 300 528 300 528 205 c 0,3,4
 528 113 528 113 461 48.5 c 128,-1,5
 394 -16 394 -16 300 -16 c 0,6,7
 205 -16 205 -16 138.5 49 c 128,-1,8
 72 114 72 114 72 208 c 0,9,10
 72 300 72 300 138.5 365.5 c 128,-1,11
 205 431 205 431 300 431 c 0,0,1
300 390 m 0,12,13
 222 390 222 390 167.5 337 c 128,-1,14
 113 284 113 284 113 208 c 128,-1,15
 113 132 113 132 167.5 78.5 c 128,-1,16
 222 25 222 25 300 25 c 0,17,18
 377 25 377 25 432 78 c 128,-1,19
 487 131 487 131 487 205 c 0,20,21
 487 284 487 284 433 337 c 128,-1,22
 379 390 379 390 300 390 c 0,12,13
441 603 m 128,-1,24
 449 603 449 603 455 597 c 128,-1,25
 461 591 461 591 461 583 c 0,26,27
 461 573 461 573 439 552 c 0,28,29
 403 516 403 516 370 516 c 0,30,31
 341 516 341 516 289 547 c 0,32,33
 263 564 263 564 246 564 c 0,34,35
 231 564 231 564 220.5 557 c 128,-1,36
 210 550 210 550 188 527 c 0,37,38
 182 519 182 519 171 519 c 0,39,40
 163 519 163 519 157 524.5 c 128,-1,41
 151 530 151 530 151 538 c 0,42,43
 151 549 151 549 170 568 c 0,44,45
 210 605 210 605 245 605 c 0,46,47
 270 605 270 605 309 582 c 0,48,49
 354 557 354 557 368 557 c 0,50,51
 381 557 381 557 391.5 564.5 c 128,-1,52
 402 572 402 572 425 595 c 0,53,23
 433 603 433 603 441 603 c 128,-1,24
EndSplineSet
EndChar

StartChar: odieresis
Encoding: 246 246 184
Width: 600
GlyphClass: 2
Flags: W
LayerCount: 2
Fore
SplineSet
300 431 m 0,0,1
 396 431 396 431 462 365.5 c 128,-1,2
 528 300 528 300 528 205 c 0,3,4
 528 113 528 113 461 48.5 c 128,-1,5
 394 -16 394 -16 300 -16 c 0,6,7
 205 -16 205 -16 138.5 49 c 128,-1,8
 72 114 72 114 72 208 c 0,9,10
 72 300 72 300 138.5 365.5 c 128,-1,11
 205 431 205 431 300 431 c 0,0,1
300 390 m 0,12,13
 222 390 222 390 167.5 337 c 128,-1,14
 113 284 113 284 113 208 c 128,-1,15
 113 132 113 132 167.5 78.5 c 128,-1,16
 222 25 222 25 300 25 c 0,17,18
 377 25 377 25 432 78 c 128,-1,19
 487 131 487 131 487 205 c 0,20,21
 487 284 487 284 433 337 c 128,-1,22
 379 390 379 390 300 390 c 0,12,13
189 611 m 0,23,24
 210 611 210 611 224.5 596 c 128,-1,25
 239 581 239 581 239 560 c 0,26,27
 239 540 239 540 224 525.5 c 128,-1,28
 209 511 209 511 189 511 c 128,-1,29
 169 511 169 511 154 526 c 128,-1,30
 139 541 139 541 139 561 c 128,-1,31
 139 581 139 581 154 596 c 128,-1,32
 169 611 169 611 189 611 c 0,23,24
410 611 m 0,33,34
 431 611 431 611 445.5 596 c 128,-1,35
 460 581 460 581 460 560 c 0,36,37
 460 540 460 540 445 525.5 c 128,-1,38
 430 511 430 511 410 511 c 128,-1,39
 390 511 390 511 375 526 c 128,-1,40
 360 541 360 541 360 561 c 128,-1,41
 360 581 360 581 375 596 c 128,-1,42
 390 611 390 611 410 611 c 0,33,34
EndSplineSet
EndChar

StartChar: divide
Encoding: 247 247 185
Width: 600
GlyphClass: 2
Flags: W
LayerCount: 2
Fore
SplineSet
501 262 m 2,0,-1
 99 262 l 2,1,2
 72 262 72 262 72 282 c 128,-1,3
 72 302 72 302 99 302 c 2,4,-1
 501 302 l 2,5,6
 528 302 528 302 528 282 c 128,-1,7
 528 262 528 262 501 262 c 2,0,-1
300 124 m 0,8,9
 321 124 321 124 335.5 109.5 c 128,-1,10
 350 95 350 95 350 74 c 0,11,12
 350 54 350 54 335 39.5 c 128,-1,13
 320 25 320 25 300 25 c 128,-1,14
 280 25 280 25 265.5 39.5 c 128,-1,15
 251 54 251 54 251 75 c 0,16,17
 251 95 251 95 265.5 109.5 c 128,-1,18
 280 124 280 124 300 124 c 0,8,9
300 540 m 0,19,20
 321 540 321 540 335.5 525.5 c 128,-1,21
 350 511 350 511 350 490 c 0,22,23
 350 470 350 470 335 455.5 c 128,-1,24
 320 441 320 441 300 441 c 128,-1,25
 280 441 280 441 265.5 455.5 c 128,-1,26
 251 470 251 470 251 491 c 0,27,28
 251 511 251 511 265.5 525.5 c 128,-1,29
 280 540 280 540 300 540 c 0,19,20
EndSplineSet
EndChar

StartChar: oslash
Encoding: 248 248 186
Width: 600
GlyphClass: 2
Flags: W
LayerCount: 2
Fore
SplineSet
154 35 m 1,0,-1
 88 -33 l 2,1,2
 78 -43 78 -43 71 -43 c 128,-1,3
 64 -43 64 -43 58.5 -37.5 c 128,-1,4
 53 -32 53 -32 53 -25 c 128,-1,5
 53 -18 53 -18 63 -8 c 2,6,-1
 129 59 l 1,7,8
 72 125 72 125 72 208 c 0,9,10
 72 301 72 301 138.5 366 c 128,-1,11
 205 431 205 431 300 431 c 0,12,13
 382 431 382 431 444 382 c 1,14,-1
 508 448 l 2,15,16
 519 458 519 458 526 458 c 128,-1,17
 533 458 533 458 538 452.5 c 128,-1,18
 543 447 543 447 543 440 c 128,-1,19
 543 433 543 433 533 423 c 2,20,-1
 469 358 l 1,21,22
 528 293 528 293 528 207 c 0,23,24
 528 114 528 114 461.5 49 c 128,-1,25
 395 -16 395 -16 300 -16 c 0,26,27
 220 -16 220 -16 154 35 c 1,0,-1
441 329 m 1,28,-1
 183 65 l 1,29,30
 234 25 234 25 300 25 c 0,31,32
 378 25 378 25 432.5 78 c 128,-1,33
 487 131 487 131 487 207 c 0,34,35
 487 275 487 275 441 329 c 1,28,-1
158 89 m 1,36,-1
 415 352 l 1,37,38
 365 390 365 390 300 390 c 0,39,40
 222 390 222 390 167.5 337 c 128,-1,41
 113 284 113 284 113 208 c 0,42,43
 113 140 113 140 158 89 c 1,36,-1
EndSplineSet
EndChar

StartChar: ugrave
Encoding: 249 249 187
Width: 600
GlyphClass: 2
Flags: W
LayerCount: 2
Fore
SplineSet
439 0 m 1,0,-1
 439 66 l 1,1,2
 355 -16 355 -16 257 -16 c 0,3,4
 197 -16 197 -16 160.5 20 c 128,-1,5
 124 56 124 56 124 115 c 2,6,-1
 124 376 l 1,7,-1
 70 376 l 2,8,9
 43 376 43 376 43 397 c 0,10,11
 43 417 43 417 70 417 c 2,12,-1
 165 417 l 1,13,-1
 165 115 l 2,14,15
 165 77 165 77 191.5 51 c 128,-1,16
 218 25 218 25 256 25 c 0,17,18
 356 25 356 25 439 115 c 1,19,-1
 439 376 l 1,20,-1
 365 376 l 2,21,22
 337 376 337 376 337 397 c 0,23,24
 337 417 337 417 365 417 c 2,25,-1
 480 417 l 1,26,-1
 480 41 l 1,27,-1
 514 41 l 2,28,29
 541 41 541 41 541 21 c 0,30,31
 541 0 541 0 514 0 c 2,32,-1
 439 0 l 1,0,-1
222 630 m 2,33,-1
 336 530 l 1,34,-1
 343 522 l 2,35,36
 348 517 348 517 348 511 c 0,37,38
 348 502 348 502 342 496 c 128,-1,39
 336 490 336 490 327 490 c 0,40,41
 320 490 320 490 309 499 c 2,42,-1
 195 599 l 2,43,44
 183 610 183 610 183 619 c 0,45,46
 183 627 183 627 189 633 c 128,-1,47
 195 639 195 639 203 639 c 0,48,49
 210 639 210 639 222 630 c 2,33,-1
EndSplineSet
EndChar

StartChar: uacute
Encoding: 250 250 188
Width: 600
GlyphClass: 2
Flags: W
LayerCount: 2
Fore
SplineSet
439 0 m 1,0,-1
 439 66 l 1,1,2
 355 -16 355 -16 257 -16 c 0,3,4
 197 -16 197 -16 160.5 20 c 128,-1,5
 124 56 124 56 124 115 c 2,6,-1
 124 376 l 1,7,-1
 70 376 l 2,8,9
 43 376 43 376 43 397 c 0,10,11
 43 417 43 417 70 417 c 2,12,-1
 165 417 l 1,13,-1
 165 115 l 2,14,15
 165 77 165 77 191.5 51 c 128,-1,16
 218 25 218 25 256 25 c 0,17,18
 356 25 356 25 439 115 c 1,19,-1
 439 376 l 1,20,-1
 365 376 l 2,21,22
 337 376 337 376 337 397 c 0,23,24
 337 417 337 417 365 417 c 2,25,-1
 480 417 l 1,26,-1
 480 41 l 1,27,-1
 514 41 l 2,28,29
 541 41 541 41 541 21 c 0,30,31
 541 0 541 0 514 0 c 2,32,-1
 439 0 l 1,0,-1
383 599 m 2,33,-1
 269 499 l 2,34,35
 257 490 257 490 250 490 c 0,36,37
 242 490 242 490 236 496 c 128,-1,38
 230 502 230 502 230 511 c 0,39,40
 230 519 230 519 242 530 c 2,41,-1
 356 630 l 2,42,43
 368 639 368 639 375 639 c 0,44,45
 383 639 383 639 389 633 c 128,-1,46
 395 627 395 627 395 618 c 0,47,48
 395 610 395 610 383 599 c 2,33,-1
EndSplineSet
EndChar

StartChar: ucircumflex
Encoding: 251 251 189
Width: 600
GlyphClass: 2
Flags: W
LayerCount: 2
Fore
SplineSet
439 0 m 1,0,-1
 439 66 l 1,1,2
 355 -16 355 -16 257 -16 c 0,3,4
 197 -16 197 -16 160.5 20 c 128,-1,5
 124 56 124 56 124 115 c 2,6,-1
 124 376 l 1,7,-1
 70 376 l 2,8,9
 43 376 43 376 43 397 c 0,10,11
 43 417 43 417 70 417 c 2,12,-1
 165 417 l 1,13,-1
 165 115 l 2,14,15
 165 77 165 77 191.5 51 c 128,-1,16
 218 25 218 25 256 25 c 0,17,18
 356 25 356 25 439 115 c 1,19,-1
 439 376 l 1,20,-1
 365 376 l 2,21,22
 337 376 337 376 337 397 c 0,23,24
 337 417 337 417 365 417 c 2,25,-1
 480 417 l 1,26,-1
 480 41 l 1,27,-1
 514 41 l 2,28,29
 541 41 541 41 541 21 c 0,30,31
 541 0 541 0 514 0 c 2,32,-1
 439 0 l 1,0,-1
292 639 m 1,33,-1
 424 531 l 2,34,35
 437 520 437 520 437 510 c 0,36,37
 437 502 437 502 431 496 c 128,-1,38
 425 490 425 490 417 490 c 0,39,40
 410 490 410 490 399 498 c 2,41,-1
 292 586 l 1,42,-1
 185 498 l 2,43,44
 174 490 174 490 167 490 c 0,45,46
 159 490 159 490 153 496 c 128,-1,47
 147 502 147 502 147 510 c 0,48,49
 147 521 147 521 160 530 c 2,50,-1
 292 639 l 1,33,-1
EndSplineSet
EndChar

StartChar: udieresis
Encoding: 252 252 190
Width: 600
GlyphClass: 2
Flags: W
LayerCount: 2
Fore
SplineSet
439 0 m 1,0,-1
 439 66 l 1,1,2
 355 -16 355 -16 257 -16 c 0,3,4
 197 -16 197 -16 160.5 20 c 128,-1,5
 124 56 124 56 124 115 c 2,6,-1
 124 376 l 1,7,-1
 70 376 l 2,8,9
 43 376 43 376 43 397 c 0,10,11
 43 417 43 417 70 417 c 2,12,-1
 165 417 l 1,13,-1
 165 115 l 2,14,15
 165 77 165 77 191.5 51 c 128,-1,16
 218 25 218 25 256 25 c 0,17,18
 356 25 356 25 439 115 c 1,19,-1
 439 376 l 1,20,-1
 365 376 l 2,21,22
 337 376 337 376 337 397 c 0,23,24
 337 417 337 417 365 417 c 2,25,-1
 480 417 l 1,26,-1
 480 41 l 1,27,-1
 514 41 l 2,28,29
 541 41 541 41 541 21 c 0,30,31
 541 0 541 0 514 0 c 2,32,-1
 439 0 l 1,0,-1
181 611 m 0,33,34
 202 611 202 611 216.5 596 c 128,-1,35
 231 581 231 581 231 560 c 0,36,37
 231 540 231 540 216 525.5 c 128,-1,38
 201 511 201 511 181 511 c 128,-1,39
 161 511 161 511 146 526 c 128,-1,40
 131 541 131 541 131 561 c 128,-1,41
 131 581 131 581 146 596 c 128,-1,42
 161 611 161 611 181 611 c 0,33,34
402 611 m 0,43,44
 423 611 423 611 437.5 596 c 128,-1,45
 452 581 452 581 452 560 c 0,46,47
 452 540 452 540 437 525.5 c 128,-1,48
 422 511 422 511 402 511 c 128,-1,49
 382 511 382 511 367 526 c 128,-1,50
 352 541 352 541 352 561 c 128,-1,51
 352 581 352 581 367 596 c 128,-1,52
 382 611 382 611 402 611 c 0,43,44
EndSplineSet
EndChar

StartChar: yacute
Encoding: 253 253 191
Width: 600
GlyphClass: 2
Flags: W
LayerCount: 2
Fore
SplineSet
282 0 m 1,0,-1
 94 376 l 1,1,-1
 78 376 l 2,2,3
 51 376 51 376 51 397 c 0,4,5
 51 417 51 417 78 417 c 2,6,-1
 193 417 l 2,7,8
 220 417 220 417 220 397 c 0,9,10
 220 376 220 376 193 376 c 2,11,-1
 141 376 l 1,12,-1
 305 45 l 1,13,-1
 466 376 l 1,14,-1
 412 376 l 2,15,16
 385 376 385 376 385 397 c 0,17,18
 385 417 385 417 412 417 c 2,19,-1
 522 417 l 2,20,21
 549 417 549 417 549 397 c 0,22,23
 549 376 549 376 522 376 c 2,24,-1
 508 376 l 1,25,-1
 252 -145 l 1,26,-1
 317 -145 l 2,27,28
 344 -145 344 -145 344 -165 c 0,29,30
 344 -186 344 -186 317 -186 c 2,31,-1
 84 -186 l 2,32,33
 57 -186 57 -186 57 -165 c 0,34,35
 57 -145 57 -145 84 -145 c 2,36,-1
 211 -145 l 1,37,-1
 282 0 l 1,0,-1
433 599 m 2,38,-1
 319 499 l 2,39,40
 307 490 307 490 300 490 c 0,41,42
 292 490 292 490 286 496 c 128,-1,43
 280 502 280 502 280 511 c 0,44,45
 280 519 280 519 292 530 c 2,46,-1
 406 630 l 2,47,48
 418 639 418 639 425 639 c 0,49,50
 433 639 433 639 439 633 c 128,-1,51
 445 627 445 627 445 618 c 0,52,53
 445 610 445 610 433 599 c 2,38,-1
EndSplineSet
EndChar

StartChar: thorn
Encoding: 254 254 192
Width: 600
GlyphClass: 2
Flags: W
LayerCount: 2
Fore
SplineSet
144 590 m 1,0,-1
 144 335 l 1,1,2
 184 387 184 387 225 409 c 128,-1,3
 266 431 266 431 323 431 c 0,4,5
 416 431 416 431 478.5 370.5 c 128,-1,6
 541 310 541 310 541 221 c 128,-1,7
 541 132 541 132 478 71 c 128,-1,8
 415 10 415 10 323 10 c 0,9,10
 211 10 211 10 144 106 c 1,11,-1
 144 -145 l 1,12,-1
 242 -145 l 2,13,14
 269 -145 269 -145 269 -165 c 0,15,16
 269 -186 269 -186 242 -186 c 2,17,-1
 49 -186 l 2,18,19
 22 -186 22 -186 22 -165 c 0,20,21
 22 -145 22 -145 49 -145 c 2,22,-1
 103 -145 l 1,23,-1
 103 549 l 1,24,-1
 49 549 l 2,25,26
 22 549 22 549 22 570 c 0,27,28
 22 590 22 590 49 590 c 2,29,-1
 144 590 l 1,0,-1
322 390 m 0,30,31
 248 390 248 390 196 340.5 c 128,-1,32
 144 291 144 291 144 221 c 0,33,34
 144 150 144 150 196 100.5 c 128,-1,35
 248 51 248 51 322 51 c 128,-1,36
 396 51 396 51 448 100 c 128,-1,37
 500 149 500 149 500 219 c 0,38,39
 500 292 500 292 449 341 c 128,-1,40
 398 390 398 390 322 390 c 0,30,31
EndSplineSet
EndChar

StartChar: ydieresis
Encoding: 255 255 193
Width: 600
GlyphClass: 2
Flags: W
LayerCount: 2
Fore
SplineSet
282 0 m 1,0,-1
 94 376 l 1,1,-1
 78 376 l 2,2,3
 51 376 51 376 51 397 c 0,4,5
 51 417 51 417 78 417 c 2,6,-1
 193 417 l 2,7,8
 220 417 220 417 220 397 c 0,9,10
 220 376 220 376 193 376 c 2,11,-1
 141 376 l 1,12,-1
 305 45 l 1,13,-1
 466 376 l 1,14,-1
 412 376 l 2,15,16
 385 376 385 376 385 397 c 0,17,18
 385 417 385 417 412 417 c 2,19,-1
 522 417 l 2,20,21
 549 417 549 417 549 397 c 0,22,23
 549 376 549 376 522 376 c 2,24,-1
 508 376 l 1,25,-1
 252 -145 l 1,26,-1
 317 -145 l 2,27,28
 344 -145 344 -145 344 -165 c 0,29,30
 344 -186 344 -186 317 -186 c 2,31,-1
 84 -186 l 2,32,33
 57 -186 57 -186 57 -165 c 0,34,35
 57 -145 57 -145 84 -145 c 2,36,-1
 211 -145 l 1,37,-1
 282 0 l 1,0,-1
189 611 m 0,38,39
 210 611 210 611 224.5 596 c 128,-1,40
 239 581 239 581 239 560 c 0,41,42
 239 540 239 540 224 525.5 c 128,-1,43
 209 511 209 511 189 511 c 128,-1,44
 169 511 169 511 154 526 c 128,-1,45
 139 541 139 541 139 561 c 128,-1,46
 139 581 139 581 154 596 c 128,-1,47
 169 611 169 611 189 611 c 0,38,39
410 611 m 0,48,49
 431 611 431 611 445.5 596 c 128,-1,50
 460 581 460 581 460 560 c 0,51,52
 460 540 460 540 445 525.5 c 128,-1,53
 430 511 430 511 410 511 c 128,-1,54
 390 511 390 511 375 526 c 128,-1,55
 360 541 360 541 360 561 c 128,-1,56
 360 581 360 581 375 596 c 128,-1,57
 390 611 390 611 410 611 c 0,48,49
EndSplineSet
EndChar

StartChar: dotlessi
Encoding: 305 305 194
Width: 600
GlyphClass: 2
Flags: W
LayerCount: 2
Fore
SplineSet
320 417 m 1,0,-1
 320 41 l 1,1,-1
 480 41 l 2,2,3
 508 41 508 41 508 21 c 0,4,5
 508 0 508 0 480 0 c 2,6,-1
 119 0 l 2,7,8
 92 0 92 0 92 21 c 0,9,10
 92 41 92 41 119 41 c 2,11,-1
 279 41 l 1,12,-1
 279 376 l 1,13,-1
 161 376 l 2,14,15
 134 376 134 376 134 397 c 0,16,17
 134 417 134 417 161 417 c 2,18,-1
 320 417 l 1,0,-1
EndSplineSet
EndChar

StartChar: OE
Encoding: 338 338 195
Width: 600
GlyphClass: 2
Flags: W
LayerCount: 2
Fore
SplineSet
10 282 m 0,0,1
 10 403 10 403 77 483 c 128,-1,2
 144 563 144 563 255 563 c 2,3,-1
 570 563 l 1,4,-1
 570 409 l 2,5,6
 570 382 570 382 550 382 c 0,7,8
 529 382 529 382 529 409 c 2,9,-1
 529 522 l 1,10,-1
 338 522 l 1,11,-1
 338 313 l 1,12,-1
 416 313 l 1,13,-1
 416 340 l 2,14,15
 416 367 416 367 437 367 c 0,16,17
 457 367 457 367 457 340 c 2,18,-1
 457 244 l 2,19,20
 457 217 457 217 437 217 c 0,21,22
 416 217 416 217 416 244 c 2,23,-1
 416 272 l 1,24,-1
 338 272 l 1,25,-1
 338 41 l 1,26,-1
 549 41 l 1,27,-1
 549 133 l 2,28,29
 549 160 549 160 569 160 c 0,30,31
 590 160 590 160 590 133 c 2,32,-1
 590 0 l 1,33,-1
 263 0 l 2,34,35
 147 0 147 0 78.5 79.5 c 128,-1,36
 10 159 10 159 10 282 c 0,0,1
51 281 m 0,37,38
 51 173 51 173 106 107 c 128,-1,39
 161 41 161 41 265 41 c 2,40,-1
 297 41 l 1,41,-1
 297 522 l 1,42,-1
 265 522 l 2,43,44
 160 522 160 522 105.5 456 c 128,-1,45
 51 390 51 390 51 281 c 0,37,38
EndSplineSet
EndChar

StartChar: oe
Encoding: 339 339 196
Width: 600
GlyphClass: 2
Flags: W
LayerCount: 2
Fore
SplineSet
12 212 m 0,0,1
 12 293 12 293 55 362 c 128,-1,2
 98 431 98 431 165 431 c 0,3,4
 211 431 211 431 245.5 397.5 c 128,-1,5
 280 364 280 364 299 317 c 1,6,7
 344 431 344 431 431 431 c 0,8,9
 482 431 482 431 515.5 396 c 128,-1,10
 549 361 549 361 563 313 c 0,11,12
 577 263 577 263 577 199 c 1,13,-1
 319 199 l 1,14,15
 324 132 324 132 358 78.5 c 128,-1,16
 392 25 392 25 446 25 c 0,17,18
 484 25 484 25 534 72 c 0,19,20
 550 87 550 87 558 87 c 256,21,22
 566 87 566 87 572 80.5 c 128,-1,23
 578 74 578 74 578 67 c 0,24,25
 578 48 578 48 531 16 c 128,-1,26
 484 -16 484 -16 444 -16 c 0,27,28
 394 -16 394 -16 357 18.5 c 128,-1,29
 320 53 320 53 299 103 c 1,30,31
 252 -16 252 -16 166 -16 c 0,32,33
 99 -16 99 -16 55.5 56.5 c 128,-1,34
 12 129 12 129 12 212 c 0,0,1
536 240 m 1,35,36
 531 273 531 273 526 294 c 128,-1,37
 521 315 521 315 509.5 340 c 128,-1,38
 498 365 498 365 478 377.5 c 128,-1,39
 458 390 458 390 429 390 c 0,40,41
 340 390 340 390 320 240 c 1,42,-1
 536 240 l 1,35,36
280 206 m 0,43,44
 280 272 280 272 248.5 331 c 128,-1,45
 217 390 217 390 166 390 c 0,46,47
 116 390 116 390 84.5 331.5 c 128,-1,48
 53 273 53 273 53 208 c 0,49,50
 53 142 53 142 85 83.5 c 128,-1,51
 117 25 117 25 167 25 c 0,52,53
 216 25 216 25 248 83.5 c 128,-1,54
 280 142 280 142 280 206 c 0,43,44
EndSplineSet
EndChar

StartChar: dotlessj
Encoding: 567 567 197
Width: 600
GlyphClass: 2
Flags: W
LayerCount: 2
Fore
SplineSet
417 376 m 1,0,-1
 176 376 l 2,1,2
 149 376 149 376 149 397 c 0,3,4
 149 417 149 417 176 417 c 2,5,-1
 458 417 l 1,6,-1
 458 -28 l 2,7,8
 458 -98 458 -98 414.5 -142 c 128,-1,9
 371 -186 371 -186 303 -186 c 2,10,-1
 174 -186 l 2,11,12
 147 -186 147 -186 147 -165 c 0,13,14
 147 -145 147 -145 174 -145 c 2,15,-1
 302 -145 l 2,16,17
 352 -145 352 -145 384.5 -112 c 128,-1,18
 417 -79 417 -79 417 -28 c 2,19,-1
 417 376 l 1,0,-1
EndSplineSet
EndChar

StartChar: uni0E01
Encoding: 3585 3585 198
Width: 600
GlyphClass: 2
Flags: W
LayerCount: 2
Fore
SplineSet
307 445 m 0,0,1
 393 445 393 445 449 392.5 c 128,-1,2
 505 340 505 340 505 280 c 2,3,-1
 505 0 l 1,4,-1
 445 0 l 1,5,-1
 445 280 l 2,6,7
 445 330 445 330 403 357.5 c 128,-1,8
 361 385 361 385 307 385 c 0,9,10
 195 385 195 385 140 330 c 1,11,-1
 200 330 l 1,12,-1
 200 280 l 1,13,14
 170 264 170 264 170 214 c 2,15,-1
 170 0 l 1,16,-1
 110 0 l 1,17,-1
 110 214 l 2,18,19
 110 234 110 234 119 254.5 c 128,-1,20
 128 275 128 275 140 280 c 1,21,-1
 80 280 l 1,22,-1
 80 330 l 1,23,24
 113 388 113 388 173.5 416.5 c 128,-1,25
 234 445 234 445 307 445 c 0,0,1
EndSplineSet
EndChar

StartChar: uni0E02
Encoding: 3586 3586 199
Width: 600
GlyphClass: 2
Flags: W
LayerCount: 2
Fore
SplineSet
226 400 m 128,-1,1
 210 400 210 400 198 388 c 128,-1,2
 186 376 186 376 186 360 c 128,-1,3
 186 344 186 344 198 332 c 128,-1,4
 210 320 210 320 226 320 c 128,-1,5
 242 320 242 320 254 332 c 128,-1,6
 266 344 266 344 266 360 c 128,-1,7
 266 376 266 376 254 388 c 128,-1,0
 242 400 242 400 226 400 c 128,-1,1
148 359 m 0,8,9
 148 401 148 401 183.5 426.5 c 128,-1,10
 219 452 219 452 267 452 c 0,11,12
 311 452 311 452 352.5 419 c 128,-1,13
 394 386 394 386 394 324 c 0,14,15
 394 302 394 302 383 284 c 128,-1,16
 372 266 372 266 356 253 c 128,-1,17
 340 240 340 240 324.5 226 c 128,-1,18
 309 212 309 212 298 191 c 128,-1,19
 287 170 287 170 287 144 c 2,20,-1
 287 60 l 1,21,-1
 452 60 l 1,22,-1
 452 445 l 1,23,-1
 512 445 l 1,24,-1
 512 0 l 1,25,-1
 167 0 l 1,26,-1
 167 60 l 1,27,-1
 227 60 l 1,28,-1
 227 164 l 2,29,30
 227 187 227 187 233.5 204 c 128,-1,31
 240 221 240 221 247 228.5 c 128,-1,32
 254 236 254 236 269 247.5 c 128,-1,33
 284 259 284 259 290 264 c 0,34,35
 296 271 296 271 307.5 279.5 c 128,-1,36
 319 288 319 288 325.5 296 c 128,-1,37
 332 304 332 304 332 316 c 0,38,39
 332 322 332 322 331 326.5 c 128,-1,40
 330 331 330 331 327.5 336 c 128,-1,41
 325 341 325 341 323 343.5 c 128,-1,42
 321 346 321 346 315.5 352.5 c 128,-1,43
 310 359 310 359 308 362 c 1,44,45
 310 356 310 356 310 352 c 0,46,47
 310 328 310 328 284.5 303 c 128,-1,48
 259 278 259 278 226 278 c 128,-1,49
 193 278 193 278 170.5 302 c 128,-1,50
 148 326 148 326 148 359 c 0,8,9
EndSplineSet
EndChar

StartChar: uni0E03
Encoding: 3587 3587 200
Width: 600
GlyphClass: 2
Flags: W
LayerCount: 2
Fore
SplineSet
150 333 m 0,0,1
 133 333 133 333 121 321 c 128,-1,2
 109 309 109 309 109 293 c 128,-1,3
 109 277 109 277 121 265 c 128,-1,4
 133 253 133 253 150 253 c 0,5,6
 166 253 166 253 177.5 264.5 c 128,-1,7
 189 276 189 276 189 293 c 128,-1,8
 189 310 189 310 177.5 321.5 c 128,-1,9
 166 333 166 333 150 333 c 0,0,1
150 204 m 0,10,11
 113 204 113 204 90 237.5 c 128,-1,12
 67 271 67 271 67 312 c 0,13,14
 67 374 67 374 114 402 c 0,15,16
 119 405 119 405 135.5 418 c 128,-1,17
 152 431 152 431 167 438.5 c 128,-1,18
 182 446 182 446 198 446 c 0,19,20
 211 446 211 446 223.5 439 c 128,-1,21
 236 432 236 432 245 421.5 c 128,-1,22
 254 411 254 411 260.5 400.5 c 128,-1,23
 267 390 267 390 271 383 c 2,24,-1
 275 376 l 1,25,26
 278 400 278 400 290 423 c 128,-1,27
 302 446 302 446 319 446 c 128,-1,28
 336 446 336 446 360 417 c 0,29,30
 373 403 373 403 379.5 387 c 128,-1,31
 386 371 386 371 387 359.5 c 128,-1,32
 388 348 388 348 388 324 c 0,33,34
 388 293 388 293 371.5 268 c 128,-1,35
 355 243 355 243 334.5 229 c 128,-1,36
 314 215 314 215 297.5 193 c 128,-1,37
 281 171 281 171 281 144 c 2,38,-1
 281 60 l 1,39,-1
 446 60 l 1,40,-1
 446 445 l 1,41,-1
 506 445 l 1,42,-1
 506 0 l 1,43,-1
 161 0 l 1,44,-1
 161 60 l 1,45,-1
 221 60 l 1,46,-1
 221 164 l 2,47,48
 221 187 221 187 227.5 204 c 128,-1,49
 234 221 234 221 241 228.5 c 128,-1,50
 248 236 248 236 263 247.5 c 128,-1,51
 278 259 278 259 284 264 c 0,52,53
 291 271 291 271 305 278.5 c 128,-1,54
 319 286 319 286 327.5 293 c 128,-1,55
 336 300 336 300 336 310 c 0,56,57
 336 311 336 311 332 338.5 c 128,-1,58
 328 366 328 366 327 368 c 2,59,-1
 291 310 l 1,60,-1
 256 310 l 1,61,62
 252 315 252 315 244 331 c 128,-1,63
 236 347 236 347 227 360 c 128,-1,64
 218 373 218 373 208 378 c 1,65,-1
 180 366 l 1,66,67
 234 346 234 346 234 272 c 0,68,69
 234 243 234 243 205 223.5 c 128,-1,70
 176 204 176 204 150 204 c 0,10,11
EndSplineSet
EndChar

StartChar: uni0E04
Encoding: 3588 3588 201
Width: 600
GlyphClass: 2
Flags: W
LayerCount: 2
Fore
SplineSet
285 265 m 0,0,1
 268 265 268 265 256 253 c 128,-1,2
 244 241 244 241 244 225 c 128,-1,3
 244 209 244 209 256 197 c 128,-1,4
 268 185 268 185 285 185 c 0,5,6
 301 185 301 185 312.5 196.5 c 128,-1,7
 324 208 324 208 324 225 c 128,-1,8
 324 242 324 242 312.5 253.5 c 128,-1,9
 301 265 301 265 285 265 c 0,0,1
286 445 m 0,10,11
 370 445 370 445 437 399 c 128,-1,12
 504 353 504 353 504 278 c 2,13,-1
 504 0 l 1,14,-1
 444 0 l 1,15,-1
 444 278 l 2,16,17
 444 324 444 324 395 354.5 c 128,-1,18
 346 385 346 385 286 385 c 0,19,20
 223 385 223 385 169 355 c 128,-1,21
 115 325 115 325 115 278 c 2,22,-1
 115 107 l 1,23,-1
 189 221 l 2,24,25
 222 272 222 272 240 286 c 0,26,27
 260 300 260 300 285 300 c 0,28,29
 321 300 321 300 347.5 279.5 c 128,-1,30
 374 259 374 259 374 227 c 0,31,32
 374 194 374 194 347.5 172 c 128,-1,33
 321 150 321 150 285 150 c 0,34,35
 244 150 244 150 226 176 c 1,36,-1
 115 0 l 1,37,-1
 55 0 l 1,38,-1
 55 278 l 2,39,40
 55 349 55 349 126.5 397 c 128,-1,41
 198 445 198 445 286 445 c 0,10,11
EndSplineSet
EndChar

StartChar: uni0E05
Encoding: 3589 3589 202
Width: 600
GlyphClass: 2
Flags: W
LayerCount: 2
Fore
SplineSet
288 265 m 128,-1,1
 272 265 272 265 260 253.5 c 128,-1,2
 248 242 248 242 248 225 c 128,-1,3
 248 208 248 208 260 196.5 c 128,-1,4
 272 185 272 185 288 185 c 128,-1,5
 304 185 304 185 316 196.5 c 128,-1,6
 328 208 328 208 328 225 c 128,-1,7
 328 242 328 242 316 253.5 c 128,-1,0
 304 265 304 265 288 265 c 128,-1,1
288 300 m 0,8,9
 327 300 327 300 351.5 280 c 128,-1,10
 376 260 376 260 376 227 c 0,11,12
 376 193 376 193 350 171.5 c 128,-1,13
 324 150 324 150 288 150 c 0,14,15
 246 150 246 150 228 176 c 1,16,-1
 117 0 l 1,17,-1
 57 0 l 1,18,-1
 57 300 l 2,19,20
 57 335 57 335 72 362.5 c 128,-1,21
 87 390 87 390 108 405 c 128,-1,22
 129 420 129 420 150 430 c 128,-1,23
 171 440 171 440 186 443 c 2,24,-1
 201 446 l 1,25,-1
 285 398 l 1,26,-1
 366 446 l 2,27,28
 372 445 372 445 381.5 443.5 c 128,-1,29
 391 442 391 442 415 432.5 c 128,-1,30
 439 423 439 423 457.5 408.5 c 128,-1,31
 476 394 476 394 491 365.5 c 128,-1,32
 506 337 506 337 506 300 c 2,33,-1
 506 0 l 1,34,-1
 446 0 l 1,35,-1
 446 300 l 2,36,37
 446 326 446 326 426 344 c 128,-1,38
 406 362 406 362 386 367 c 2,39,-1
 366 372 l 1,40,-1
 316 338 l 1,41,-1
 261 338 l 1,42,-1
 201 372 l 2,43,44
 198 371 198 371 192 370 c 128,-1,45
 186 369 186 369 171.5 363.5 c 128,-1,46
 157 358 157 358 146 350.5 c 128,-1,47
 135 343 135 343 126 329.5 c 128,-1,48
 117 316 117 316 117 300 c 2,49,-1
 117 107 l 1,50,-1
 189 221 l 2,51,52
 206 249 206 249 215 261 c 128,-1,53
 224 273 224 273 244 286.5 c 128,-1,54
 264 300 264 300 288 300 c 0,8,9
EndSplineSet
EndChar

StartChar: uni0E06
Encoding: 3590 3590 203
Width: 600
GlyphClass: 2
Flags: W
LayerCount: 2
Fore
SplineSet
129 326 m 0,0,1
 112 326 112 326 100 314 c 128,-1,2
 88 302 88 302 88 286 c 128,-1,3
 88 270 88 270 100 258 c 128,-1,4
 112 246 112 246 129 246 c 0,5,6
 145 246 145 246 156.5 257.5 c 128,-1,7
 168 269 168 269 168 286 c 128,-1,8
 168 303 168 303 156.5 314.5 c 128,-1,9
 145 326 145 326 129 326 c 0,0,1
104 116 m 0,10,11
 104 139 104 139 124.5 161.5 c 128,-1,12
 145 184 145 184 171 184 c 0,13,14
 193 184 193 184 211 170 c 1,15,16
 220 205 220 205 222 210 c 0,17,18
 227 221 227 221 233 229.5 c 128,-1,19
 239 238 239 238 248 249 c 128,-1,20
 257 260 257 260 262 267 c 0,21,22
 267 273 267 273 287 290.5 c 128,-1,23
 307 308 307 308 307 321 c 0,24,25
 307 326 307 326 302 346.5 c 128,-1,26
 297 367 297 367 296 369 c 2,27,-1
 264 307 l 1,28,-1
 233 307 l 1,29,30
 207 368 207 368 186 379 c 1,31,-1
 158 367 l 1,32,33
 212 347 212 347 212 273 c 0,34,35
 212 244 212 244 183 224.5 c 128,-1,36
 154 205 154 205 128 205 c 0,37,38
 91 205 91 205 68 238 c 128,-1,39
 45 271 45 271 45 310 c 0,40,41
 45 364 45 364 93.5 405 c 128,-1,42
 142 446 142 446 186 446 c 0,43,44
 200 446 200 446 216 434 c 128,-1,45
 232 422 232 422 241 410 c 2,46,-1
 250 398 l 1,47,48
 257 417 257 417 269.5 431.5 c 128,-1,49
 282 446 282 446 295 446 c 0,50,51
 313 446 313 446 338 417 c 0,52,53
 368 386 368 386 368 348 c 0,54,55
 368 324 368 324 359 301 c 128,-1,56
 350 278 350 278 342.5 267.5 c 128,-1,57
 335 257 335 257 315.5 236 c 128,-1,58
 296 215 296 215 294 212 c 0,59,60
 289 205 289 205 285.5 194.5 c 128,-1,61
 282 184 282 184 277.5 167.5 c 128,-1,62
 273 151 273 151 270 142 c 1,63,-1
 436 60 l 1,64,-1
 436 445 l 1,65,-1
 496 445 l 1,66,-1
 496 0 l 1,67,-1
 434 0 l 1,68,-1
 268 82 l 1,69,70
 269 39 269 39 252 22 c 0,71,72
 228 -4 228 -4 201 -4 c 0,73,74
 172 -4 172 -4 138 25 c 128,-1,75
 104 54 104 54 104 116 c 0,10,11
225 74 m 0,76,77
 225 95 225 95 207.5 113.5 c 128,-1,78
 190 132 190 132 174 132 c 0,79,80
 162 132 162 132 155 123 c 128,-1,81
 148 114 148 114 148 102 c 0,82,83
 148 70 148 70 164.5 56 c 128,-1,84
 181 42 181 42 197 42 c 0,85,86
 210 42 210 42 217.5 51.5 c 128,-1,87
 225 61 225 61 225 74 c 0,76,77
EndSplineSet
EndChar

